<svg xmlns="http://www.w3.org/2000/svg" xmlns:xlink="http://www.w3.org/1999/xlink" contentStyleType="text/css" data-diagram-type="SEQUENCE" height="499px" preserveAspectRatio="none" style="width:534px;height:499px;background:#F8F8FF;" version="1.1" viewBox="0 0 534 499" width="534px" zoomAndPan="magnify"><title>&lt;b&gt;&lt;size:18&gt;Consultation et analyse par le responsable centre&lt;/size&gt;&lt;/b&gt;</title><defs/><g><rect fill="#F8F8FF" height="499" style="stroke:transparent;stroke-width:1;" width="534" x="0" y="0"/><text fill="#000000" font-family="sans-serif" font-size="18" font-weight="bold" lengthAdjust="spacing" textLength="506.7949" x="10" y="31.708">Consultation et analyse par le responsable centre</text><rect fill="transparent" height="90.2031" style="stroke:#000000;stroke-width:1.5;" width="357.5757" x="22.1685" y="211.5156"/><g><title>Responsable Centre</title><rect fill="transparent" height="295.8672" width="8" x="101.5649" y="123.25"/><line style="stroke:#2980B9;stroke-width:0.5;stroke-dasharray:5.0,5.0;" x1="105.1685" x2="105.1685" y1="123.25" y2="419.1172"/></g><g><title>Syst&#232;me</title><rect fill="transparent" height="295.8672" width="8" x="328.3345" y="123.25"/><line style="stroke:#2980B9;stroke-width:0.5;stroke-dasharray:5.0,5.0;" x1="331.9248" x2="331.9248" y1="123.25" y2="419.1172"/></g><text fill="#000000" font-family="sans-serif" font-size="14" lengthAdjust="spacing" textLength="140.793" x="32.1685" y="119.9482">Responsable Centre</text><ellipse cx="105.5649" cy="55.4531" fill="#D6EAF8" rx="8" ry="8" style="stroke:#2980B9;stroke-width:0.5;"/><path d="M105.5649,63.4531 L105.5649,90.4531 M92.5649,71.4531 L118.5649,71.4531 M105.5649,90.4531 L92.5649,105.4531 M105.5649,90.4531 L118.5649,105.4531 " fill="transparent" style="stroke:#2980B9;stroke-width:0.5;"/><text fill="#000000" font-family="sans-serif" font-size="14" lengthAdjust="spacing" textLength="140.793" x="32.1685" y="431.1123">Responsable Centre</text><ellipse cx="105.5649" cy="442.9141" fill="#D6EAF8" rx="8" ry="8" style="stroke:#2980B9;stroke-width:0.5;"/><path d="M105.5649,450.9141 L105.5649,477.9141 M92.5649,458.9141 L118.5649,458.9141 M105.5649,477.9141 L92.5649,492.9141 M105.5649,477.9141 L118.5649,492.9141 " fill="transparent" style="stroke:#2980B9;stroke-width:0.5;"/><rect fill="#EBF5FB" height="30.2969" rx="2.5" ry="2.5" style="stroke:#2980B9;stroke-width:0.5;" width="74.8193" x="294.9248" y="91.9531"/><text fill="#000000" font-family="sans-serif" font-size="14" lengthAdjust="spacing" textLength="60.8193" x="301.9248" y="111.9482">Syst&#232;me</text><rect fill="#EBF5FB" height="30.2969" rx="2.5" ry="2.5" style="stroke:#2980B9;stroke-width:0.5;" width="74.8193" x="294.9248" y="418.1172"/><text fill="#000000" font-family="sans-serif" font-size="14" lengthAdjust="spacing" textLength="60.8193" x="301.9248" y="438.1123">Syst&#232;me</text><polygon fill="#2B547E" points="320.3345,150.3828,330.3345,154.3828,320.3345,158.3828,324.3345,154.3828" style="stroke:#2B547E;stroke-width:1;"/><line style="stroke:#2B547E;stroke-width:1;" x1="105.5649" x2="326.3345" y1="154.3828" y2="154.3828"/><text fill="#000000" font-family="sans-serif" font-size="13" lengthAdjust="spacing" textLength="193.8892" x="112.5649" y="149.3169">seConnecter(login, password)</text><line style="stroke:#2B547E;stroke-width:1;" x1="332.3345" x2="374.3345" y1="183.5156" y2="183.5156"/><line style="stroke:#2B547E;stroke-width:1;" x1="374.3345" x2="374.3345" y1="183.5156" y2="196.5156"/><line style="stroke:#2B547E;stroke-width:1;" x1="333.3345" x2="374.3345" y1="196.5156" y2="196.5156"/><polygon fill="#2B547E" points="343.3345,192.5156,333.3345,196.5156,343.3345,200.5156,339.3345,196.5156" style="stroke:#2B547E;stroke-width:1;"/><text fill="#000000" font-family="sans-serif" font-size="13" lengthAdjust="spacing" textLength="147.1006" x="339.3345" y="178.4497">V&#233;rifier les identifiants</text><path d="M22.1685,211.5156 L86.6113,211.5156 L86.6113,218.6484 L76.6113,228.6484 L22.1685,228.6484 L22.1685,211.5156 " fill="#EEEEEE" style="stroke:#000000;stroke-width:1.5;"/><rect fill="transparent" height="90.2031" style="stroke:#000000;stroke-width:1.5;" width="357.5757" x="22.1685" y="211.5156"/><text fill="#000000" font-family="sans-serif" font-size="13" font-weight="bold" lengthAdjust="spacing" textLength="19.4429" x="37.1685" y="224.5825">alt</text><text fill="#000000" font-family="sans-serif" font-size="11" font-weight="bold" lengthAdjust="spacing" textLength="129.8032" x="101.6113" y="223.7261">[Identifiants valides]</text><polygon fill="#2B547E" points="116.5649,245.7813,106.5649,249.7813,116.5649,253.7813,112.5649,249.7813" style="stroke:#2B547E;stroke-width:1;"/><line style="stroke:#2B547E;stroke-width:1;stroke-dasharray:2.0,2.0;" x1="110.5649" x2="331.3345" y1="249.7813" y2="249.7813"/><text fill="#000000" font-family="sans-serif" font-size="13" lengthAdjust="spacing" textLength="119.8755" x="122.5649" y="244.7153">Connexion r&#233;ussie</text><line style="stroke:#000000;stroke-width:1;stroke-dasharray:2.0,2.0;" x1="22.1685" x2="379.7441" y1="258.7813" y2="258.7813"/><text fill="#000000" font-family="sans-serif" font-size="11" font-weight="bold" lengthAdjust="spacing" textLength="141.4048" x="27.1685" y="268.9917">[Identifiants invalides]</text><polygon fill="#2B547E" points="116.5649,289.7188,106.5649,293.7188,116.5649,297.7188,112.5649,293.7188" style="stroke:#2B547E;stroke-width:1;"/><line style="stroke:#2B547E;stroke-width:1;stroke-dasharray:2.0,2.0;" x1="110.5649" x2="331.3345" y1="293.7188" y2="293.7188"/><text fill="#000000" font-family="sans-serif" font-size="13" lengthAdjust="spacing" textLength="113.2041" x="122.5649" y="288.6528">Message d'erreur</text><polygon fill="#2B547E" points="320.3345,325.8516,330.3345,329.8516,320.3345,333.8516,324.3345,329.8516" style="stroke:#2B547E;stroke-width:1;"/><line style="stroke:#2B547E;stroke-width:1;" x1="105.5649" x2="326.3345" y1="329.8516" y2="329.8516"/><text fill="#000000" font-family="sans-serif" font-size="13" lengthAdjust="spacing" textLength="202.7695" x="112.5649" y="324.7856">consulterStatistiques(typeStat)</text><line style="stroke:#2B547E;stroke-width:1;" x1="332.3345" x2="374.3345" y1="358.9844" y2="358.9844"/><line style="stroke:#2B547E;stroke-width:1;" x1="374.3345" x2="374.3345" y1="358.9844" y2="371.9844"/><line style="stroke:#2B547E;stroke-width:1;" x1="333.3345" x2="374.3345" y1="371.9844" y2="371.9844"/><polygon fill="#2B547E" points="343.3345,367.9844,333.3345,371.9844,343.3345,375.9844,339.3345,371.9844" style="stroke:#2B547E;stroke-width:1;"/><text fill="#000000" font-family="sans-serif" font-size="13" lengthAdjust="spacing" textLength="169.292" x="339.3345" y="353.9185">R&#233;cup&#233;rer les statistiques</text><polygon fill="#2B547E" points="116.5649,397.1172,106.5649,401.1172,116.5649,405.1172,112.5649,401.1172" style="stroke:#2B547E;stroke-width:1;"/><line style="stroke:#2B547E;stroke-width:1;stroke-dasharray:2.0,2.0;" x1="110.5649" x2="331.3345" y1="401.1172" y2="401.1172"/><text fill="#000000" font-family="sans-serif" font-size="13" lengthAdjust="spacing" textLength="152.3247" x="122.5649" y="396.0513">Afficher les statistiques</text><!--SRC=[bLBRRjf047tVhnZH1rAfLQ0DjuXQmiIM8X5IGLkfZuizq5NChhkxRaAg_a_u3dwiO-E4BHZQhb-yPywScJqpTVXGSM3wwUieW9lRgs0o3YefpDm9cNBDbp3ZqTr2gqp6GvKe3Q_2BdsXmp3uFKCP8VnaG6UWjRelkU_yraKdsCAHLTfNEaRz7Enr6txF2UvNkce7Wx1R44PYZYCXyPZ0ItnV8_33LkWNd8zSMn69b4jxJCQbd53orSEfPlFmaGAXadRCbmYrAIuKmkVhsWi-5Oy8pNPnlq5Z-09pk1HfjYxUjnlxmMrEgu37oXw-F-m5dLwuYxjz-PrUg-6pNymAco3qPrxVaDvbi-iDbJHPOhaLIW9Qu98dAuD04mUYQZGfCVYC_YEKLcF_F4_r-kSpZx7waRtRhCjDkGGg8F4XLw_SFvul1DGcJfrXKQS6t803Rr6MxWP7rgwCtJmjjzpyWajsa09llJ96tHWi-eaiwhD4BOHyGoyrvfxSUirAbil_ibbhCHUOcs50nAH8Lofk64yiN3i0_E094KmnWcSfqZfio3L5RzQPCG8P9kJw7tf2_eTYkIeGrr5hp3H36V_hV7OBGCLWclyRAuXXgcTssk9eAuZQ5JgpgnHpeDBboMOTPIbPNVfid4psbuSFvdCHVQj8_0q0]--></g></svg>