<svg xmlns="http://www.w3.org/2000/svg" xmlns:xlink="http://www.w3.org/1999/xlink" contentStyleType="text/css" data-diagram-type="DESCRIPTION" height="1007px" preserveAspectRatio="none" style="width:1619px;height:1007px;background:#FFFFFF;" version="1.1" viewBox="0 0 1619 1007" width="1619px" zoomAndPan="magnify"><title>&lt;b&gt;&lt;size:20&gt;Diagramme de cas d'utilisation - Gestion de Formation&lt;/size&gt;&lt;/b&gt;</title><defs><filter height="300%" id="flisumm3khyf8" width="300%" x="-1" y="-1"><feGaussianBlur result="blurOut" stdDeviation="2"/><feColorMatrix in="blurOut" result="blurOut2" type="matrix" values="0 0 0 0 0 0 0 0 0 0 0 0 0 0 0 0 0 0 .4 0"/><feOffset dx="4" dy="4" in="blurOut2" result="blurOut3"/><feBlend in="SourceGraphic" in2="blurOut3" mode="normal"/></filter></defs><g><text fill="#000000" font-family="sans-serif" font-size="20" font-weight="bold" lengthAdjust="spacing" textLength="616.8066" x="494.0967" y="28.5645">Diagramme de cas d'utilisation - Gestion de Formation</text><!--cluster Syst?me de Gestion de Formations--><g id="cluster_Syst&#232;me de Gestion de Formations"><rect fill="#EBF5FB" filter="url(#flisumm3khyf8)" height="944" rx="2.5" ry="2.5" style="stroke:#2B547E;stroke-width:1;" width="1225" x="382" y="51.2813"/><text fill="#000000" font-family="sans-serif" font-size="14" font-weight="bold" lengthAdjust="spacing" textLength="276.2676" x="856.3662" y="66.2764">Syst&#232;me de Gestion de Formations</text></g><g id="elem_UC1"><ellipse cx="908.5599" cy="524.2932" fill="#E6F2FF" filter="url(#flisumm3khyf8)" rx="75.5599" ry="17.512" style="stroke:#2B547E;stroke-width:0.5;"/><text fill="#154360" font-family="sans-serif" font-size="16" lengthAdjust="spacing" textLength="94.7031" x="858.2083" y="528.969">Authentifier</text></g><g id="elem_UC2"><ellipse cx="1503.8979" cy="524.0608" fill="#E6F2FF" filter="url(#flisumm3khyf8)" rx="86.8979" ry="19.7796" style="stroke:#2B547E;stroke-width:0.5;"/><text fill="#154360" font-family="sans-serif" font-size="16" lengthAdjust="spacing" textLength="125.2891" x="1438.2534" y="528.7366">Se d&#233;connecter</text></g><g id="elem_UC3"><ellipse cx="552.8848" cy="109.4582" fill="#E6F2FF" filter="url(#flisumm3khyf8)" rx="103.8848" ry="23.177" style="stroke:#2B547E;stroke-width:0.5;"/><text fill="#154360" font-family="sans-serif" font-size="16" lengthAdjust="spacing" textLength="166.6016" x="466.8471" y="114.047">G&#233;rer les formateurs</text></g><g id="elem_UC4"><ellipse cx="552.9494" cy="190.2711" fill="#E6F2FF" filter="url(#flisumm3khyf8)" rx="102.9494" ry="22.9899" style="stroke:#2B547E;stroke-width:0.5;"/><text fill="#154360" font-family="sans-serif" font-size="16" lengthAdjust="spacing" textLength="164.4141" x="467.7424" y="194.9469">G&#233;rer les formations</text></g><g id="elem_UC5"><ellipse cx="552.7619" cy="272.0336" fill="#E6F2FF" filter="url(#flisumm3khyf8)" rx="106.7619" ry="23.7524" style="stroke:#2B547E;stroke-width:0.5;"/><text fill="#154360" font-family="sans-serif" font-size="16" lengthAdjust="spacing" textLength="173.25" x="464.1748" y="276.3533">G&#233;rer les participants</text></g><g id="elem_UC6"><ellipse cx="552.7746" cy="358.1362" fill="#E6F2FF" filter="url(#flisumm3khyf8)" rx="119.7746" ry="26.3549" style="stroke:#2B547E;stroke-width:0.5;"/><text fill="#154360" font-family="sans-serif" font-size="16" lengthAdjust="spacing" textLength="202.1797" x="451.6847" y="361.6752">Consulter les statistiques</text></g><g id="elem_UC7"><ellipse cx="553.0994" cy="443.5011" fill="#E6F2FF" filter="url(#flisumm3khyf8)" rx="104.0994" ry="23.2199" style="stroke:#2B547E;stroke-width:0.5;"/><text fill="#154360" font-family="sans-serif" font-size="16" lengthAdjust="spacing" textLength="167.1016" x="466.8716" y="448.0699">G&#233;rer les utilisateurs</text></g><g id="elem_UC8"><ellipse cx="552.9471" cy="524.0707" fill="#E6F2FF" filter="url(#flisumm3khyf8)" rx="99.4471" ry="22.2894" style="stroke:#2B547E;stroke-width:0.5;"/><text fill="#154360" font-family="sans-serif" font-size="16" lengthAdjust="spacing" textLength="156.1406" x="471.8768" y="528.7465">G&#233;rer les domaines</text></g><g id="elem_UC9"><ellipse cx="552.7939" cy="604.34" fill="#E6F2FF" filter="url(#flisumm3khyf8)" rx="100.7939" ry="22.5588" style="stroke:#2B547E;stroke-width:0.5;"/><text fill="#154360" font-family="sans-serif" font-size="16" lengthAdjust="spacing" textLength="159.3359" x="470.1259" y="609.0158">G&#233;rer les structures</text></g><g id="elem_UC10"><ellipse cx="553.2349" cy="682.2282" fill="#E6F2FF" filter="url(#flisumm3khyf8)" rx="87.7349" ry="19.947" style="stroke:#2B547E;stroke-width:0.5;"/><text fill="#154360" font-family="sans-serif" font-size="16" lengthAdjust="spacing" textLength="127.4219" x="486.524" y="686.904">G&#233;rer les profils</text></g><g id="elem_UC11"><ellipse cx="553.0215" cy="765.1856" fill="#E6F2FF" filter="url(#flisumm3khyf8)" rx="127.5215" ry="27.9043" style="stroke:#2B547E;stroke-width:0.5;"/><text fill="#154360" font-family="sans-serif" font-size="16" lengthAdjust="spacing" textLength="218.9766" x="443.5332" y="768.7246">Effectuer toutes les actions</text></g><g id="elem_UC12"><ellipse cx="552.9115" cy="852.2636" fill="#E6F2FF" filter="url(#flisumm3khyf8)" rx="107.9115" ry="23.9823" style="stroke:#2B547E;stroke-width:0.5;"/><text fill="#154360" font-family="sans-serif" font-size="16" lengthAdjust="spacing" textLength="175.875" x="463.3058" y="856.4757">Animer une formation</text></g><g id="elem_UC13"><ellipse cx="552.7795" cy="945.1372" fill="#E6F2FF" filter="url(#flisumm3khyf8)" rx="154.7795" ry="33.3559" style="stroke:#2B547E;stroke-width:0.5;"/><text fill="#154360" font-family="sans-serif" font-size="16" lengthAdjust="spacing" textLength="276.9219" x="414.3186" y="948.6762">G&#233;rer la pr&#233;sence des participants</text></g><!--entity SimpleUser--><g id="elem_SimpleUser"><ellipse cx="253.6318" cy="197.2813" fill="#D6EAF8" filter="url(#flisumm3khyf8)" rx="16" ry="16" style="stroke:#2980B9;stroke-width:0.5;"/><path d="M253.6318,217.2813 C257.6318,217.2813 260.6318,217.2813 264.6318,213.2813 C272.6318,213.2813 280.6318,221.2813 280.6318,229.2813 L280.6318,233.2813 C280.6318,237.2813 276.6318,241.2813 272.6318,241.2813 L234.6318,241.2813 C230.6318,241.2813 226.6318,237.2813 226.6318,233.2813 L226.6318,229.2813 C226.6318,221.2813 234.6318,213.2813 242.6318,213.2813 C246.6318,217.2813 249.6318,217.2813 253.6318,217.2813 " fill="#D6EAF8" filter="url(#flisumm3khyf8)" style="stroke:#2980B9;stroke-width:0.5;"/><text fill="#154360" font-family="sans-serif" font-size="14" lengthAdjust="spacing" textLength="124.2637" x="191.5" y="254.7764">Simple Utilisateur</text></g><!--entity Responsable--><g id="elem_Responsable"><ellipse cx="253.5015" cy="337.2813" fill="#D6EAF8" filter="url(#flisumm3khyf8)" rx="16" ry="16" style="stroke:#2980B9;stroke-width:0.5;"/><path d="M253.5015,357.2813 C257.5015,357.2813 260.5015,357.2813 264.5015,353.2813 C272.5015,353.2813 280.5015,361.2813 280.5015,369.2813 L280.5015,373.2813 C280.5015,377.2813 276.5015,381.2813 272.5015,381.2813 L234.5015,381.2813 C230.5015,381.2813 226.5015,377.2813 226.5015,373.2813 L226.5015,369.2813 C226.5015,361.2813 234.5015,353.2813 242.5015,353.2813 C246.5015,357.2813 249.5015,357.2813 253.5015,357.2813 " fill="#D6EAF8" filter="url(#flisumm3khyf8)" style="stroke:#2980B9;stroke-width:0.5;"/><text fill="#154360" font-family="sans-serif" font-size="14" lengthAdjust="spacing" textLength="163.0029" x="172" y="394.7764">Responsable du Centre</text></g><!--entity Admin--><g id="elem_Admin"><ellipse cx="58.3018" cy="502.2813" fill="#D6EAF8" filter="url(#flisumm3khyf8)" rx="16" ry="16" style="stroke:#2980B9;stroke-width:0.5;"/><path d="M58.3018,522.2813 C62.3018,522.2813 65.3018,522.2813 69.3018,518.2813 C77.3018,518.2813 85.3018,526.2813 85.3018,534.2813 L85.3018,538.2813 C85.3018,542.2813 81.3018,546.2813 77.3018,546.2813 L39.3018,546.2813 C35.3018,546.2813 31.3018,542.2813 31.3018,538.2813 L31.3018,534.2813 C31.3018,526.2813 39.3018,518.2813 47.3018,518.2813 C51.3018,522.2813 54.3018,522.2813 58.3018,522.2813 " fill="#D6EAF8" filter="url(#flisumm3khyf8)" style="stroke:#2980B9;stroke-width:0.5;"/><text fill="#154360" font-family="sans-serif" font-size="14" lengthAdjust="spacing" textLength="104.6035" x="6" y="559.7764">Administrateur</text></g><!--entity Formateur--><g id="elem_Formateur"><ellipse cx="253.6611" cy="883.2813" fill="#D6EAF8" filter="url(#flisumm3khyf8)" rx="16" ry="16" style="stroke:#2980B9;stroke-width:0.5;"/><path d="M253.6611,903.2813 C257.6611,903.2813 260.6611,903.2813 264.6611,899.2813 C272.6611,899.2813 280.6611,907.2813 280.6611,915.2813 L280.6611,919.2813 C280.6611,923.2813 276.6611,927.2813 272.6611,927.2813 L234.6611,927.2813 C230.6611,927.2813 226.6611,923.2813 226.6611,919.2813 L226.6611,915.2813 C226.6611,907.2813 234.6611,899.2813 242.6611,899.2813 C246.6611,903.2813 249.6611,903.2813 253.6611,903.2813 " fill="#D6EAF8" filter="url(#flisumm3khyf8)" style="stroke:#2980B9;stroke-width:0.5;"/><text fill="#154360" font-family="sans-serif" font-size="14" lengthAdjust="spacing" textLength="73.3223" x="217" y="940.7764">Formateur</text></g><!--link SimpleUser to UC3--><g id="link_SimpleUser_UC3"><path d="M312.24,180.6213 C331.28,169.2112 352.97,157.5712 374,149.2813 C403.76,137.5512 431.8738,130.0638 462.1138,123.8238 " fill="transparent" id="SimpleUser-to-UC3" style="stroke:#181818;stroke-width:1;"/><polygon fill="#181818" points="467.99,122.6113,458.3673,120.5126,463.0932,123.6217,459.9841,128.3475,467.99,122.6113" style="stroke:#181818;stroke-width:1;"/></g><!--link SimpleUser to UC4--><g id="link_SimpleUser_UC4"><path d="M315.78,213.3112 C356.86,209.3012 405.7682,204.5328 452.2882,200.0028 " fill="transparent" id="SimpleUser-to-UC4" style="stroke:#181818;stroke-width:1;"/><polygon fill="#181818" points="458.26,199.4213,448.9147,196.3124,453.2835,199.9058,449.69,204.2747,458.26,199.4213" style="stroke:#181818;stroke-width:1;"/></g><!--link SimpleUser to UC5--><g id="link_SimpleUser_UC5"><path d="M315.78,230.2012 C360.01,238.0812 414.3232,247.7481 462.8932,256.4081 " fill="transparent" id="SimpleUser-to-UC5" style="stroke:#181818;stroke-width:1;"/><polygon fill="#181818" points="468.8,257.4612,460.6419,251.9436,463.8776,256.5836,459.2376,259.8194,468.8,257.4612" style="stroke:#181818;stroke-width:1;"/></g><!--link UC3 to UC1--><g id="link_UC3_UC1"><path d="M634.56,123.6613 C658.9,129.7213 685.21,138.0413 708,149.2813 C756.01,172.9412 771.83,179.7713 803,223.2813 C870.16,317.0413 896.3035,451.8148 904.0435,500.7948 " fill="transparent" id="UC3-to-UC1" style="stroke:#181818;stroke-width:1;"/><polygon fill="#181818" points="904.98,506.7213,907.5262,497.2072,904.1996,501.7825,899.6242,498.4559,904.98,506.7213" style="stroke:#181818;stroke-width:1;"/><text fill="#000000" font-family="sans-serif" font-size="13" lengthAdjust="spacing" textLength="63.0068" x="739" y="161.3481">&#171;include&#187;</text></g><!--link UC4 to UC1--><g id="link_UC4_UC1"><path d="M635.23,204.2313 C659.47,210.2613 685.55,218.6812 708,230.2813 C757.04,255.6213 769.04,266.7613 803,310.2813 C853.61,375.1513 886.7387,462.804 899.8487,501.144 " fill="transparent" id="UC4-to-UC1" style="stroke:#181818;stroke-width:1;"/><polygon fill="#181818" points="901.79,506.8213,902.6629,497.0112,900.1723,502.0902,895.0932,499.5995,901.79,506.8213" style="stroke:#181818;stroke-width:1;"/><text fill="#000000" font-family="sans-serif" font-size="13" lengthAdjust="spacing" textLength="63.0068" x="739" y="244.3481">&#171;include&#187;</text></g><!--link UC5 to UC1--><g id="link_UC5_UC1"><path d="M635.58,287.6213 C659.71,293.9612 685.63,302.6413 708,314.2813 C798.33,361.3013 867.3679,460.2635 893.6279,501.6935 " fill="transparent" id="UC5-to-UC1" style="stroke:#181818;stroke-width:1;"/><polygon fill="#181818" points="896.84,506.7613,895.4003,497.0182,894.1632,502.5381,888.6433,501.3011,896.84,506.7613" style="stroke:#181818;stroke-width:1;"/><text fill="#000000" font-family="sans-serif" font-size="13" lengthAdjust="spacing" textLength="63.0068" x="739" y="331.3481">&#171;include&#187;</text></g><!--link Responsable to UC6--><g id="link_Responsable_UC6"><path d="M335.01,359.0113 C365.12,358.9113 394,358.8113 426.87,358.7013 " fill="transparent" id="Responsable-to-UC6" style="stroke:#181818;stroke-width:1;"/><polygon fill="#181818" points="432.87,358.6813,423.8567,354.7114,427.87,358.698,423.8834,362.7113,432.87,358.6813" style="stroke:#181818;stroke-width:1;"/></g><!--link UC6 to UC1--><g id="link_UC6_UC1"><path d="M636.57,377.4512 C660.1,384.0912 685.46,392.4013 708,402.2813 C753.31,422.1413 760.8,434.4713 803,460.2813 C829.5,476.4813 854.6439,491.8867 875.7639,504.8267 " fill="transparent" id="UC6-to-UC1" style="stroke:#181818;stroke-width:1;"/><polygon fill="#181818" points="880.88,507.9613,875.2956,499.8487,876.6166,505.3491,871.1161,506.6701,880.88,507.9613" style="stroke:#181818;stroke-width:1;"/><text fill="#000000" font-family="sans-serif" font-size="13" lengthAdjust="spacing" textLength="63.0068" x="739" y="414.3481">&#171;include&#187;</text></g><!--link Admin to UC7--><g id="link_Admin_UC7"><path d="M111.3,506.2613 C121.08,503.2813 131.29,500.4613 141,498.2813 C247.24,474.4213 365.4383,460.1432 449.2683,451.9732 " fill="transparent" id="Admin-to-UC7" style="stroke:#181818;stroke-width:1;"/><polygon fill="#181818" points="455.24,451.3913,445.8944,448.2831,450.2636,451.8762,446.6704,456.2454,455.24,451.3913" style="stroke:#181818;stroke-width:1;"/></g><!--link Admin to UC8--><g id="link_Admin_UC8"><path d="M111.28,524.2813 C192.16,524.2813 343.89,524.2813 447.07,524.2813 " fill="transparent" id="Admin-to-UC8" style="stroke:#181818;stroke-width:1;"/><polygon fill="#181818" points="453.07,524.2813,444.07,520.2813,448.07,524.2813,444.07,528.2813,453.07,524.2813" style="stroke:#181818;stroke-width:1;"/></g><!--link Admin to UC9--><g id="link_Admin_UC9"><path d="M111.28,532.6913 C196.97,546.6112 363.0275,573.5897 464.9675,590.1397 " fill="transparent" id="Admin-to-UC9" style="stroke:#181818;stroke-width:1;"/><polygon fill="#181818" points="470.89,591.1012,462.6473,585.7107,465.9546,590.3,461.3653,593.6073,470.89,591.1012" style="stroke:#181818;stroke-width:1;"/></g><!--link Admin to UC10--><g id="link_Admin_UC10"><path d="M111.02,550.1413 C129.97,559.2313 151.75,569.1913 172,577.2813 C259.83,612.3913 282.72,619.4813 374,644.2813 C410.13,654.1012 445.0771,661.7918 478.4971,668.4918 " fill="transparent" id="Admin-to-UC10" style="stroke:#181818;stroke-width:1;"/><polygon fill="#181818" points="484.38,669.6713,476.3419,663.9802,479.4775,668.6884,474.7693,671.8241,484.38,669.6713" style="stroke:#181818;stroke-width:1;"/></g><!--link Admin to UC11--><g id="link_Admin_UC11"><path d="M88.67,562.8712 C109.54,588.2913 139.59,620.7313 172,642.2813 C257.32,699.0013 364.8606,729.9762 445.5206,747.0862 " fill="transparent" id="Admin-to-UC11" style="stroke:#181818;stroke-width:1;"/><polygon fill="#181818" points="451.39,748.3313,443.4159,742.5507,446.4988,747.2937,441.7559,750.3766,451.39,748.3313" style="stroke:#181818;stroke-width:1;"/></g><!--link Admin to Responsable--><g id="link_Admin_Responsable"><path d="M87,485.3312 C101.68,466.1813 120.85,443.5712 141,426.2813 C152.91,416.0613 151.3496,416.0606 164.9396,407.4806 " fill="transparent" id="Admin-to-Responsable" style="stroke:#181818;stroke-width:1;"/><polygon fill="transparent" points="180.16,397.8713,161.7365,402.4071,168.1427,412.5541,180.16,397.8713" style="stroke:#181818;stroke-width:1;"/></g><!--link Admin to SimpleUser--><g id="link_Admin_SimpleUser"><path d="M75.05,485.6113 C94.34,439.9113 129.87,362.6013 172,303.2813 C183.23,287.4713 184.7413,284.5473 198.0213,271.0173 " fill="transparent" id="Admin-to-SimpleUser" style="stroke:#181818;stroke-width:1;"/><polygon fill="transparent" points="210.63,258.1713,193.7393,266.8144,202.3033,275.2202,210.63,258.1713" style="stroke:#181818;stroke-width:1;"/></g><!--link UC7 to UC1--><g id="link_UC7_UC1"><path d="M627.06,459.4412 C676.71,470.4813 743.87,485.5613 803,499.2813 C820.17,503.2613 833.0755,506.3117 849.8755,510.3417 " fill="transparent" id="UC7-to-UC1" style="stroke:#181818;stroke-width:1;"/><polygon fill="#181818" points="855.71,511.7413,847.8913,505.7522,850.8479,510.5749,846.0252,513.5315,855.71,511.7413" style="stroke:#181818;stroke-width:1;"/><text fill="#000000" font-family="sans-serif" font-size="13" lengthAdjust="spacing" textLength="63.0068" x="739" y="481.3481">&#171;include&#187;</text></g><!--link UC8 to UC1--><g id="link_UC8_UC1"><path d="M652.94,524.2813 C709.93,524.2813 774.4,524.2813 826.73,524.2813 " fill="transparent" id="UC8-to-UC1" style="stroke:#181818;stroke-width:1;"/><polygon fill="#181818" points="832.73,524.2813,823.73,520.2813,827.73,524.2813,823.73,528.2813,832.73,524.2813" style="stroke:#181818;stroke-width:1;"/><text fill="#000000" font-family="sans-serif" font-size="13" lengthAdjust="spacing" textLength="63.0068" x="739" y="520.3481">&#171;include&#187;</text></g><!--link UC9 to UC1--><g id="link_UC9_UC1"><path d="M625.99,588.7313 C675.76,577.8913 743.46,562.9813 803,549.2813 C820.18,545.3313 833.0855,542.2908 849.8855,538.2608 " fill="transparent" id="UC9-to-UC1" style="stroke:#181818;stroke-width:1;"/><polygon fill="#181818" points="855.72,536.8612,846.0352,535.071,850.8579,538.0276,847.9013,542.8503,855.72,536.8612" style="stroke:#181818;stroke-width:1;"/><text fill="#000000" font-family="sans-serif" font-size="13" lengthAdjust="spacing" textLength="63.0068" x="739" y="545.3481">&#171;include&#187;</text></g><!--link UC10 to UC1--><g id="link_UC10_UC1"><path d="M622.05,669.9613 C649.34,663.8712 680.72,655.4113 708,644.2813 C753.38,625.7713 760.99,613.5213 803,588.2813 C829.62,572.2813 854.7641,556.8725 875.8441,543.8625 " fill="transparent" id="UC10-to-UC1" style="stroke:#181818;stroke-width:1;"/><polygon fill="#181818" points="880.95,540.7113,871.1904,542.0341,876.6951,543.3373,875.392,548.842,880.95,540.7113" style="stroke:#181818;stroke-width:1;"/><text fill="#000000" font-family="sans-serif" font-size="13" lengthAdjust="spacing" textLength="63.0068" x="739" y="584.3481">&#171;include&#187;</text></g><!--link UC11 to UC1--><g id="link_UC11_UC1"><path d="M639.64,744.6913 C662.38,737.8913 686.56,729.4213 708,719.2813 C754.03,697.5213 765.58,689.8013 803,655.2813 C841.92,619.3813 874.9775,573.294 892.7675,546.774 " fill="transparent" id="UC11-to-UC1" style="stroke:#181818;stroke-width:1;"/><polygon fill="#181818" points="896.11,541.7913,887.7744,547.037,893.3246,545.9435,894.4181,551.4937,896.11,541.7913" style="stroke:#181818;stroke-width:1;"/><text fill="#000000" font-family="sans-serif" font-size="13" lengthAdjust="spacing" textLength="63.0068" x="739" y="651.3481">&#171;include&#187;</text></g><!--link Formateur to UC12--><g id="link_Formateur_UC12"><path d="M290.09,898.9413 C333.81,891.1513 403.513,878.7336 462.283,868.2636 " fill="transparent" id="Formateur-to-UC12" style="stroke:#181818;stroke-width:1;"/><polygon fill="#181818" points="468.19,867.2113,458.6279,864.8518,463.2675,868.0882,460.0311,872.7278,468.19,867.2113" style="stroke:#181818;stroke-width:1;"/></g><!--link Formateur to UC13--><g id="link_Formateur_UC13"><path d="M290.09,910.0713 C322.71,914.4513 367.1235,920.4214 415.0035,926.8614 " fill="transparent" id="Formateur-to-UC13" style="stroke:#181818;stroke-width:1;"/><polygon fill="#181818" points="420.95,927.6613,412.5635,922.4972,415.9946,926.9947,411.4971,930.4258,420.95,927.6613" style="stroke:#181818;stroke-width:1;"/></g><!--link UC12 to UC1--><g id="link_UC12_UC1"><path d="M636.47,836.9013 C660.37,830.5813 685.95,821.9313 708,810.2813 C757.06,784.3613 768.63,772.8413 803,729.2813 C851.88,667.3512 885.4592,584.5889 899.1992,547.4289 " fill="transparent" id="UC12-to-UC1" style="stroke:#181818;stroke-width:1;"/><polygon fill="#181818" points="901.28,541.8013,894.407,548.8555,899.546,546.4909,901.9105,551.6299,901.28,541.8013" style="stroke:#181818;stroke-width:1;"/><text fill="#000000" font-family="sans-serif" font-size="13" lengthAdjust="spacing" textLength="63.0068" x="739" y="725.3481">&#171;include&#187;</text></g><!--link UC13 to UC1--><g id="link_UC13_UC1"><path d="M651.41,919.2813 C704.63,899.9413 766.88,867.9413 803,817.2813 C868.05,726.0313 895.2732,596.1227 903.6432,547.9327 " fill="transparent" id="UC13-to-UC1" style="stroke:#181818;stroke-width:1;"/><polygon fill="#181818" points="904.67,542.0213,899.1889,550.204,903.8144,546.9475,907.0709,551.573,904.67,542.0213" style="stroke:#181818;stroke-width:1;"/><text fill="#000000" font-family="sans-serif" font-size="13" lengthAdjust="spacing" textLength="63.0068" x="739" y="813.3481">&#171;include&#187;</text></g><!--link UC1 to UC2--><g id="link_UC1_UC2"><path d="M984.07,524.2813 C1094.28,524.2813 1294.16,524.2813 1410.73,524.2813 " fill="transparent" id="UC1-to-UC2" style="stroke:#181818;stroke-width:1;"/><polygon fill="#181818" points="1416.73,524.2813,1407.73,520.2813,1411.73,524.2813,1407.73,528.2813,1416.73,524.2813" style="stroke:#181818;stroke-width:1;"/><text fill="#000000" font-family="sans-serif" font-size="13" lengthAdjust="spacing" textLength="371.9854" x="1015" y="520.3481">&#171;extend&#187;  ' Se d&#233;connecter est possible apr&#232;s connexion</text></g><!--SRC=[VLHBRk904Dtx52LcaLKqs7m24MC928woc8aKXyKiEtP3Mh6xcVueoNoaMSuLvWRX7DnaJZBb7nZi3X8INUzHLQ_ggHAwqg05IBP-r10pIIFD17VK4-CR8aaA6n8zaJKDzMj28ODh68cqa0L2dgaIAQs1Hj68A3eJCgPoBX8XuOCt6_Gl5YqaBBAMml2u92w6WHS4JM8Wk2ufxg3V6tRRAI7xJi4TdhPwtCjur9sD6vJJJgw6YsamEgMzrqSs9CBNE9GV3a2RVems1C-2GJ1pVjNog4SIYsV6rw2beOvc6bDE7lo9GdMNNjU_OcIDn9H2J06bGtncD4kO8jaEuHokgSf_8Hm8cURXoSVix_xauuFlE6VmgUK3q_dzOdaNje9EhXyw8KitsC-oB4YDx02sK8INYigAU4VLHd157f0T6vXJhYNDkJMa8a_Zb76cj3nap4CLNiYeeFtBgYJy6jxl_dnUj4ivRAeJlYgzUoj6sJOsrS5jukBEu3pxm3mRzx_VV-i3N- -sVBULnBmK9AINdaHXHZ-YShPYjEXzENVhU8YLTzj8S8uzxIdUQScDC1AQes_MkyP6g8I4AbXLKr9brjwxn49iJknRYEXFpIAs8LnNr45hf_NTDrgS8s8INUPK6alZtByPMkKSjkOyjiYxoirXGbNE2mir5YbXV5zwPA5XMHDf8_V4iMr4KgnOKh7SRfssMArmoGQPMXYDvEmF9AfFtdLRjUyDts8mpbBCQ3WzxB5AvhKrIR37tLPH7cMcRrsgsyE3P3qIONWxlvdUtzn-iLoAmot0TltSU8rGlnaQECWiVxjm2PC9ur5YOkhxYFIjoC22ECSkz7DduTT6pmrMWXT7hz7HQtpqmXKVFTtzywTVFtI7QErKOY6hh94L6LiHjsk7N9lkkhdymZQDK2_BuDcJs_QMOINavH1zqPJ7lf-P_EJs0PvVjBjIB5iOGPU-ASZH5_JqVm00]--></g></svg>