<svg xmlns="http://www.w3.org/2000/svg" xmlns:xlink="http://www.w3.org/1999/xlink" contentStyleType="text/css" data-diagram-type="CLASS" height="1221px" preserveAspectRatio="none" style="width:1380px;height:1221px;background:#F8F8FF;" version="1.1" viewBox="0 0 1380 1221" width="1380px" zoomAndPan="magnify"><title>&lt;b&gt;&lt;size:20&gt;Diagramme de Classes - Gestion de Formation&lt;/size&gt;&lt;/b&gt;</title><defs><filter height="300%" id="f1ts97yp6touyj" width="300%" x="-1" y="-1"><feGaussianBlur result="blurOut" stdDeviation="2"/><feColorMatrix in="blurOut" result="blurOut2" type="matrix" values="0 0 0 0 0 0 0 0 0 0 0 0 0 0 0 0 0 0 .4 0"/><feOffset dx="4" dy="4" in="blurOut2" result="blurOut3"/><feBlend in="SourceGraphic" in2="blurOut3" mode="normal"/></filter></defs><g><rect fill="#F8F8FF" height="1221" style="stroke:transparent;stroke-width:1;" width="1380" x="0" y="0"/><text fill="#000000" font-family="sans-serif" font-size="20" font-weight="bold" lengthAdjust="spacing" textLength="522.2949" x="416.8525" y="28.5645">Diagramme de Classes - Gestion de Formation</text><!--cluster Utilisateurs & R?les--><g id="cluster_Utilisateurs &amp; R&#244;les"><path d="M16,50.2813 L158.6113,50.2813 A15,15 0 0 1 168.6113,60.2813 L175.6113,72.5781 L776,72.5781 A10,10 0 0 1 786,82.5781 L786,650.2813 A10,10 0 0 1 776,660.2813 L16,660.2813 A10,10 0 0 1 6,650.2813 L6,60.2813 A10,10 0 0 1 16,50.2813 " fill="#D6EAF8" filter="url(#f1ts97yp6touyj)" style="stroke:#000000;stroke-width:1.5;"/><line style="stroke:#000000;stroke-width:1.5;" x1="6" x2="175.6113" y1="72.5781" y2="72.5781"/><text fill="#000000" font-family="sans-serif" font-size="14" font-weight="bold" lengthAdjust="spacing" textLength="156.6113" x="10" y="65.2764">Utilisateurs &amp; R&#244;les</text></g><!--cluster Entit?s M?tier--><g id="cluster_Entit&#233;s M&#233;tier"><path d="M820,471.7813 L917.7334,471.7813 A15,15 0 0 1 927.7334,481.7813 L934.7334,494.0781 L1353,494.0781 A10,10 0 0 1 1363,504.0781 L1363,924.2813 A10,10 0 0 1 1353,934.2813 L820,934.2813 A10,10 0 0 1 810,924.2813 L810,481.7813 A10,10 0 0 1 820,471.7813 " fill="#D5F5E3" filter="url(#f1ts97yp6touyj)" style="stroke:#000000;stroke-width:1.5;"/><line style="stroke:#000000;stroke-width:1.5;" x1="810" x2="934.7334" y1="494.0781" y2="494.0781"/><text fill="#000000" font-family="sans-serif" font-size="14" font-weight="bold" lengthAdjust="spacing" textLength="111.7334" x="814" y="486.7764">Entit&#233;s M&#233;tier</text></g><!--cluster Participation--><g id="cluster_Participation"><path d="M1020,991.2813 L1107.7461,991.2813 A15,15 0 0 1 1117.7461,1001.2813 L1124.7461,1013.5781 L1245,1013.5781 A10,10 0 0 1 1255,1023.5781 L1255,1194.2813 A10,10 0 0 1 1245,1204.2813 L1020,1204.2813 A10,10 0 0 1 1010,1194.2813 L1010,1001.2813 A10,10 0 0 1 1020,991.2813 " fill="#FCF3CF" filter="url(#f1ts97yp6touyj)" style="stroke:#000000;stroke-width:1.5;"/><line style="stroke:#000000;stroke-width:1.5;" x1="1010" x2="1124.7461" y1="1013.5781" y2="1013.5781"/><text fill="#000000" font-family="sans-serif" font-size="14" font-weight="bold" lengthAdjust="spacing" textLength="101.7461" x="1014" y="1006.2764">Participation</text></g><!--class Role--><g id="elem_Role"><rect codeLine="18" fill="#E6F2FF" filter="url(#f1ts97yp6touyj)" height="80.5938" id="Role" rx="10" ry="10" style="stroke:#2B547E;stroke-width:0.5;" width="103.3076" x="335.5" y="85.2813"/><ellipse cx="368.7303" cy="101.2813" fill="#A9DCDF" rx="11" ry="11" style="stroke:#181818;stroke-width:1;"/><path d="M368.8396,96.625 L367.6834,101.7031 L370.0115,101.7031 L368.8396,96.625 Z M367.3553,94.3906 L370.3396,94.3906 L373.699,106.7813 L371.2459,106.7813 L370.4803,103.7188 L367.199,103.7188 L366.449,106.7813 L364.0115,106.7813 L367.3553,94.3906 Z " fill="#000000"/><text fill="#2B547E" font-family="sans-serif" font-size="14" font-style="italic" lengthAdjust="spacing" textLength="30.7959" x="386.7814" y="106.1279">Role</text><line style="stroke:#2B547E;stroke-width:0.5;" x1="336.5" x2="437.8076" y1="117.2813" y2="117.2813"/><ellipse cx="346.5" cy="130.9297" fill="transparent" rx="3" ry="3" style="stroke:#038048;stroke-width:1;"/><text fill="#000000" font-family="sans-serif" font-size="14" lengthAdjust="spacing" textLength="35.4785" x="355.5" y="134.2764">int id</text><ellipse cx="346.5" cy="147.2266" fill="transparent" rx="3" ry="3" style="stroke:#038048;stroke-width:1;"/><text fill="#000000" font-family="sans-serif" font-size="14" lengthAdjust="spacing" textLength="77.3076" x="355.5" y="150.5732">String nom</text><line style="stroke:#2B547E;stroke-width:0.5;" x1="336.5" x2="437.8076" y1="157.875" y2="157.875"/></g><!--class Utilisateur--><g id="elem_Utilisateur"><rect codeLine="23" fill="#E6F2FF" filter="url(#f1ts97yp6touyj)" height="145.7813" id="Utilisateur" rx="10" ry="10" style="stroke:#2B547E;stroke-width:0.5;" width="142.4023" x="316" y="243.2813"/><ellipse cx="348.2767" cy="259.2813" fill="#ADD1B2" rx="11" ry="11" style="stroke:#181818;stroke-width:1;"/><path d="M351.2454,264.9219 Q350.6673,265.2188 350.0267,265.3594 Q349.386,265.5156 348.6829,265.5156 Q346.1829,265.5156 344.8548,263.875 Q343.5423,262.2188 343.5423,259.0938 Q343.5423,255.9688 344.8548,254.3125 Q346.1829,252.6563 348.6829,252.6563 Q349.386,252.6563 350.0267,252.8125 Q350.6829,252.9688 351.2454,253.2656 L351.2454,255.9844 Q350.6204,255.4063 350.0267,255.1406 Q349.4329,254.8594 348.8079,254.8594 Q347.4642,254.8594 346.7767,255.9375 Q346.0892,257 346.0892,259.0938 Q346.0892,261.1875 346.7767,262.2656 Q347.4642,263.3281 348.8079,263.3281 Q349.4329,263.3281 350.0267,263.0625 Q350.6204,262.7813 351.2454,262.2031 L351.2454,264.9219 Z " fill="#000000"/><text fill="#2B547E" font-family="sans-serif" font-size="14" lengthAdjust="spacing" textLength="72.0098" x="366.1159" y="264.1279">Utilisateur</text><line style="stroke:#2B547E;stroke-width:0.5;" x1="317" x2="457.4023" y1="275.2813" y2="275.2813"/><ellipse cx="327" cy="288.9297" fill="transparent" rx="3" ry="3" style="stroke:#038048;stroke-width:1;"/><text fill="#000000" font-family="sans-serif" font-size="14" lengthAdjust="spacing" textLength="35.4785" x="336" y="292.2764">int id</text><ellipse cx="327" cy="305.2266" fill="transparent" rx="3" ry="3" style="stroke:#038048;stroke-width:1;"/><text fill="#000000" font-family="sans-serif" font-size="14" lengthAdjust="spacing" textLength="80.3359" x="336" y="308.5732">String login</text><ellipse cx="327" cy="321.5234" fill="transparent" rx="3" ry="3" style="stroke:#038048;stroke-width:1;"/><text fill="#000000" font-family="sans-serif" font-size="14" lengthAdjust="spacing" textLength="112.9434" x="336" y="324.8701">String password</text><ellipse cx="327" cy="337.8203" fill="transparent" rx="3" ry="3" style="stroke:#038048;stroke-width:1;"/><text fill="#000000" font-family="sans-serif" font-size="14" lengthAdjust="spacing" textLength="66.2744" x="336" y="341.167">int idRole</text><line style="stroke:#2B547E;stroke-width:0.5;" x1="317" x2="457.4023" y1="348.4688" y2="348.4688"/><ellipse cx="327" cy="362.1172" fill="#84BE84" rx="3" ry="3" style="stroke:#038048;stroke-width:1;"/><text fill="#000000" font-family="sans-serif" font-size="14" lengthAdjust="spacing" textLength="99.0869" x="336" y="365.4639">seConnecter()</text><ellipse cx="327" cy="378.4141" fill="#84BE84" rx="3" ry="3" style="stroke:#038048;stroke-width:1;"/><text fill="#000000" font-family="sans-serif" font-size="14" lengthAdjust="spacing" textLength="116.4023" x="336" y="381.7607">seDeconnecter()</text></g><!--class SimpleUtilisateur--><g id="elem_SimpleUtilisateur"><rect codeLine="33" fill="#E6F2FF" filter="url(#f1ts97yp6touyj)" height="96.8906" id="SimpleUtilisateur" rx="10" ry="10" style="stroke:#2B547E;stroke-width:0.5;" width="151.8135" x="22" y="506.7813"/><ellipse cx="37" cy="522.7813" fill="#ADD1B2" rx="11" ry="11" style="stroke:#181818;stroke-width:1;"/><path d="M39.9688,528.4219 Q39.3906,528.7188 38.75,528.8594 Q38.1094,529.0156 37.4063,529.0156 Q34.9063,529.0156 33.5781,527.375 Q32.2656,525.7188 32.2656,522.5938 Q32.2656,519.4688 33.5781,517.8125 Q34.9063,516.1563 37.4063,516.1563 Q38.1094,516.1563 38.75,516.3125 Q39.4063,516.4688 39.9688,516.7656 L39.9688,519.4844 Q39.3438,518.9063 38.75,518.6406 Q38.1563,518.3594 37.5313,518.3594 Q36.1875,518.3594 35.5,519.4375 Q34.8125,520.5 34.8125,522.5938 Q34.8125,524.6875 35.5,525.7656 Q36.1875,526.8281 37.5313,526.8281 Q38.1563,526.8281 38.75,526.5625 Q39.3438,526.2813 39.9688,525.7031 L39.9688,528.4219 Z " fill="#000000"/><text fill="#2B547E" font-family="sans-serif" font-size="14" lengthAdjust="spacing" textLength="119.8135" x="51" y="527.6279">SimpleUtilisateur</text><line style="stroke:#2B547E;stroke-width:0.5;" x1="23" x2="172.8135" y1="538.7813" y2="538.7813"/><line style="stroke:#2B547E;stroke-width:0.5;" x1="23" x2="172.8135" y1="546.7813" y2="546.7813"/><ellipse cx="33" cy="560.4297" fill="#84BE84" rx="3" ry="3" style="stroke:#038048;stroke-width:1;"/><text fill="#000000" font-family="sans-serif" font-size="14" lengthAdjust="spacing" textLength="121.8711" x="42" y="563.7764">gererFormateur()</text><ellipse cx="33" cy="576.7266" fill="#84BE84" rx="3" ry="3" style="stroke:#038048;stroke-width:1;"/><text fill="#000000" font-family="sans-serif" font-size="14" lengthAdjust="spacing" textLength="119.957" x="42" y="580.0732">gererFormation()</text><ellipse cx="33" cy="593.0234" fill="#84BE84" rx="3" ry="3" style="stroke:#038048;stroke-width:1;"/><text fill="#000000" font-family="sans-serif" font-size="14" lengthAdjust="spacing" textLength="124.1201" x="42" y="596.3701">gererParticipant()</text></g><!--class ResponsableCentre--><g id="elem_ResponsableCentre"><rect codeLine="39" fill="#E6F2FF" filter="url(#f1ts97yp6touyj)" height="64.2969" id="ResponsableCentre" rx="10" ry="10" style="stroke:#2B547E;stroke-width:0.5;" width="184.6484" x="209.5" y="523.2813"/><ellipse cx="231.8375" cy="539.2813" fill="#ADD1B2" rx="11" ry="11" style="stroke:#181818;stroke-width:1;"/><path d="M234.8063,544.9219 Q234.2282,545.2188 233.5875,545.3594 Q232.9469,545.5156 232.2438,545.5156 Q229.7438,545.5156 228.4157,543.875 Q227.1032,542.2188 227.1032,539.0938 Q227.1032,535.9688 228.4157,534.3125 Q229.7438,532.6563 232.2438,532.6563 Q232.9469,532.6563 233.5875,532.8125 Q234.2438,532.9688 234.8063,533.2656 L234.8063,535.9844 Q234.1813,535.4063 233.5875,535.1406 Q232.9938,534.8594 232.3688,534.8594 Q231.025,534.8594 230.3375,535.9375 Q229.65,537 229.65,539.0938 Q229.65,541.1875 230.3375,542.2656 Q231.025,543.3281 232.3688,543.3281 Q232.9938,543.3281 233.5875,543.0625 Q234.1813,542.7813 234.8063,542.2031 L234.8063,544.9219 Z " fill="#000000"/><text fill="#2B547E" font-family="sans-serif" font-size="14" lengthAdjust="spacing" textLength="136.3428" x="247.4681" y="544.1279">ResponsableCentre</text><line style="stroke:#2B547E;stroke-width:0.5;" x1="210.5" x2="393.1484" y1="555.2813" y2="555.2813"/><line style="stroke:#2B547E;stroke-width:0.5;" x1="210.5" x2="393.1484" y1="563.2813" y2="563.2813"/><ellipse cx="220.5" cy="576.9297" fill="#84BE84" rx="3" ry="3" style="stroke:#038048;stroke-width:1;"/><text fill="#000000" font-family="sans-serif" font-size="14" lengthAdjust="spacing" textLength="158.6484" x="229.5" y="580.2764">consulterStatistiques()</text></g><!--class Administrateur--><g id="elem_Administrateur"><rect codeLine="43" fill="#E6F2FF" filter="url(#f1ts97yp6touyj)" height="129.4844" id="Administrateur" rx="10" ry="10" style="stroke:#2B547E;stroke-width:0.5;" width="146.5586" x="429.5" y="490.7813"/><ellipse cx="448.9798" cy="506.7813" fill="#ADD1B2" rx="11" ry="11" style="stroke:#181818;stroke-width:1;"/><path d="M451.9485,512.4219 Q451.3704,512.7188 450.7298,512.8594 Q450.0892,513.0156 449.386,513.0156 Q446.886,513.0156 445.5579,511.375 Q444.2454,509.7188 444.2454,506.5938 Q444.2454,503.4688 445.5579,501.8125 Q446.886,500.1563 449.386,500.1563 Q450.0892,500.1563 450.7298,500.3125 Q451.386,500.4688 451.9485,500.7656 L451.9485,503.4844 Q451.3235,502.9063 450.7298,502.6406 Q450.136,502.3594 449.511,502.3594 Q448.1673,502.3594 447.4798,503.4375 Q446.7923,504.5 446.7923,506.5938 Q446.7923,508.6875 447.4798,509.7656 Q448.1673,510.8281 449.511,510.8281 Q450.136,510.8281 450.7298,510.5625 Q451.3235,510.2813 451.9485,509.7031 L451.9485,512.4219 Z " fill="#000000"/><text fill="#2B547E" font-family="sans-serif" font-size="14" lengthAdjust="spacing" textLength="104.6035" x="463.9753" y="511.6279">Administrateur</text><line style="stroke:#2B547E;stroke-width:0.5;" x1="430.5" x2="575.0586" y1="522.7813" y2="522.7813"/><line style="stroke:#2B547E;stroke-width:0.5;" x1="430.5" x2="575.0586" y1="530.7813" y2="530.7813"/><ellipse cx="440.5" cy="544.4297" fill="#84BE84" rx="3" ry="3" style="stroke:#038048;stroke-width:1;"/><text fill="#000000" font-family="sans-serif" font-size="14" lengthAdjust="spacing" textLength="120.5586" x="449.5" y="547.7764">gererUtilisateur()</text><ellipse cx="440.5" cy="560.7266" fill="#84BE84" rx="3" ry="3" style="stroke:#038048;stroke-width:1;"/><text fill="#000000" font-family="sans-serif" font-size="14" lengthAdjust="spacing" textLength="111.4873" x="449.5" y="564.0732">gererDomaine()</text><ellipse cx="440.5" cy="577.0234" fill="#84BE84" rx="3" ry="3" style="stroke:#038048;stroke-width:1;"/><text fill="#000000" font-family="sans-serif" font-size="14" lengthAdjust="spacing" textLength="113.9824" x="449.5" y="580.3701">gererStructure()</text><ellipse cx="440.5" cy="593.3203" fill="#84BE84" rx="3" ry="3" style="stroke:#038048;stroke-width:1;"/><text fill="#000000" font-family="sans-serif" font-size="14" lengthAdjust="spacing" textLength="84.0205" x="449.5" y="596.667">gererProfil()</text><ellipse cx="440.5" cy="609.6172" fill="#84BE84" rx="3" ry="3" style="stroke:#038048;stroke-width:1;"/><text fill="#000000" font-family="sans-serif" font-size="14" lengthAdjust="spacing" textLength="80.0283" x="449.5" y="612.9639">gererTout()</text></g><!--class Formateur--><g id="elem_Formateur"><rect codeLine="50" fill="#E6F2FF" filter="url(#f1ts97yp6touyj)" height="178.375" id="Formateur" rx="10" ry="10" style="stroke:#2B547E;stroke-width:0.5;" width="157.6807" x="612" y="466.2813"/><ellipse cx="650.5613" cy="482.2813" fill="#ADD1B2" rx="11" ry="11" style="stroke:#181818;stroke-width:1;"/><path d="M653.53,487.9219 Q652.9519,488.2188 652.3113,488.3594 Q651.6707,488.5156 650.9675,488.5156 Q648.4675,488.5156 647.1394,486.875 Q645.8269,485.2188 645.8269,482.0938 Q645.8269,478.9688 647.1394,477.3125 Q648.4675,475.6563 650.9675,475.6563 Q651.6707,475.6563 652.3113,475.8125 Q652.9675,475.9688 653.53,476.2656 L653.53,478.9844 Q652.905,478.4063 652.3113,478.1406 Q651.7175,477.8594 651.0925,477.8594 Q649.7488,477.8594 649.0613,478.9375 Q648.3738,480 648.3738,482.0938 Q648.3738,484.1875 649.0613,485.2656 Q649.7488,486.3281 651.0925,486.3281 Q651.7175,486.3281 652.3113,486.0625 Q652.905,485.7813 653.53,485.2031 L653.53,487.9219 Z " fill="#000000"/><text fill="#2B547E" font-family="sans-serif" font-size="14" lengthAdjust="spacing" textLength="73.3223" x="669.7971" y="487.1279">Formateur</text><line style="stroke:#2B547E;stroke-width:0.5;" x1="613" x2="768.6807" y1="498.2813" y2="498.2813"/><ellipse cx="623" cy="511.9297" fill="transparent" rx="3" ry="3" style="stroke:#038048;stroke-width:1;"/><text fill="#000000" font-family="sans-serif" font-size="14" lengthAdjust="spacing" textLength="35.4785" x="632" y="515.2764">int id</text><ellipse cx="623" cy="528.2266" fill="transparent" rx="3" ry="3" style="stroke:#038048;stroke-width:1;"/><text fill="#000000" font-family="sans-serif" font-size="14" lengthAdjust="spacing" textLength="77.3076" x="632" y="531.5732">String nom</text><ellipse cx="623" cy="544.5234" fill="transparent" rx="3" ry="3" style="stroke:#038048;stroke-width:1;"/><text fill="#000000" font-family="sans-serif" font-size="14" lengthAdjust="spacing" textLength="100.5635" x="632" y="547.8701">String prenom</text><ellipse cx="623" cy="560.8203" fill="transparent" rx="3" ry="3" style="stroke:#038048;stroke-width:1;"/><text fill="#000000" font-family="sans-serif" font-size="14" lengthAdjust="spacing" textLength="84.8408" x="632" y="564.167">String email</text><ellipse cx="623" cy="577.1172" fill="transparent" rx="3" ry="3" style="stroke:#038048;stroke-width:1;"/><text fill="#000000" font-family="sans-serif" font-size="14" lengthAdjust="spacing" textLength="40.6943" x="632" y="580.4639">int tel</text><ellipse cx="623" cy="593.4141" fill="transparent" rx="3" ry="3" style="stroke:#038048;stroke-width:1;"/><text fill="#000000" font-family="sans-serif" font-size="14" lengthAdjust="spacing" textLength="77.5059" x="632" y="596.7607">String type</text><ellipse cx="623" cy="609.7109" fill="transparent" rx="3" ry="3" style="stroke:#038048;stroke-width:1;"/><text fill="#000000" font-family="sans-serif" font-size="14" lengthAdjust="spacing" textLength="110.8311" x="632" y="613.0576">int idEmployeur</text><line style="stroke:#2B547E;stroke-width:0.5;" x1="613" x2="768.6807" y1="620.3594" y2="620.3594"/><ellipse cx="623" cy="634.0078" fill="#84BE84" rx="3" ry="3" style="stroke:#038048;stroke-width:1;"/><text fill="#000000" font-family="sans-serif" font-size="14" lengthAdjust="spacing" textLength="131.6807" x="632" y="637.3545">animerFormation()</text></g><!--class Employeur--><g id="elem_Employeur"><rect codeLine="60" fill="#E6F2FF" filter="url(#f1ts97yp6touyj)" height="96.8906" id="Employeur" rx="10" ry="10" style="stroke:#2B547E;stroke-width:0.5;" width="178.6602" x="590.5" y="267.7813"/><ellipse cx="637.9038" cy="283.7813" fill="#ADD1B2" rx="11" ry="11" style="stroke:#181818;stroke-width:1;"/><path d="M640.8726,289.4219 Q640.2944,289.7188 639.6538,289.8594 Q639.0132,290.0156 638.3101,290.0156 Q635.8101,290.0156 634.4819,288.375 Q633.1694,286.7188 633.1694,283.5938 Q633.1694,280.4688 634.4819,278.8125 Q635.8101,277.1563 638.3101,277.1563 Q639.0132,277.1563 639.6538,277.3125 Q640.3101,277.4688 640.8726,277.7656 L640.8726,280.4844 Q640.2476,279.9063 639.6538,279.6406 Q639.0601,279.3594 638.4351,279.3594 Q637.0913,279.3594 636.4038,280.4375 Q635.7163,281.5 635.7163,283.5938 Q635.7163,285.6875 636.4038,286.7656 Q637.0913,287.8281 638.4351,287.8281 Q639.0601,287.8281 639.6538,287.5625 Q640.2476,287.2813 640.8726,286.7031 L640.8726,289.4219 Z " fill="#000000"/><text fill="#2B547E" font-family="sans-serif" font-size="14" lengthAdjust="spacing" textLength="75.3525" x="658.4038" y="288.6279">Employeur</text><line style="stroke:#2B547E;stroke-width:0.5;" x1="591.5" x2="768.1602" y1="299.7813" y2="299.7813"/><ellipse cx="601.5" cy="313.4297" fill="transparent" rx="3" ry="3" style="stroke:#038048;stroke-width:1;"/><text fill="#000000" font-family="sans-serif" font-size="14" lengthAdjust="spacing" textLength="35.4785" x="610.5" y="316.7764">int id</text><ellipse cx="601.5" cy="329.7266" fill="transparent" rx="3" ry="3" style="stroke:#038048;stroke-width:1;"/><text fill="#000000" font-family="sans-serif" font-size="14" lengthAdjust="spacing" textLength="152.6602" x="610.5" y="333.0732">String nomEmployeur</text><line style="stroke:#2B547E;stroke-width:0.5;" x1="591.5" x2="768.1602" y1="340.375" y2="340.375"/><ellipse cx="601.5" cy="354.0234" fill="#84BE84" rx="3" ry="3" style="stroke:#038048;stroke-width:1;"/><text fill="#000000" font-family="sans-serif" font-size="14" lengthAdjust="spacing" textLength="123.9014" x="610.5" y="357.3701">gererEmployeur()</text></g><!--class Profil--><g id="elem_Profil"><rect codeLine="73" fill="#E6F2FF" filter="url(#f1ts97yp6touyj)" height="96.8906" id="Profil" rx="10" ry="10" style="stroke:#2B547E;stroke-width:0.5;" width="130.5625" x="1215.5" y="506.7813"/><ellipse cx="1258.8909" cy="522.7813" fill="#ADD1B2" rx="11" ry="11" style="stroke:#181818;stroke-width:1;"/><path d="M1261.8596,528.4219 Q1261.2815,528.7188 1260.6409,528.8594 Q1260.0002,529.0156 1259.2971,529.0156 Q1256.7971,529.0156 1255.469,527.375 Q1254.1565,525.7188 1254.1565,522.5938 Q1254.1565,519.4688 1255.469,517.8125 Q1256.7971,516.1563 1259.2971,516.1563 Q1260.0002,516.1563 1260.6409,516.3125 Q1261.2971,516.4688 1261.8596,516.7656 L1261.8596,519.4844 Q1261.2346,518.9063 1260.6409,518.6406 Q1260.0471,518.3594 1259.4221,518.3594 Q1258.0784,518.3594 1257.3909,519.4375 Q1256.7034,520.5 1256.7034,522.5938 Q1256.7034,524.6875 1257.3909,525.7656 Q1258.0784,526.8281 1259.4221,526.8281 Q1260.0471,526.8281 1260.6409,526.5625 Q1261.2346,526.2813 1261.8596,525.7031 L1261.8596,528.4219 Z " fill="#000000"/><text fill="#2B547E" font-family="sans-serif" font-size="14" lengthAdjust="spacing" textLength="35.4717" x="1279.2" y="527.6279">Profil</text><line style="stroke:#2B547E;stroke-width:0.5;" x1="1216.5" x2="1345.0625" y1="538.7813" y2="538.7813"/><ellipse cx="1226.5" cy="552.4297" fill="transparent" rx="3" ry="3" style="stroke:#038048;stroke-width:1;"/><text fill="#000000" font-family="sans-serif" font-size="14" lengthAdjust="spacing" textLength="35.4785" x="1235.5" y="555.7764">int id</text><ellipse cx="1226.5" cy="568.7266" fill="transparent" rx="3" ry="3" style="stroke:#038048;stroke-width:1;"/><text fill="#000000" font-family="sans-serif" font-size="14" lengthAdjust="spacing" textLength="87.9033" x="1235.5" y="572.0732">String libelle</text><line style="stroke:#2B547E;stroke-width:0.5;" x1="1216.5" x2="1345.0625" y1="579.375" y2="579.375"/><ellipse cx="1226.5" cy="593.0234" fill="#84BE84" rx="3" ry="3" style="stroke:#038048;stroke-width:1;"/><text fill="#000000" font-family="sans-serif" font-size="14" lengthAdjust="spacing" textLength="104.5625" x="1235.5" y="596.3701">modifierProfil()</text></g><!--class Structure--><g id="elem_Structure"><rect codeLine="79" fill="#E6F2FF" filter="url(#f1ts97yp6touyj)" height="96.8906" id="Structure" rx="10" ry="10" style="stroke:#2B547E;stroke-width:0.5;" width="160.5244" x="1019.5" y="506.7813"/><ellipse cx="1062.8909" cy="522.7813" fill="#ADD1B2" rx="11" ry="11" style="stroke:#181818;stroke-width:1;"/><path d="M1065.8596,528.4219 Q1065.2815,528.7188 1064.6409,528.8594 Q1064.0002,529.0156 1063.2971,529.0156 Q1060.7971,529.0156 1059.469,527.375 Q1058.1565,525.7188 1058.1565,522.5938 Q1058.1565,519.4688 1059.469,517.8125 Q1060.7971,516.1563 1063.2971,516.1563 Q1064.0002,516.1563 1064.6409,516.3125 Q1065.2971,516.4688 1065.8596,516.7656 L1065.8596,519.4844 Q1065.2346,518.9063 1064.6409,518.6406 Q1064.0471,518.3594 1063.4221,518.3594 Q1062.0784,518.3594 1061.3909,519.4375 Q1060.7034,520.5 1060.7034,522.5938 Q1060.7034,524.6875 1061.3909,525.7656 Q1062.0784,526.8281 1063.4221,526.8281 Q1064.0471,526.8281 1064.6409,526.5625 Q1065.2346,526.2813 1065.8596,525.7031 L1065.8596,528.4219 Z " fill="#000000"/><text fill="#2B547E" font-family="sans-serif" font-size="14" lengthAdjust="spacing" textLength="65.4336" x="1083.2" y="527.6279">Structure</text><line style="stroke:#2B547E;stroke-width:0.5;" x1="1020.5" x2="1179.0244" y1="538.7813" y2="538.7813"/><ellipse cx="1030.5" cy="552.4297" fill="transparent" rx="3" ry="3" style="stroke:#038048;stroke-width:1;"/><text fill="#000000" font-family="sans-serif" font-size="14" lengthAdjust="spacing" textLength="35.4785" x="1039.5" y="555.7764">int id</text><ellipse cx="1030.5" cy="568.7266" fill="transparent" rx="3" ry="3" style="stroke:#038048;stroke-width:1;"/><text fill="#000000" font-family="sans-serif" font-size="14" lengthAdjust="spacing" textLength="87.9033" x="1039.5" y="572.0732">String libelle</text><line style="stroke:#2B547E;stroke-width:0.5;" x1="1020.5" x2="1179.0244" y1="579.375" y2="579.375"/><ellipse cx="1030.5" cy="593.0234" fill="#84BE84" rx="3" ry="3" style="stroke:#038048;stroke-width:1;"/><text fill="#000000" font-family="sans-serif" font-size="14" lengthAdjust="spacing" textLength="134.5244" x="1039.5" y="596.3701">modifierStructure()</text></g><!--class Participant--><g id="elem_Participant"><rect codeLine="85" fill="#E6F2FF" filter="url(#f1ts97yp6touyj)" height="194.6719" id="Participant" rx="10" ry="10" style="stroke:#2B547E;stroke-width:0.5;" width="167.6338" x="1027" y="723.2813"/><ellipse cx="1069.0281" cy="739.2813" fill="#ADD1B2" rx="11" ry="11" style="stroke:#181818;stroke-width:1;"/><path d="M1071.9969,744.9219 Q1071.4188,745.2188 1070.7781,745.3594 Q1070.1375,745.5156 1069.4344,745.5156 Q1066.9344,745.5156 1065.6063,743.875 Q1064.2938,742.2188 1064.2938,739.0938 Q1064.2938,735.9688 1065.6063,734.3125 Q1066.9344,732.6563 1069.4344,732.6563 Q1070.1375,732.6563 1070.7781,732.8125 Q1071.4344,732.9688 1071.9969,733.2656 L1071.9969,735.9844 Q1071.3719,735.4063 1070.7781,735.1406 Q1070.1844,734.8594 1069.5594,734.8594 Q1068.2156,734.8594 1067.5281,735.9375 Q1066.8406,737 1066.8406,739.0938 Q1066.8406,741.1875 1067.5281,742.2656 Q1068.2156,743.3281 1069.5594,743.3281 Q1070.1844,743.3281 1070.7781,743.0625 Q1071.3719,742.7813 1071.9969,742.2031 L1071.9969,744.9219 Z " fill="#000000"/><text fill="#2B547E" font-family="sans-serif" font-size="14" lengthAdjust="spacing" textLength="75.5713" x="1089.0344" y="744.1279">Participant</text><line style="stroke:#2B547E;stroke-width:0.5;" x1="1028" x2="1193.6338" y1="755.2813" y2="755.2813"/><ellipse cx="1038" cy="768.9297" fill="transparent" rx="3" ry="3" style="stroke:#038048;stroke-width:1;"/><text fill="#000000" font-family="sans-serif" font-size="14" lengthAdjust="spacing" textLength="35.4785" x="1047" y="772.2764">int id</text><ellipse cx="1038" cy="785.2266" fill="transparent" rx="3" ry="3" style="stroke:#038048;stroke-width:1;"/><text fill="#000000" font-family="sans-serif" font-size="14" lengthAdjust="spacing" textLength="77.3076" x="1047" y="788.5732">String nom</text><ellipse cx="1038" cy="801.5234" fill="transparent" rx="3" ry="3" style="stroke:#038048;stroke-width:1;"/><text fill="#000000" font-family="sans-serif" font-size="14" lengthAdjust="spacing" textLength="100.5635" x="1047" y="804.8701">String prenom</text><ellipse cx="1038" cy="817.8203" fill="transparent" rx="3" ry="3" style="stroke:#038048;stroke-width:1;"/><text fill="#000000" font-family="sans-serif" font-size="14" lengthAdjust="spacing" textLength="100.9121" x="1047" y="821.167">int idStructure</text><ellipse cx="1038" cy="834.1172" fill="transparent" rx="3" ry="3" style="stroke:#038048;stroke-width:1;"/><text fill="#000000" font-family="sans-serif" font-size="14" lengthAdjust="spacing" textLength="70.9502" x="1047" y="837.4639">int idProfil</text><ellipse cx="1038" cy="850.4141" fill="transparent" rx="3" ry="3" style="stroke:#038048;stroke-width:1;"/><text fill="#000000" font-family="sans-serif" font-size="14" lengthAdjust="spacing" textLength="84.8408" x="1047" y="853.7607">String email</text><ellipse cx="1038" cy="866.7109" fill="transparent" rx="3" ry="3" style="stroke:#038048;stroke-width:1;"/><text fill="#000000" font-family="sans-serif" font-size="14" lengthAdjust="spacing" textLength="40.6943" x="1047" y="870.0576">int tel</text><line style="stroke:#2B547E;stroke-width:0.5;" x1="1028" x2="1193.6338" y1="877.3594" y2="877.3594"/><ellipse cx="1038" cy="891.0078" fill="#84BE84" rx="3" ry="3" style="stroke:#038048;stroke-width:1;"/><text fill="#000000" font-family="sans-serif" font-size="14" lengthAdjust="spacing" textLength="141.6338" x="1047" y="894.3545">sInscrireFormation()</text><ellipse cx="1038" cy="907.3047" fill="#84BE84" rx="3" ry="3" style="stroke:#038048;stroke-width:1;"/><text fill="#000000" font-family="sans-serif" font-size="14" lengthAdjust="spacing" textLength="137.7236" x="1047" y="910.6514">annulerInscription()</text></g><!--class Formation--><g id="elem_Formation"><rect codeLine="101" fill="#E6F2FF" filter="url(#f1ts97yp6touyj)" height="194.6719" id="Formation" rx="10" ry="10" style="stroke:#2B547E;stroke-width:0.5;" width="166.499" x="826" y="723.2813"/><ellipse cx="869.3909" cy="739.2813" fill="#ADD1B2" rx="11" ry="11" style="stroke:#181818;stroke-width:1;"/><path d="M872.3596,744.9219 Q871.7815,745.2188 871.1409,745.3594 Q870.5002,745.5156 869.7971,745.5156 Q867.2971,745.5156 865.969,743.875 Q864.6565,742.2188 864.6565,739.0938 Q864.6565,735.9688 865.969,734.3125 Q867.2971,732.6563 869.7971,732.6563 Q870.5002,732.6563 871.1409,732.8125 Q871.7971,732.9688 872.3596,733.2656 L872.3596,735.9844 Q871.7346,735.4063 871.1409,735.1406 Q870.5471,734.8594 869.9221,734.8594 Q868.5784,734.8594 867.8909,735.9375 Q867.2034,737 867.2034,739.0938 Q867.2034,741.1875 867.8909,742.2656 Q868.5784,743.3281 869.9221,743.3281 Q870.5471,743.3281 871.1409,743.0625 Q871.7346,742.7813 872.3596,742.2031 L872.3596,744.9219 Z " fill="#000000"/><text fill="#2B547E" font-family="sans-serif" font-size="14" lengthAdjust="spacing" textLength="71.4082" x="889.7" y="744.1279">Formation</text><line style="stroke:#2B547E;stroke-width:0.5;" x1="827" x2="991.499" y1="755.2813" y2="755.2813"/><ellipse cx="837" cy="768.9297" fill="transparent" rx="3" ry="3" style="stroke:#038048;stroke-width:1;"/><text fill="#000000" font-family="sans-serif" font-size="14" lengthAdjust="spacing" textLength="47.4414" x="846" y="772.2764">long id</text><ellipse cx="837" cy="785.2266" fill="transparent" rx="3" ry="3" style="stroke:#038048;stroke-width:1;"/><text fill="#000000" font-family="sans-serif" font-size="14" lengthAdjust="spacing" textLength="75.4688" x="846" y="788.5732">String titre</text><ellipse cx="837" cy="801.5234" fill="transparent" rx="3" ry="3" style="stroke:#038048;stroke-width:1;"/><text fill="#000000" font-family="sans-serif" font-size="14" lengthAdjust="spacing" textLength="66.2539" x="846" y="804.8701">int annee</text><ellipse cx="837" cy="817.8203" fill="transparent" rx="3" ry="3" style="stroke:#038048;stroke-width:1;"/><text fill="#000000" font-family="sans-serif" font-size="14" lengthAdjust="spacing" textLength="63.4443" x="846" y="821.167">int duree</text><ellipse cx="837" cy="834.1172" fill="transparent" rx="3" ry="3" style="stroke:#038048;stroke-width:1;"/><text fill="#000000" font-family="sans-serif" font-size="14" lengthAdjust="spacing" textLength="98.417" x="846" y="837.4639">int idDomaine</text><ellipse cx="837" cy="850.4141" fill="transparent" rx="3" ry="3" style="stroke:#038048;stroke-width:1;"/><text fill="#000000" font-family="sans-serif" font-size="14" lengthAdjust="spacing" textLength="101.8008" x="846" y="853.7607">double budget</text><line style="stroke:#2B547E;stroke-width:0.5;" x1="827" x2="991.499" y1="861.0625" y2="861.0625"/><ellipse cx="837" cy="874.7109" fill="#84BE84" rx="3" ry="3" style="stroke:#038048;stroke-width:1;"/><text fill="#000000" font-family="sans-serif" font-size="14" lengthAdjust="spacing" textLength="118.7676" x="846" y="878.0576">creerFormation()</text><ellipse cx="837" cy="891.0078" fill="#84BE84" rx="3" ry="3" style="stroke:#038048;stroke-width:1;"/><text fill="#000000" font-family="sans-serif" font-size="14" lengthAdjust="spacing" textLength="140.499" x="846" y="894.3545">modifierFormation()</text><ellipse cx="837" cy="907.3047" fill="#84BE84" rx="3" ry="3" style="stroke:#038048;stroke-width:1;"/><text fill="#000000" font-family="sans-serif" font-size="14" lengthAdjust="spacing" textLength="136.2607" x="846" y="910.6514">ajouterParticipant()</text></g><!--class Domaine--><g id="elem_Domaine"><rect codeLine="113" fill="#E6F2FF" filter="url(#f1ts97yp6touyj)" height="96.8906" id="Domaine" rx="10" ry="10" style="stroke:#2B547E;stroke-width:0.5;" width="158.0293" x="826" y="506.7813"/><ellipse cx="869.3909" cy="522.7813" fill="#ADD1B2" rx="11" ry="11" style="stroke:#181818;stroke-width:1;"/><path d="M872.3596,528.4219 Q871.7815,528.7188 871.1409,528.8594 Q870.5002,529.0156 869.7971,529.0156 Q867.2971,529.0156 865.969,527.375 Q864.6565,525.7188 864.6565,522.5938 Q864.6565,519.4688 865.969,517.8125 Q867.2971,516.1563 869.7971,516.1563 Q870.5002,516.1563 871.1409,516.3125 Q871.7971,516.4688 872.3596,516.7656 L872.3596,519.4844 Q871.7346,518.9063 871.1409,518.6406 Q870.5471,518.3594 869.9221,518.3594 Q868.5784,518.3594 867.8909,519.4375 Q867.2034,520.5 867.2034,522.5938 Q867.2034,524.6875 867.8909,525.7656 Q868.5784,526.8281 869.9221,526.8281 Q870.5471,526.8281 871.1409,526.5625 Q871.7346,526.2813 872.3596,525.7031 L872.3596,528.4219 Z " fill="#000000"/><text fill="#2B547E" font-family="sans-serif" font-size="14" lengthAdjust="spacing" textLength="62.9385" x="889.7" y="527.6279">Domaine</text><line style="stroke:#2B547E;stroke-width:0.5;" x1="827" x2="983.0293" y1="538.7813" y2="538.7813"/><ellipse cx="837" cy="552.4297" fill="transparent" rx="3" ry="3" style="stroke:#038048;stroke-width:1;"/><text fill="#000000" font-family="sans-serif" font-size="14" lengthAdjust="spacing" textLength="35.4785" x="846" y="555.7764">int id</text><ellipse cx="837" cy="568.7266" fill="transparent" rx="3" ry="3" style="stroke:#038048;stroke-width:1;"/><text fill="#000000" font-family="sans-serif" font-size="14" lengthAdjust="spacing" textLength="87.9033" x="846" y="572.0732">String libelle</text><line style="stroke:#2B547E;stroke-width:0.5;" x1="827" x2="983.0293" y1="579.375" y2="579.375"/><ellipse cx="837" cy="593.0234" fill="#84BE84" rx="3" ry="3" style="stroke:#038048;stroke-width:1;"/><text fill="#000000" font-family="sans-serif" font-size="14" lengthAdjust="spacing" textLength="132.0293" x="846" y="596.3701">modifierDomaine()</text></g><!--class Participation--><g id="elem_Participation"><rect codeLine="122" fill="#E6F2FF" filter="url(#f1ts97yp6touyj)" height="145.7813" id="Participation" rx="10" ry="10" style="stroke:#2B547E;stroke-width:0.5;" width="178.4072" x="1053" y="1034.2813"/><ellipse cx="1094.2714" cy="1050.2813" fill="#ADD1B2" rx="11" ry="11" style="stroke:#181818;stroke-width:1;"/><path d="M1097.2401,1055.9219 Q1096.662,1056.2188 1096.0214,1056.3594 Q1095.3808,1056.5156 1094.6776,1056.5156 Q1092.1776,1056.5156 1090.8495,1054.875 Q1089.537,1053.2188 1089.537,1050.0938 Q1089.537,1046.9688 1090.8495,1045.3125 Q1092.1776,1043.6563 1094.6776,1043.6563 Q1095.3808,1043.6563 1096.0214,1043.8125 Q1096.6776,1043.9688 1097.2401,1044.2656 L1097.2401,1046.9844 Q1096.6151,1046.4063 1096.0214,1046.1406 Q1095.4276,1045.8594 1094.8026,1045.8594 Q1093.4589,1045.8594 1092.7714,1046.9375 Q1092.0839,1048 1092.0839,1050.0938 Q1092.0839,1052.1875 1092.7714,1053.2656 Q1093.4589,1054.3281 1094.8026,1054.3281 Q1095.4276,1054.3281 1096.0214,1054.0625 Q1096.6151,1053.7813 1097.2401,1053.2031 L1097.2401,1055.9219 Z " fill="#000000"/><text fill="#2B547E" font-family="sans-serif" font-size="14" lengthAdjust="spacing" textLength="88.0264" x="1114.1095" y="1055.1279">Participation</text><line style="stroke:#2B547E;stroke-width:0.5;" x1="1054" x2="1230.4072" y1="1066.2813" y2="1066.2813"/><ellipse cx="1064" cy="1079.9297" fill="transparent" rx="3" ry="3" style="stroke:#038048;stroke-width:1;"/><text fill="#000000" font-family="sans-serif" font-size="14" lengthAdjust="spacing" textLength="111.0498" x="1073" y="1083.2764">int idParticipant</text><ellipse cx="1064" cy="1096.2266" fill="transparent" rx="3" ry="3" style="stroke:#038048;stroke-width:1;"/><text fill="#000000" font-family="sans-serif" font-size="14" lengthAdjust="spacing" textLength="118.8496" x="1073" y="1099.5732">long idFormation</text><ellipse cx="1064" cy="1112.5234" fill="transparent" rx="3" ry="3" style="stroke:#038048;stroke-width:1;"/><text fill="#000000" font-family="sans-serif" font-size="14" lengthAdjust="spacing" textLength="142.8232" x="1073" y="1115.8701">Date dateInscription</text><ellipse cx="1064" cy="1128.8203" fill="transparent" rx="3" ry="3" style="stroke:#038048;stroke-width:1;"/><text fill="#000000" font-family="sans-serif" font-size="14" lengthAdjust="spacing" textLength="87.4453" x="1073" y="1132.167">String statut</text><line style="stroke:#2B547E;stroke-width:0.5;" x1="1054" x2="1230.4072" y1="1139.4688" y2="1139.4688"/><ellipse cx="1064" cy="1153.1172" fill="#84BE84" rx="3" ry="3" style="stroke:#038048;stroke-width:1;"/><text fill="#000000" font-family="sans-serif" font-size="14" lengthAdjust="spacing" textLength="146.8496" x="1073" y="1156.4639">validerParticipation()</text><ellipse cx="1064" cy="1169.4141" fill="#84BE84" rx="3" ry="3" style="stroke:#038048;stroke-width:1;"/><text fill="#000000" font-family="sans-serif" font-size="14" lengthAdjust="spacing" textLength="152.4072" x="1073" y="1172.7607">annulerParticipation()</text></g><!--reverse link Utilisateur to SimpleUtilisateur--><g id="link_Utilisateur_SimpleUtilisateur"><path codeLine="65" d="M301.3421,378.0674 C263.6621,405.4674 231.65,430.0113 192,463.7813 C176.3,477.1413 159.89,492.4412 145.25,506.6113 " fill="transparent" id="Utilisateur-backto-SimpleUtilisateur" style="stroke:#2B547E;stroke-width:1;"/><polygon fill="transparent" points="315.9,367.4813,297.8134,373.2148,304.8708,382.9201,315.9,367.4813" style="stroke:#2B547E;stroke-width:1;"/><text fill="#000000" font-family="sans-serif" font-size="13" lengthAdjust="spacing" textLength="38.2891" x="244" y="432.3481">h&#233;rite</text></g><!--reverse link Utilisateur to ResponsableCentre--><g id="link_Utilisateur_ResponsableCentre"><path codeLine="66" d="M355.0736,406.2946 C339.0536,450.9646 325.36,489.1413 313.22,523.0013 " fill="transparent" id="Utilisateur-backto-ResponsableCentre" style="stroke:#2B547E;stroke-width:1;"/><polygon fill="transparent" points="361.15,389.3513,349.4258,404.2691,360.7214,408.3201,361.15,389.3513" style="stroke:#2B547E;stroke-width:1;"/><text fill="#000000" font-family="sans-serif" font-size="13" lengthAdjust="spacing" textLength="38.2891" x="350" y="432.3481">h&#233;rite</text></g><!--reverse link Utilisateur to Administrateur--><g id="link_Utilisateur_Administrateur"><path codeLine="67" d="M430.1893,405.5205 C445.9793,437.8005 456.54,459.3613 471.83,490.5912 " fill="transparent" id="Utilisateur-backto-Administrateur" style="stroke:#2B547E;stroke-width:1;"/><polygon fill="transparent" points="422.28,389.3513,424.7996,408.1569,435.579,402.884,422.28,389.3513" style="stroke:#2B547E;stroke-width:1;"/><text fill="#000000" font-family="sans-serif" font-size="13" lengthAdjust="spacing" textLength="38.2891" x="446" y="432.3481">h&#233;rite</text></g><!--link Role to Utilisateur--><g id="link_Role_Utilisateur"><path codeLine="68" d="M387,166.3012 C387,188.5413 387,217.0013 387,243.0712 " fill="transparent" id="Role-Utilisateur" style="stroke:#2B547E;stroke-width:1;"/><text fill="#000000" font-family="sans-serif" font-size="13" lengthAdjust="spacing" textLength="87.7056" x="388" y="209.3481">est attribu&#233; &#224;</text><text fill="#000000" font-family="sans-serif" font-size="13" lengthAdjust="spacing" textLength="8.271" x="378.3596" y="186.0643">1</text><text fill="#000000" font-family="sans-serif" font-size="13" lengthAdjust="spacing" textLength="23.0356" x="362.8499" y="232.2106">0..*</text></g><!--link Structure to Participant--><g id="link_Structure_Participant"><path codeLine="133" d="M1101.99,604.0013 C1103.38,637.1413 1105.27,682.4713 1106.96,723.0313 " fill="transparent" id="Structure-Participant" style="stroke:#2B547E;stroke-width:1;"/><text fill="#000000" font-family="sans-serif" font-size="13" lengthAdjust="spacing" textLength="59.3823" x="1106" y="689.3481">regroupe</text><text fill="#000000" font-family="sans-serif" font-size="13" lengthAdjust="spacing" textLength="8.271" x="1093.7701" y="623.639">1</text><text fill="#000000" font-family="sans-serif" font-size="13" lengthAdjust="spacing" textLength="23.0356" x="1082.7856" y="712.0576">0..*</text></g><!--link Profil to Participant--><g id="link_Profil_Participant"><path codeLine="134" d="M1250.21,604.0013 C1228.83,637.1413 1199.59,682.4713 1173.42,723.0313 " fill="transparent" id="Profil-Participant" style="stroke:#2B547E;stroke-width:1;"/><text fill="#000000" font-family="sans-serif" font-size="13" lengthAdjust="spacing" textLength="87.7056" x="1202" y="689.3481">est attribu&#233; &#224;</text><text fill="#000000" font-family="sans-serif" font-size="13" lengthAdjust="spacing" textLength="8.271" x="1237.5827" y="623.639">1</text><text fill="#000000" font-family="sans-serif" font-size="13" lengthAdjust="spacing" textLength="23.0356" x="1154.3339" y="712.0576">0..*</text></g><!--link Employeur to Formateur--><g id="link_Employeur_Formateur"><path codeLine="135" d="M682.21,364.9612 C683.56,393.8813 685.31,431.7012 686.9,465.9313 " fill="transparent" id="Employeur-Formateur" style="stroke:#2B547E;stroke-width:1;"/><text fill="#000000" font-family="sans-serif" font-size="13" lengthAdjust="spacing" textLength="52.0889" x="686" y="432.3481">emploie</text><text fill="#000000" font-family="sans-serif" font-size="13" lengthAdjust="spacing" textLength="8.271" x="674.0105" y="384.5936">1</text><text fill="#000000" font-family="sans-serif" font-size="13" lengthAdjust="spacing" textLength="23.0356" x="662.671" y="455.2708">0..*</text></g><!--link Domaine to Formation--><g id="link_Domaine_Formation"><path codeLine="136" d="M905.72,604.0013 C906.23,637.1413 906.92,682.4713 907.53,723.0313 " fill="transparent" id="Domaine-Formation" style="stroke:#2B547E;stroke-width:1;"/><text fill="#000000" font-family="sans-serif" font-size="13" lengthAdjust="spacing" textLength="53.3838" x="908" y="689.3481">contient</text><text fill="#000000" font-family="sans-serif" font-size="13" lengthAdjust="spacing" textLength="8.271" x="897.2955" y="623.639">1</text><text fill="#000000" font-family="sans-serif" font-size="13" lengthAdjust="spacing" textLength="23.0356" x="883.5192" y="712.0576">0..*</text></g><!--link Participant to Participation--><g id="link_Participant_Participation"><path codeLine="137" d="M1067.09,918.4513 C1059.06,934.9113 1050.52,951.7113 1042,967.2813 C1039.99,970.9613 1038.44,971.3413 1037,975.2813 C1035.7544,978.6794 1034.5901,982.1552 1033.5019,985.6864 C1032.9578,987.452 1032.4328,989.2314 1031.926,991.0218 " fill="transparent" id="Participant-Participation" style="stroke:#2B547E;stroke-width:1;"/><text fill="#000000" font-family="sans-serif" font-size="13" lengthAdjust="spacing" textLength="81.4785" x="1051" y="963.3481">a particip&#233; &#224;</text><text fill="#000000" font-family="sans-serif" font-size="13" lengthAdjust="spacing" textLength="8.271" x="1055.7437" y="937.9291">1</text><text fill="#000000" font-family="sans-serif" font-size="13" lengthAdjust="spacing" textLength="23.0356" x="995" y="1103.2881">0..*</text></g><!--link Formation to Participation--><g id="link_Formation_Participation"><path codeLine="138" d="M929.5,918.6613 C933.96,935.1012 939.13,951.8313 945,967.2813 C957.195,999.3863 975.07,1033.5613 990.0787,1059.9913 C997.5831,1073.2063 1004.3709,1084.485 1009.3739,1092.6006 C1009.5302,1092.8542 1009.6848,1093.1048 1009.8377,1093.3522 " fill="transparent" id="Formation-Participation" style="stroke:#2B547E;stroke-width:1;"/><text fill="#000000" font-family="sans-serif" font-size="13" lengthAdjust="spacing" textLength="87.623" x="946" y="963.3481">est suivie par</text><text fill="#000000" font-family="sans-serif" font-size="13" lengthAdjust="spacing" textLength="8.271" x="922.6521" y="938.1539">1</text><text fill="#000000" font-family="sans-serif" font-size="13" lengthAdjust="spacing" textLength="23.0356" x="994.96" y="1118.2981">0..*</text></g><!--link Formateur to Formation--><g id="link_Formateur_Formation"><path codeLine="139" d="M763.89,644.3913 C784.81,669.6713 807.73,697.3713 829.05,723.1413 " fill="transparent" id="Formateur-Formation" style="stroke:#2B547E;stroke-width:1;"/><text fill="#000000" font-family="sans-serif" font-size="13" lengthAdjust="spacing" textLength="40.479" x="801" y="689.3481">anime</text><text fill="#000000" font-family="sans-serif" font-size="13" lengthAdjust="spacing" textLength="8.271" x="761.8356" y="664.7502">1</text><text fill="#000000" font-family="sans-serif" font-size="13" lengthAdjust="spacing" textLength="23.0356" x="799.0306" y="712.176">0..*</text></g><!--reverse link Utilisateur to Formateur--><g id="link_Utilisateur_Formateur"><path codeLine="140" d="M473.0881,374.2878 C513.8381,401.9778 550.47,428.3412 594,463.7813 C599.89,468.5812 605.88,473.6413 611.84,478.8312 " fill="transparent" id="Utilisateur-backto-Formateur" style="stroke:#2B547E;stroke-width:1;"/><polygon fill="transparent" points="458.2,364.1713,469.7159,379.2505,476.4603,369.3251,458.2,364.1713" style="stroke:#2B547E;stroke-width:1;"/><text fill="#000000" font-family="sans-serif" font-size="13" lengthAdjust="spacing" textLength="38.2891" x="556" y="432.3481">h&#233;rite</text></g><!--SRC=[fLRBRjj65DtpAouKeEu3JXmdJWD3DI1BP230iGEI1jhbIBnHfY5dr9bXZBJr1_WliZMwxQwxyCTwHwJ8uKDMcbA021xUnxdFuG7yD7115FzouKVmghYxBEx2oVNFWsAUVi_5cYcMmO8jtw-Kp4KobQbKy2XuIR_0aLYcJ6lummEwphlI_elWcAJjkubIygQ2ZyzFdl_ebofI9QZwU2256KOZ_Zl2q-VUhKD2lsE9lE5Y1KRbwBoeo2Y12ewFFEzWE2_nF0xzuLmORbA4yU9ihCdnwV7HsOop5TdE41A4gGqVDHp2AzI6Is71GAgCsOVn4wjqDdwoEDlf-pgUNyoZIUnVX-3745xP2WrIMLDwsGfXT6ruoZKpc2iDtq1O_9sY7i6ZsGj_4hoiYi4MsYYsD5M5GabXb6y0Vk3204-sJv5HDdT2PXlarjlSIZt7rnxrLAwuw61hCd539MuhMYxU5j8ubKBWqg3wzhi6dE6o0xTeHJnRfpX8ReKALLa2mXkR3awbwU1lc39yoTTCc25t8Ugr59ejKfoYCCf99T7KUKeq8qE6gGT-or4FsPWa6HVS5cM0hnD9XzbCPemBxA2KttnfSjN5toZvbgSTC9Pv4nKqZEeaVM5ZE7LLs0UHYAQk8ODfHyHyN6FRbKzrb1-9mnPcWcVzEbdU9UbQOJ_fdkrDDcgqbHAtbSP_7XuETDWfVFxhNN6lkC7F_mmhzVla2vGwZT7NsCpkwEa8I7XqzFZnzoDeywBL0ynGt8kyk8VY4ot7NUl6lwHbLzn5yBguY-T-k6VL-88MO76lIVpUS5Hsovm49_wpAljbJSgksxSV-0BJj2v_9XF-bdSwjZtZsnx_EiFT4MdPTkRzVpP_gLGxQyDbSFzXJlHSwANY2WSM5HCYJr6L4klMSDYR_ND3h2qq0QQItFSYf0gtUPCZR0491TQ9h5fBMp2HEVKyBF9aXQPUZQGrj76t5HgAyLVQLNlNSUNyw_gYlL1l7vYLU79-uSFiO195LzFv99vVNUuPbvgtZOfc9PW6pwP1UrPSaMu4JjoTcjMvsk8p6dv8wC_fXqu2D9r8UMte0qjvugHsiBc6tZwKej2_sEHbnoTBCyBjzUMEtoaej5-DT39KU-GXsTwgQyw3jbfpk96IbU7eRVjcID9MunJeDASrHzbtlUxWKwam-iefaP9GO-vXFHk9pla7ZjQ0r_3TpMvpDdgz0yGDrJax_WK0]--></g></svg>