<svg xmlns="http://www.w3.org/2000/svg" xmlns:xlink="http://www.w3.org/1999/xlink" contentStyleType="text/css" data-diagram-type="SEQUENCE" height="1052px" preserveAspectRatio="none" style="width:532px;height:1052px;background:#F8F8FF;" version="1.1" viewBox="0 0 532 1052" width="532px" zoomAndPan="magnify"><title>&lt;b&gt;&lt;size:18&gt;Gestion par le simple utilisateur&lt;/size&gt;&lt;/b&gt;</title><defs/><g><rect fill="#F8F8FF" height="1052" style="stroke:transparent;stroke-width:1;" width="532" x="0" y="0"/><text fill="#000000" font-family="sans-serif" font-size="18" font-weight="bold" lengthAdjust="spacing" textLength="327.1992" x="103.686" y="31.708">Gestion par le simple utilisateur</text><rect fill="transparent" height="90.2031" style="stroke:#000000;stroke-width:1.5;" width="381.3032" x="10" y="211.5156"/><rect fill="transparent" height="132.3359" style="stroke:#000000;stroke-width:1.5;" width="510.1694" x="10" y="386.9844"/><rect fill="transparent" height="132.3359" style="stroke:#000000;stroke-width:1.5;" width="508.3604" x="10" y="604.5859"/><rect fill="transparent" height="132.3359" style="stroke:#000000;stroke-width:1.5;" width="515.5713" x="10" y="822.1875"/><g><title>Simple Utilisateur</title><rect fill="transparent" height="848.2734" width="8" x="81.1318" y="123.25"/><line style="stroke:#2980B9;stroke-width:0.5;stroke-dasharray:5.0,5.0;" x1="85" x2="85" y1="123.25" y2="971.5234"/></g><g><title>Syst&#232;me</title><rect fill="transparent" height="848.2734" width="8" x="339.8936" y="123.25"/><line style="stroke:#2980B9;stroke-width:0.5;stroke-dasharray:5.0,5.0;" x1="343.4839" x2="343.4839" y1="123.25" y2="971.5234"/></g><text fill="#000000" font-family="sans-serif" font-size="14" lengthAdjust="spacing" textLength="124.2637" x="20" y="119.9482">Simple Utilisateur</text><ellipse cx="85.1318" cy="55.4531" fill="#D6EAF8" rx="8" ry="8" style="stroke:#2980B9;stroke-width:0.5;"/><path d="M85.1318,63.4531 L85.1318,90.4531 M72.1318,71.4531 L98.1318,71.4531 M85.1318,90.4531 L72.1318,105.4531 M85.1318,90.4531 L98.1318,105.4531 " fill="transparent" style="stroke:#2980B9;stroke-width:0.5;"/><text fill="#000000" font-family="sans-serif" font-size="14" lengthAdjust="spacing" textLength="124.2637" x="20" y="983.5186">Simple Utilisateur</text><ellipse cx="85.1318" cy="995.3203" fill="#D6EAF8" rx="8" ry="8" style="stroke:#2980B9;stroke-width:0.5;"/><path d="M85.1318,1003.3203 L85.1318,1030.3203 M72.1318,1011.3203 L98.1318,1011.3203 M85.1318,1030.3203 L72.1318,1045.3203 M85.1318,1030.3203 L98.1318,1045.3203 " fill="transparent" style="stroke:#2980B9;stroke-width:0.5;"/><rect fill="#EBF5FB" height="30.2969" rx="2.5" ry="2.5" style="stroke:#2980B9;stroke-width:0.5;" width="74.8193" x="306.4839" y="91.9531"/><text fill="#000000" font-family="sans-serif" font-size="14" lengthAdjust="spacing" textLength="60.8193" x="313.4839" y="111.9482">Syst&#232;me</text><rect fill="#EBF5FB" height="30.2969" rx="2.5" ry="2.5" style="stroke:#2980B9;stroke-width:0.5;" width="74.8193" x="306.4839" y="970.5234"/><text fill="#000000" font-family="sans-serif" font-size="14" lengthAdjust="spacing" textLength="60.8193" x="313.4839" y="990.5186">Syst&#232;me</text><polygon fill="#2B547E" points="331.8936,150.3828,341.8936,154.3828,331.8936,158.3828,335.8936,154.3828" style="stroke:#2B547E;stroke-width:1;"/><line style="stroke:#2B547E;stroke-width:1;" x1="85.1318" x2="337.8936" y1="154.3828" y2="154.3828"/><text fill="#000000" font-family="sans-serif" font-size="13" lengthAdjust="spacing" textLength="193.8892" x="92.1318" y="149.3169">seConnecter(login, password)</text><line style="stroke:#2B547E;stroke-width:1;" x1="343.8936" x2="385.8936" y1="183.5156" y2="183.5156"/><line style="stroke:#2B547E;stroke-width:1;" x1="385.8936" x2="385.8936" y1="183.5156" y2="196.5156"/><line style="stroke:#2B547E;stroke-width:1;" x1="344.8936" x2="385.8936" y1="196.5156" y2="196.5156"/><polygon fill="#2B547E" points="354.8936,192.5156,344.8936,196.5156,354.8936,200.5156,350.8936,196.5156" style="stroke:#2B547E;stroke-width:1;"/><text fill="#000000" font-family="sans-serif" font-size="13" lengthAdjust="spacing" textLength="147.1006" x="350.8936" y="178.4497">V&#233;rifier les identifiants</text><path d="M10,211.5156 L74.4429,211.5156 L74.4429,218.6484 L64.4429,228.6484 L10,228.6484 L10,211.5156 " fill="#EEEEEE" style="stroke:#000000;stroke-width:1.5;"/><rect fill="transparent" height="90.2031" style="stroke:#000000;stroke-width:1.5;" width="381.3032" x="10" y="211.5156"/><text fill="#000000" font-family="sans-serif" font-size="13" font-weight="bold" lengthAdjust="spacing" textLength="19.4429" x="25" y="224.5825">alt</text><text fill="#000000" font-family="sans-serif" font-size="11" font-weight="bold" lengthAdjust="spacing" textLength="129.8032" x="89.4429" y="223.7261">[Identifiants valides]</text><polygon fill="#2B547E" points="96.1318,245.7813,86.1318,249.7813,96.1318,253.7813,92.1318,249.7813" style="stroke:#2B547E;stroke-width:1;"/><line style="stroke:#2B547E;stroke-width:1;stroke-dasharray:2.0,2.0;" x1="90.1318" x2="342.8936" y1="249.7813" y2="249.7813"/><text fill="#000000" font-family="sans-serif" font-size="13" lengthAdjust="spacing" textLength="119.8755" x="102.1318" y="244.7153">Connexion r&#233;ussie</text><line style="stroke:#000000;stroke-width:1;stroke-dasharray:2.0,2.0;" x1="10" x2="391.3032" y1="258.7813" y2="258.7813"/><text fill="#000000" font-family="sans-serif" font-size="11" font-weight="bold" lengthAdjust="spacing" textLength="141.4048" x="15" y="268.9917">[Identifiants invalides]</text><polygon fill="#2B547E" points="96.1318,289.7188,86.1318,293.7188,96.1318,297.7188,92.1318,293.7188" style="stroke:#2B547E;stroke-width:1;"/><line style="stroke:#2B547E;stroke-width:1;stroke-dasharray:2.0,2.0;" x1="90.1318" x2="342.8936" y1="293.7188" y2="293.7188"/><text fill="#000000" font-family="sans-serif" font-size="13" lengthAdjust="spacing" textLength="113.2041" x="102.1318" y="288.6528">Message d'erreur</text><polygon fill="#2B547E" points="331.8936,325.8516,341.8936,329.8516,331.8936,333.8516,335.8936,329.8516" style="stroke:#2B547E;stroke-width:1;"/><line style="stroke:#2B547E;stroke-width:1;" x1="85.1318" x2="337.8936" y1="329.8516" y2="329.8516"/><text fill="#000000" font-family="sans-serif" font-size="13" lengthAdjust="spacing" textLength="218.0737" x="92.1318" y="324.7856">ajouterFormateur(nom, email, ...)</text><line style="stroke:#2B547E;stroke-width:1;" x1="343.8936" x2="385.8936" y1="358.9844" y2="358.9844"/><line style="stroke:#2B547E;stroke-width:1;" x1="385.8936" x2="385.8936" y1="358.9844" y2="371.9844"/><line style="stroke:#2B547E;stroke-width:1;" x1="344.8936" x2="385.8936" y1="371.9844" y2="371.9844"/><polygon fill="#2B547E" points="354.8936,367.9844,344.8936,371.9844,354.8936,375.9844,350.8936,371.9844" style="stroke:#2B547E;stroke-width:1;"/><text fill="#000000" font-family="sans-serif" font-size="13" lengthAdjust="spacing" textLength="127.7783" x="350.8936" y="353.9185">Valider les donn&#233;es</text><path d="M10,386.9844 L74.4429,386.9844 L74.4429,394.1172 L64.4429,404.1172 L10,404.1172 L10,386.9844 " fill="#EEEEEE" style="stroke:#000000;stroke-width:1.5;"/><rect fill="transparent" height="132.3359" style="stroke:#000000;stroke-width:1.5;" width="510.1694" x="10" y="386.9844"/><text fill="#000000" font-family="sans-serif" font-size="13" font-weight="bold" lengthAdjust="spacing" textLength="19.4429" x="25" y="400.0513">alt</text><text fill="#000000" font-family="sans-serif" font-size="11" font-weight="bold" lengthAdjust="spacing" textLength="111.7188" x="89.4429" y="399.1948">[Donn&#233;es valides]</text><line style="stroke:#2B547E;stroke-width:1;" x1="343.8936" x2="385.8936" y1="425.25" y2="425.25"/><line style="stroke:#2B547E;stroke-width:1;" x1="385.8936" x2="385.8936" y1="425.25" y2="438.25"/><line style="stroke:#2B547E;stroke-width:1;" x1="344.8936" x2="385.8936" y1="438.25" y2="438.25"/><polygon fill="#2B547E" points="354.8936,434.25,344.8936,438.25,354.8936,442.25,350.8936,438.25" style="stroke:#2B547E;stroke-width:1;"/><text fill="#000000" font-family="sans-serif" font-size="13" lengthAdjust="spacing" textLength="157.2759" x="350.8936" y="420.1841">Enregistrer le formateur</text><polygon fill="#2B547E" points="96.1318,463.3828,86.1318,467.3828,96.1318,471.3828,92.1318,467.3828" style="stroke:#2B547E;stroke-width:1;"/><line style="stroke:#2B547E;stroke-width:1;stroke-dasharray:2.0,2.0;" x1="90.1318" x2="342.8936" y1="467.3828" y2="467.3828"/><text fill="#000000" font-family="sans-serif" font-size="13" lengthAdjust="spacing" textLength="121.3354" x="102.1318" y="462.3169">Confirmation ajout</text><line style="stroke:#000000;stroke-width:1;stroke-dasharray:2.0,2.0;" x1="10" x2="520.1694" y1="476.3828" y2="476.3828"/><text fill="#000000" font-family="sans-serif" font-size="11" font-weight="bold" lengthAdjust="spacing" textLength="123.3203" x="15" y="486.5933">[Donn&#233;es invalides]</text><polygon fill="#2B547E" points="96.1318,507.3203,86.1318,511.3203,96.1318,515.3203,92.1318,511.3203" style="stroke:#2B547E;stroke-width:1;"/><line style="stroke:#2B547E;stroke-width:1;stroke-dasharray:2.0,2.0;" x1="90.1318" x2="342.8936" y1="511.3203" y2="511.3203"/><text fill="#000000" font-family="sans-serif" font-size="13" lengthAdjust="spacing" textLength="113.2041" x="102.1318" y="506.2544">Message d'erreur</text><polygon fill="#2B547E" points="331.8936,543.4531,341.8936,547.4531,331.8936,551.4531,335.8936,547.4531" style="stroke:#2B547E;stroke-width:1;"/><line style="stroke:#2B547E;stroke-width:1;" x1="85.1318" x2="337.8936" y1="547.4531" y2="547.4531"/><text fill="#000000" font-family="sans-serif" font-size="13" lengthAdjust="spacing" textLength="195.6729" x="92.1318" y="542.3872">creerFormation(titre, date, ...)</text><line style="stroke:#2B547E;stroke-width:1;" x1="343.8936" x2="385.8936" y1="576.5859" y2="576.5859"/><line style="stroke:#2B547E;stroke-width:1;" x1="385.8936" x2="385.8936" y1="576.5859" y2="589.5859"/><line style="stroke:#2B547E;stroke-width:1;" x1="344.8936" x2="385.8936" y1="589.5859" y2="589.5859"/><polygon fill="#2B547E" points="354.8936,585.5859,344.8936,589.5859,354.8936,593.5859,350.8936,589.5859" style="stroke:#2B547E;stroke-width:1;"/><text fill="#000000" font-family="sans-serif" font-size="13" lengthAdjust="spacing" textLength="127.7783" x="350.8936" y="571.52">Valider les donn&#233;es</text><path d="M10,604.5859 L74.4429,604.5859 L74.4429,611.7188 L64.4429,621.7188 L10,621.7188 L10,604.5859 " fill="#EEEEEE" style="stroke:#000000;stroke-width:1.5;"/><rect fill="transparent" height="132.3359" style="stroke:#000000;stroke-width:1.5;" width="508.3604" x="10" y="604.5859"/><text fill="#000000" font-family="sans-serif" font-size="13" font-weight="bold" lengthAdjust="spacing" textLength="19.4429" x="25" y="617.6528">alt</text><text fill="#000000" font-family="sans-serif" font-size="11" font-weight="bold" lengthAdjust="spacing" textLength="111.7188" x="89.4429" y="616.7964">[Donn&#233;es valides]</text><line style="stroke:#2B547E;stroke-width:1;" x1="343.8936" x2="385.8936" y1="642.8516" y2="642.8516"/><line style="stroke:#2B547E;stroke-width:1;" x1="385.8936" x2="385.8936" y1="642.8516" y2="655.8516"/><line style="stroke:#2B547E;stroke-width:1;" x1="344.8936" x2="385.8936" y1="655.8516" y2="655.8516"/><polygon fill="#2B547E" points="354.8936,651.8516,344.8936,655.8516,354.8936,659.8516,350.8936,655.8516" style="stroke:#2B547E;stroke-width:1;"/><text fill="#000000" font-family="sans-serif" font-size="13" lengthAdjust="spacing" textLength="155.4668" x="350.8936" y="637.7856">Enregistrer la formation</text><polygon fill="#2B547E" points="96.1318,680.9844,86.1318,684.9844,96.1318,688.9844,92.1318,684.9844" style="stroke:#2B547E;stroke-width:1;"/><line style="stroke:#2B547E;stroke-width:1;stroke-dasharray:2.0,2.0;" x1="90.1318" x2="342.8936" y1="684.9844" y2="684.9844"/><text fill="#000000" font-family="sans-serif" font-size="13" lengthAdjust="spacing" textLength="141.8257" x="102.1318" y="679.9185">Confirmation cr&#233;ation</text><line style="stroke:#000000;stroke-width:1;stroke-dasharray:2.0,2.0;" x1="10" x2="518.3604" y1="693.9844" y2="693.9844"/><text fill="#000000" font-family="sans-serif" font-size="11" font-weight="bold" lengthAdjust="spacing" textLength="123.3203" x="15" y="704.1948">[Donn&#233;es invalides]</text><polygon fill="#2B547E" points="96.1318,724.9219,86.1318,728.9219,96.1318,732.9219,92.1318,728.9219" style="stroke:#2B547E;stroke-width:1;"/><line style="stroke:#2B547E;stroke-width:1;stroke-dasharray:2.0,2.0;" x1="90.1318" x2="342.8936" y1="728.9219" y2="728.9219"/><text fill="#000000" font-family="sans-serif" font-size="13" lengthAdjust="spacing" textLength="113.2041" x="102.1318" y="723.856">Message d'erreur</text><polygon fill="#2B547E" points="331.8936,761.0547,341.8936,765.0547,331.8936,769.0547,335.8936,765.0547" style="stroke:#2B547E;stroke-width:1;"/><line style="stroke:#2B547E;stroke-width:1;" x1="85.1318" x2="337.8936" y1="765.0547" y2="765.0547"/><text fill="#000000" font-family="sans-serif" font-size="13" lengthAdjust="spacing" textLength="234.7617" x="92.1318" y="759.9888">ajouterParticipant(nom, prenom, ...)</text><line style="stroke:#2B547E;stroke-width:1;" x1="343.8936" x2="385.8936" y1="794.1875" y2="794.1875"/><line style="stroke:#2B547E;stroke-width:1;" x1="385.8936" x2="385.8936" y1="794.1875" y2="807.1875"/><line style="stroke:#2B547E;stroke-width:1;" x1="344.8936" x2="385.8936" y1="807.1875" y2="807.1875"/><polygon fill="#2B547E" points="354.8936,803.1875,344.8936,807.1875,354.8936,811.1875,350.8936,807.1875" style="stroke:#2B547E;stroke-width:1;"/><text fill="#000000" font-family="sans-serif" font-size="13" lengthAdjust="spacing" textLength="127.7783" x="350.8936" y="789.1216">Valider les donn&#233;es</text><path d="M10,822.1875 L74.4429,822.1875 L74.4429,829.3203 L64.4429,839.3203 L10,839.3203 L10,822.1875 " fill="#EEEEEE" style="stroke:#000000;stroke-width:1.5;"/><rect fill="transparent" height="132.3359" style="stroke:#000000;stroke-width:1.5;" width="515.5713" x="10" y="822.1875"/><text fill="#000000" font-family="sans-serif" font-size="13" font-weight="bold" lengthAdjust="spacing" textLength="19.4429" x="25" y="835.2544">alt</text><text fill="#000000" font-family="sans-serif" font-size="11" font-weight="bold" lengthAdjust="spacing" textLength="111.7188" x="89.4429" y="834.3979">[Donn&#233;es valides]</text><line style="stroke:#2B547E;stroke-width:1;" x1="343.8936" x2="385.8936" y1="860.4531" y2="860.4531"/><line style="stroke:#2B547E;stroke-width:1;" x1="385.8936" x2="385.8936" y1="860.4531" y2="873.4531"/><line style="stroke:#2B547E;stroke-width:1;" x1="344.8936" x2="385.8936" y1="873.4531" y2="873.4531"/><polygon fill="#2B547E" points="354.8936,869.4531,344.8936,873.4531,354.8936,877.4531,350.8936,873.4531" style="stroke:#2B547E;stroke-width:1;"/><text fill="#000000" font-family="sans-serif" font-size="13" lengthAdjust="spacing" textLength="162.6777" x="350.8936" y="855.3872">Enregistrer le participant</text><polygon fill="#2B547E" points="96.1318,898.5859,86.1318,902.5859,96.1318,906.5859,92.1318,902.5859" style="stroke:#2B547E;stroke-width:1;"/><line style="stroke:#2B547E;stroke-width:1;stroke-dasharray:2.0,2.0;" x1="90.1318" x2="342.8936" y1="902.5859" y2="902.5859"/><text fill="#000000" font-family="sans-serif" font-size="13" lengthAdjust="spacing" textLength="121.3354" x="102.1318" y="897.52">Confirmation ajout</text><line style="stroke:#000000;stroke-width:1;stroke-dasharray:2.0,2.0;" x1="10" x2="525.5713" y1="911.5859" y2="911.5859"/><text fill="#000000" font-family="sans-serif" font-size="11" font-weight="bold" lengthAdjust="spacing" textLength="123.3203" x="15" y="921.7964">[Donn&#233;es invalides]</text><polygon fill="#2B547E" points="96.1318,942.5234,86.1318,946.5234,96.1318,950.5234,92.1318,946.5234" style="stroke:#2B547E;stroke-width:1;"/><line style="stroke:#2B547E;stroke-width:1;stroke-dasharray:2.0,2.0;" x1="90.1318" x2="342.8936" y1="946.5234" y2="946.5234"/><text fill="#000000" font-family="sans-serif" font-size="13" lengthAdjust="spacing" textLength="113.2041" x="102.1318" y="941.4575">Message d'erreur</text><!--SRC=[pLNRRjD047ttLup2Gu8KqWIQMnKYrOsDAgK14Oh4uyQUH4ljtR2xfWN4_v3lo8ynlYHPSbCBKelpOEtCsJEpv-muPNYzvu7nXqz33wxU3hpt8sylnD4tNCoPOZ5CM70pKp8HuOMCf89dVeT-leNG-2L14I3yS82USwNaRO5zwJPFsruU3enKhbGXgbMoswcxNIkvNMdGyixzJWOOyYaEkS131ElyDeVd-atVpJ3lc38yu7Ccp24Q6tA4oPLtnvfDqmSA-5AO4OiHIcESIOJhoz8wFkRV4HgjR7s5MhCPfk62fD4yVTMgRoVpFSqiF99cz_n-rsjt_KtUxijjTvjrr_df66uYXDwatzF4TzRezD-WDbmA88U1Kfh7StebXaTSCuE9wfsaq7xlPD9tdFA1UxPS53VZ32wa47YNKkwzRooz02HANkTwKwS4J4CUjgBEV6CKxVgcpV9NZ3cM5XWxErlWHR_8KJSQitu2WweIoHaNLJgfrhUapdEdGDduZyk5ubEEgHWQU8Z2q9AAQuT51Ywj07nb4G5q9lcAAkNQQSWMHIqNYTOS7Omq_id7nGCOYwi1OHcLIeL24TxBdvNXL8SkeuepGhtVhEFQiiyo8LtN91KXuofWp7XKXLgjjb_Wx8Yvl26fibnWBksWMEoLrIBmXC8PrqPb931TLR-d3LEUubC1ilPp6zQrdye2MlsL1O72bG54KQ7nLbY5a82FvG0h7A3o3tOWe678Tpwr2zRVmR-CWaMJ3yDSOVP-h6cmlfR_nppy1W00]--></g></svg>