<svg xmlns="http://www.w3.org/2000/svg" xmlns:xlink="http://www.w3.org/1999/xlink" contentStyleType="text/css" data-diagram-type="CLASS" height="860px" preserveAspectRatio="none" style="width:1204px;height:860px;background:#FFFFFF;" version="1.1" viewBox="0 0 1204 860" width="1204px" zoomAndPan="magnify"><defs/><g><!--class Utilisateur--><g id="elem_Utilisateur"><rect codeLine="3" fill="#F1F1F1" height="145.7813" id="Utilisateur" rx="2.5" ry="2.5" style="stroke:#181818;stroke-width:0.5;" width="142.4023" x="216" y="197"/><ellipse cx="248.2767" cy="213" fill="#ADD1B2" rx="11" ry="11" style="stroke:#181818;stroke-width:1;"/><path d="M251.2454,218.6406 Q250.6673,218.9375 250.0267,219.0781 Q249.386,219.2344 248.6829,219.2344 Q246.1829,219.2344 244.8548,217.5938 Q243.5423,215.9375 243.5423,212.8125 Q243.5423,209.6875 244.8548,208.0313 Q246.1829,206.375 248.6829,206.375 Q249.386,206.375 250.0267,206.5313 Q250.6829,206.6875 251.2454,206.9844 L251.2454,209.7031 Q250.6204,209.125 250.0267,208.8594 Q249.4329,208.5781 248.8079,208.5781 Q247.4642,208.5781 246.7767,209.6563 Q246.0892,210.7188 246.0892,212.8125 Q246.0892,214.9063 246.7767,215.9844 Q247.4642,217.0469 248.8079,217.0469 Q249.4329,217.0469 250.0267,216.7813 Q250.6204,216.5 251.2454,215.9219 L251.2454,218.6406 Z " fill="#000000"/><text fill="#000000" font-family="sans-serif" font-size="14" lengthAdjust="spacing" textLength="72.0098" x="266.1159" y="217.8467">Utilisateur</text><line style="stroke:#181818;stroke-width:0.5;" x1="217" x2="357.4023" y1="229" y2="229"/><ellipse cx="227" cy="242.6484" fill="transparent" rx="3" ry="3" style="stroke:#038048;stroke-width:1;"/><text fill="#000000" font-family="sans-serif" font-size="14" lengthAdjust="spacing" textLength="35.4785" x="236" y="245.9951">int id</text><ellipse cx="227" cy="258.9453" fill="transparent" rx="3" ry="3" style="stroke:#038048;stroke-width:1;"/><text fill="#000000" font-family="sans-serif" font-size="14" lengthAdjust="spacing" textLength="80.3359" x="236" y="262.292">String login</text><ellipse cx="227" cy="275.2422" fill="transparent" rx="3" ry="3" style="stroke:#038048;stroke-width:1;"/><text fill="#000000" font-family="sans-serif" font-size="14" lengthAdjust="spacing" textLength="112.9434" x="236" y="278.5889">String password</text><ellipse cx="227" cy="291.5391" fill="transparent" rx="3" ry="3" style="stroke:#038048;stroke-width:1;"/><text fill="#000000" font-family="sans-serif" font-size="14" lengthAdjust="spacing" textLength="66.2744" x="236" y="294.8857">int idRole</text><line style="stroke:#181818;stroke-width:0.5;" x1="217" x2="357.4023" y1="302.1875" y2="302.1875"/><ellipse cx="227" cy="315.8359" fill="#84BE84" rx="3" ry="3" style="stroke:#038048;stroke-width:1;"/><text fill="#000000" font-family="sans-serif" font-size="14" lengthAdjust="spacing" textLength="99.0869" x="236" y="319.1826">seConnecter()</text><ellipse cx="227" cy="332.1328" fill="#84BE84" rx="3" ry="3" style="stroke:#038048;stroke-width:1;"/><text fill="#000000" font-family="sans-serif" font-size="14" lengthAdjust="spacing" textLength="116.4023" x="236" y="335.4795">seDeconnecter()</text></g><!--class Role--><g id="elem_Role"><rect codeLine="13" fill="#F1F1F1" height="80.5938" id="Role" rx="2.5" ry="2.5" style="stroke:#181818;stroke-width:0.5;" width="103.3076" x="235.5" y="15"/><ellipse cx="268.7303" cy="31" fill="#A9DCDF" rx="11" ry="11" style="stroke:#181818;stroke-width:1;"/><path d="M268.8396,26.3438 L267.6834,31.4219 L270.0115,31.4219 L268.8396,26.3438 Z M267.3553,24.1094 L270.3396,24.1094 L273.699,36.5 L271.2459,36.5 L270.4803,33.4375 L267.199,33.4375 L266.449,36.5 L264.0115,36.5 L267.3553,24.1094 Z " fill="#000000"/><text fill="#000000" font-family="sans-serif" font-size="14" font-style="italic" lengthAdjust="spacing" textLength="30.7959" x="286.7814" y="35.8467">Role</text><line style="stroke:#181818;stroke-width:0.5;" x1="236.5" x2="337.8076" y1="47" y2="47"/><ellipse cx="246.5" cy="60.6484" fill="transparent" rx="3" ry="3" style="stroke:#038048;stroke-width:1;"/><text fill="#000000" font-family="sans-serif" font-size="14" lengthAdjust="spacing" textLength="35.4785" x="255.5" y="63.9951">int id</text><ellipse cx="246.5" cy="76.9453" fill="transparent" rx="3" ry="3" style="stroke:#038048;stroke-width:1;"/><text fill="#000000" font-family="sans-serif" font-size="14" lengthAdjust="spacing" textLength="77.3076" x="255.5" y="80.292">String nom</text><line style="stroke:#181818;stroke-width:0.5;" x1="236.5" x2="337.8076" y1="87.5938" y2="87.5938"/></g><!--class SimpleUtilisateur--><g id="elem_SimpleUtilisateur"><rect codeLine="18" fill="#F1F1F1" height="96.8906" id="SimpleUtilisateur" rx="2.5" ry="2.5" style="stroke:#181818;stroke-width:0.5;" width="151.8135" x="7" y="485"/><ellipse cx="22" cy="501" fill="#ADD1B2" rx="11" ry="11" style="stroke:#181818;stroke-width:1;"/><path d="M24.9688,506.6406 Q24.3906,506.9375 23.75,507.0781 Q23.1094,507.2344 22.4063,507.2344 Q19.9063,507.2344 18.5781,505.5938 Q17.2656,503.9375 17.2656,500.8125 Q17.2656,497.6875 18.5781,496.0313 Q19.9063,494.375 22.4063,494.375 Q23.1094,494.375 23.75,494.5313 Q24.4063,494.6875 24.9688,494.9844 L24.9688,497.7031 Q24.3438,497.125 23.75,496.8594 Q23.1563,496.5781 22.5313,496.5781 Q21.1875,496.5781 20.5,497.6563 Q19.8125,498.7188 19.8125,500.8125 Q19.8125,502.9063 20.5,503.9844 Q21.1875,505.0469 22.5313,505.0469 Q23.1563,505.0469 23.75,504.7813 Q24.3438,504.5 24.9688,503.9219 L24.9688,506.6406 Z " fill="#000000"/><text fill="#000000" font-family="sans-serif" font-size="14" lengthAdjust="spacing" textLength="119.8135" x="36" y="505.8467">SimpleUtilisateur</text><line style="stroke:#181818;stroke-width:0.5;" x1="8" x2="157.8135" y1="517" y2="517"/><line style="stroke:#181818;stroke-width:0.5;" x1="8" x2="157.8135" y1="525" y2="525"/><ellipse cx="18" cy="538.6484" fill="#84BE84" rx="3" ry="3" style="stroke:#038048;stroke-width:1;"/><text fill="#000000" font-family="sans-serif" font-size="14" lengthAdjust="spacing" textLength="121.8711" x="27" y="541.9951">gererFormateur()</text><ellipse cx="18" cy="554.9453" fill="#84BE84" rx="3" ry="3" style="stroke:#038048;stroke-width:1;"/><text fill="#000000" font-family="sans-serif" font-size="14" lengthAdjust="spacing" textLength="119.957" x="27" y="558.292">gererFormation()</text><ellipse cx="18" cy="571.2422" fill="#84BE84" rx="3" ry="3" style="stroke:#038048;stroke-width:1;"/><text fill="#000000" font-family="sans-serif" font-size="14" lengthAdjust="spacing" textLength="124.1201" x="27" y="574.5889">gererParticipant()</text></g><!--class ResponsableCentre--><g id="elem_ResponsableCentre"><rect codeLine="24" fill="#F1F1F1" height="64.2969" id="ResponsableCentre" rx="2.5" ry="2.5" style="stroke:#181818;stroke-width:0.5;" width="184.6484" x="194.5" y="501.5"/><ellipse cx="216.8375" cy="517.5" fill="#ADD1B2" rx="11" ry="11" style="stroke:#181818;stroke-width:1;"/><path d="M219.8063,523.1406 Q219.2282,523.4375 218.5875,523.5781 Q217.9469,523.7344 217.2438,523.7344 Q214.7438,523.7344 213.4157,522.0938 Q212.1032,520.4375 212.1032,517.3125 Q212.1032,514.1875 213.4157,512.5313 Q214.7438,510.875 217.2438,510.875 Q217.9469,510.875 218.5875,511.0313 Q219.2438,511.1875 219.8063,511.4844 L219.8063,514.2031 Q219.1813,513.625 218.5875,513.3594 Q217.9938,513.0781 217.3688,513.0781 Q216.025,513.0781 215.3375,514.1563 Q214.65,515.2188 214.65,517.3125 Q214.65,519.4063 215.3375,520.4844 Q216.025,521.5469 217.3688,521.5469 Q217.9938,521.5469 218.5875,521.2813 Q219.1813,521 219.8063,520.4219 L219.8063,523.1406 Z " fill="#000000"/><text fill="#000000" font-family="sans-serif" font-size="14" lengthAdjust="spacing" textLength="136.3428" x="232.4681" y="522.3467">ResponsableCentre</text><line style="stroke:#181818;stroke-width:0.5;" x1="195.5" x2="378.1484" y1="533.5" y2="533.5"/><line style="stroke:#181818;stroke-width:0.5;" x1="195.5" x2="378.1484" y1="541.5" y2="541.5"/><ellipse cx="205.5" cy="555.1484" fill="#84BE84" rx="3" ry="3" style="stroke:#038048;stroke-width:1;"/><text fill="#000000" font-family="sans-serif" font-size="14" lengthAdjust="spacing" textLength="158.6484" x="214.5" y="558.4951">consulterStatistiques()</text></g><!--class Administrateur--><g id="elem_Administrateur"><rect codeLine="28" fill="#F1F1F1" height="129.4844" id="Administrateur" rx="2.5" ry="2.5" style="stroke:#181818;stroke-width:0.5;" width="146.5586" x="414.5" y="469"/><ellipse cx="433.9798" cy="485" fill="#ADD1B2" rx="11" ry="11" style="stroke:#181818;stroke-width:1;"/><path d="M436.9485,490.6406 Q436.3704,490.9375 435.7298,491.0781 Q435.0892,491.2344 434.386,491.2344 Q431.886,491.2344 430.5579,489.5938 Q429.2454,487.9375 429.2454,484.8125 Q429.2454,481.6875 430.5579,480.0313 Q431.886,478.375 434.386,478.375 Q435.0892,478.375 435.7298,478.5313 Q436.386,478.6875 436.9485,478.9844 L436.9485,481.7031 Q436.3235,481.125 435.7298,480.8594 Q435.136,480.5781 434.511,480.5781 Q433.1673,480.5781 432.4798,481.6563 Q431.7923,482.7188 431.7923,484.8125 Q431.7923,486.9063 432.4798,487.9844 Q433.1673,489.0469 434.511,489.0469 Q435.136,489.0469 435.7298,488.7813 Q436.3235,488.5 436.9485,487.9219 L436.9485,490.6406 Z " fill="#000000"/><text fill="#000000" font-family="sans-serif" font-size="14" lengthAdjust="spacing" textLength="104.6035" x="448.9753" y="489.8467">Administrateur</text><line style="stroke:#181818;stroke-width:0.5;" x1="415.5" x2="560.0586" y1="501" y2="501"/><line style="stroke:#181818;stroke-width:0.5;" x1="415.5" x2="560.0586" y1="509" y2="509"/><ellipse cx="425.5" cy="522.6484" fill="#84BE84" rx="3" ry="3" style="stroke:#038048;stroke-width:1;"/><text fill="#000000" font-family="sans-serif" font-size="14" lengthAdjust="spacing" textLength="120.5586" x="434.5" y="525.9951">gererUtilisateur()</text><ellipse cx="425.5" cy="538.9453" fill="#84BE84" rx="3" ry="3" style="stroke:#038048;stroke-width:1;"/><text fill="#000000" font-family="sans-serif" font-size="14" lengthAdjust="spacing" textLength="111.4873" x="434.5" y="542.292">gererDomaine()</text><ellipse cx="425.5" cy="555.2422" fill="#84BE84" rx="3" ry="3" style="stroke:#038048;stroke-width:1;"/><text fill="#000000" font-family="sans-serif" font-size="14" lengthAdjust="spacing" textLength="113.9824" x="434.5" y="558.5889">gererStructure()</text><ellipse cx="425.5" cy="571.5391" fill="#84BE84" rx="3" ry="3" style="stroke:#038048;stroke-width:1;"/><text fill="#000000" font-family="sans-serif" font-size="14" lengthAdjust="spacing" textLength="84.0205" x="434.5" y="574.8857">gererProfil()</text><ellipse cx="425.5" cy="587.8359" fill="#84BE84" rx="3" ry="3" style="stroke:#038048;stroke-width:1;"/><text fill="#000000" font-family="sans-serif" font-size="14" lengthAdjust="spacing" textLength="80.0283" x="434.5" y="591.1826">gererTout()</text></g><!--class Profil--><g id="elem_Profil"><rect codeLine="42" fill="#F1F1F1" height="96.8906" id="Profil" rx="2.5" ry="2.5" style="stroke:#181818;stroke-width:0.5;" width="130.5625" x="480.5" y="221.5"/><ellipse cx="523.8909" cy="237.5" fill="#ADD1B2" rx="11" ry="11" style="stroke:#181818;stroke-width:1;"/><path d="M526.8596,243.1406 Q526.2815,243.4375 525.6409,243.5781 Q525.0002,243.7344 524.2971,243.7344 Q521.7971,243.7344 520.469,242.0938 Q519.1565,240.4375 519.1565,237.3125 Q519.1565,234.1875 520.469,232.5313 Q521.7971,230.875 524.2971,230.875 Q525.0002,230.875 525.6409,231.0313 Q526.2971,231.1875 526.8596,231.4844 L526.8596,234.2031 Q526.2346,233.625 525.6409,233.3594 Q525.0471,233.0781 524.4221,233.0781 Q523.0784,233.0781 522.3909,234.1563 Q521.7034,235.2188 521.7034,237.3125 Q521.7034,239.4063 522.3909,240.4844 Q523.0784,241.5469 524.4221,241.5469 Q525.0471,241.5469 525.6409,241.2813 Q526.2346,241 526.8596,240.4219 L526.8596,243.1406 Z " fill="#000000"/><text fill="#000000" font-family="sans-serif" font-size="14" lengthAdjust="spacing" textLength="35.4717" x="544.2" y="242.3467">Profil</text><line style="stroke:#181818;stroke-width:0.5;" x1="481.5" x2="610.0625" y1="253.5" y2="253.5"/><ellipse cx="491.5" cy="267.1484" fill="transparent" rx="3" ry="3" style="stroke:#038048;stroke-width:1;"/><text fill="#000000" font-family="sans-serif" font-size="14" lengthAdjust="spacing" textLength="35.4785" x="500.5" y="270.4951">int id</text><ellipse cx="491.5" cy="283.4453" fill="transparent" rx="3" ry="3" style="stroke:#038048;stroke-width:1;"/><text fill="#000000" font-family="sans-serif" font-size="14" lengthAdjust="spacing" textLength="87.9033" x="500.5" y="286.792">String libelle</text><line style="stroke:#181818;stroke-width:0.5;" x1="481.5" x2="610.0625" y1="294.0938" y2="294.0938"/><ellipse cx="491.5" cy="307.7422" fill="#84BE84" rx="3" ry="3" style="stroke:#038048;stroke-width:1;"/><text fill="#000000" font-family="sans-serif" font-size="14" lengthAdjust="spacing" textLength="104.5625" x="500.5" y="311.0889">modifierProfil()</text></g><!--class Structure--><g id="elem_Structure"><rect codeLine="49" fill="#F1F1F1" height="96.8906" id="Structure" rx="2.5" ry="2.5" style="stroke:#181818;stroke-width:0.5;" width="160.5244" x="646.5" y="221.5"/><ellipse cx="689.8909" cy="237.5" fill="#ADD1B2" rx="11" ry="11" style="stroke:#181818;stroke-width:1;"/><path d="M692.8596,243.1406 Q692.2815,243.4375 691.6409,243.5781 Q691.0002,243.7344 690.2971,243.7344 Q687.7971,243.7344 686.469,242.0938 Q685.1565,240.4375 685.1565,237.3125 Q685.1565,234.1875 686.469,232.5313 Q687.7971,230.875 690.2971,230.875 Q691.0002,230.875 691.6409,231.0313 Q692.2971,231.1875 692.8596,231.4844 L692.8596,234.2031 Q692.2346,233.625 691.6409,233.3594 Q691.0471,233.0781 690.4221,233.0781 Q689.0784,233.0781 688.3909,234.1563 Q687.7034,235.2188 687.7034,237.3125 Q687.7034,239.4063 688.3909,240.4844 Q689.0784,241.5469 690.4221,241.5469 Q691.0471,241.5469 691.6409,241.2813 Q692.2346,241 692.8596,240.4219 L692.8596,243.1406 Z " fill="#000000"/><text fill="#000000" font-family="sans-serif" font-size="14" lengthAdjust="spacing" textLength="65.4336" x="710.2" y="242.3467">Structure</text><line style="stroke:#181818;stroke-width:0.5;" x1="647.5" x2="806.0244" y1="253.5" y2="253.5"/><ellipse cx="657.5" cy="267.1484" fill="transparent" rx="3" ry="3" style="stroke:#038048;stroke-width:1;"/><text fill="#000000" font-family="sans-serif" font-size="14" lengthAdjust="spacing" textLength="35.4785" x="666.5" y="270.4951">int id</text><ellipse cx="657.5" cy="283.4453" fill="transparent" rx="3" ry="3" style="stroke:#038048;stroke-width:1;"/><text fill="#000000" font-family="sans-serif" font-size="14" lengthAdjust="spacing" textLength="87.9033" x="666.5" y="286.792">String libelle</text><line style="stroke:#181818;stroke-width:0.5;" x1="647.5" x2="806.0244" y1="294.0938" y2="294.0938"/><ellipse cx="657.5" cy="307.7422" fill="#84BE84" rx="3" ry="3" style="stroke:#038048;stroke-width:1;"/><text fill="#000000" font-family="sans-serif" font-size="14" lengthAdjust="spacing" textLength="134.5244" x="666.5" y="311.0889">modifierStructure()</text></g><!--class Participant--><g id="elem_Participant"><rect codeLine="56" fill="#F1F1F1" height="194.6719" id="Participant" rx="2.5" ry="2.5" style="stroke:#181818;stroke-width:0.5;" width="167.6338" x="642" y="436"/><ellipse cx="684.0281" cy="452" fill="#ADD1B2" rx="11" ry="11" style="stroke:#181818;stroke-width:1;"/><path d="M686.9969,457.6406 Q686.4188,457.9375 685.7781,458.0781 Q685.1375,458.2344 684.4344,458.2344 Q681.9344,458.2344 680.6063,456.5938 Q679.2938,454.9375 679.2938,451.8125 Q679.2938,448.6875 680.6063,447.0313 Q681.9344,445.375 684.4344,445.375 Q685.1375,445.375 685.7781,445.5313 Q686.4344,445.6875 686.9969,445.9844 L686.9969,448.7031 Q686.3719,448.125 685.7781,447.8594 Q685.1844,447.5781 684.5594,447.5781 Q683.2156,447.5781 682.5281,448.6563 Q681.8406,449.7188 681.8406,451.8125 Q681.8406,453.9063 682.5281,454.9844 Q683.2156,456.0469 684.5594,456.0469 Q685.1844,456.0469 685.7781,455.7813 Q686.3719,455.5 686.9969,454.9219 L686.9969,457.6406 Z " fill="#000000"/><text fill="#000000" font-family="sans-serif" font-size="14" lengthAdjust="spacing" textLength="75.5713" x="704.0344" y="456.8467">Participant</text><line style="stroke:#181818;stroke-width:0.5;" x1="643" x2="808.6338" y1="468" y2="468"/><ellipse cx="653" cy="481.6484" fill="transparent" rx="3" ry="3" style="stroke:#038048;stroke-width:1;"/><text fill="#000000" font-family="sans-serif" font-size="14" lengthAdjust="spacing" textLength="35.4785" x="662" y="484.9951">int id</text><ellipse cx="653" cy="497.9453" fill="transparent" rx="3" ry="3" style="stroke:#038048;stroke-width:1;"/><text fill="#000000" font-family="sans-serif" font-size="14" lengthAdjust="spacing" textLength="77.3076" x="662" y="501.292">String nom</text><ellipse cx="653" cy="514.2422" fill="transparent" rx="3" ry="3" style="stroke:#038048;stroke-width:1;"/><text fill="#000000" font-family="sans-serif" font-size="14" lengthAdjust="spacing" textLength="100.5635" x="662" y="517.5889">String prenom</text><ellipse cx="653" cy="530.5391" fill="transparent" rx="3" ry="3" style="stroke:#038048;stroke-width:1;"/><text fill="#000000" font-family="sans-serif" font-size="14" lengthAdjust="spacing" textLength="100.9121" x="662" y="533.8857">int idStructure</text><ellipse cx="653" cy="546.8359" fill="transparent" rx="3" ry="3" style="stroke:#038048;stroke-width:1;"/><text fill="#000000" font-family="sans-serif" font-size="14" lengthAdjust="spacing" textLength="70.9502" x="662" y="550.1826">int idProfil</text><ellipse cx="653" cy="563.1328" fill="transparent" rx="3" ry="3" style="stroke:#038048;stroke-width:1;"/><text fill="#000000" font-family="sans-serif" font-size="14" lengthAdjust="spacing" textLength="84.8408" x="662" y="566.4795">String email</text><ellipse cx="653" cy="579.4297" fill="transparent" rx="3" ry="3" style="stroke:#038048;stroke-width:1;"/><text fill="#000000" font-family="sans-serif" font-size="14" lengthAdjust="spacing" textLength="40.6943" x="662" y="582.7764">int tel</text><line style="stroke:#181818;stroke-width:0.5;" x1="643" x2="808.6338" y1="590.0781" y2="590.0781"/><ellipse cx="653" cy="603.7266" fill="#84BE84" rx="3" ry="3" style="stroke:#038048;stroke-width:1;"/><text fill="#000000" font-family="sans-serif" font-size="14" lengthAdjust="spacing" textLength="141.6338" x="662" y="607.0732">sInscrireFormation()</text><ellipse cx="653" cy="620.0234" fill="#84BE84" rx="3" ry="3" style="stroke:#038048;stroke-width:1;"/><text fill="#000000" font-family="sans-serif" font-size="14" lengthAdjust="spacing" textLength="137.7236" x="662" y="623.3701">annulerInscription()</text></g><!--class Formateur--><g id="elem_Formateur"><rect codeLine="69" fill="#F1F1F1" height="178.375" id="Formateur" rx="2.5" ry="2.5" style="stroke:#181818;stroke-width:0.5;" width="157.6807" x="846" y="181"/><ellipse cx="884.5613" cy="197" fill="#ADD1B2" rx="11" ry="11" style="stroke:#181818;stroke-width:1;"/><path d="M887.53,202.6406 Q886.9519,202.9375 886.3113,203.0781 Q885.6707,203.2344 884.9675,203.2344 Q882.4675,203.2344 881.1394,201.5938 Q879.8269,199.9375 879.8269,196.8125 Q879.8269,193.6875 881.1394,192.0313 Q882.4675,190.375 884.9675,190.375 Q885.6707,190.375 886.3113,190.5313 Q886.9675,190.6875 887.53,190.9844 L887.53,193.7031 Q886.905,193.125 886.3113,192.8594 Q885.7175,192.5781 885.0925,192.5781 Q883.7488,192.5781 883.0613,193.6563 Q882.3738,194.7188 882.3738,196.8125 Q882.3738,198.9063 883.0613,199.9844 Q883.7488,201.0469 885.0925,201.0469 Q885.7175,201.0469 886.3113,200.7813 Q886.905,200.5 887.53,199.9219 L887.53,202.6406 Z " fill="#000000"/><text fill="#000000" font-family="sans-serif" font-size="14" lengthAdjust="spacing" textLength="73.3223" x="903.7971" y="201.8467">Formateur</text><line style="stroke:#181818;stroke-width:0.5;" x1="847" x2="1002.6807" y1="213" y2="213"/><ellipse cx="857" cy="226.6484" fill="transparent" rx="3" ry="3" style="stroke:#038048;stroke-width:1;"/><text fill="#000000" font-family="sans-serif" font-size="14" lengthAdjust="spacing" textLength="35.4785" x="866" y="229.9951">int id</text><ellipse cx="857" cy="242.9453" fill="transparent" rx="3" ry="3" style="stroke:#038048;stroke-width:1;"/><text fill="#000000" font-family="sans-serif" font-size="14" lengthAdjust="spacing" textLength="77.3076" x="866" y="246.292">String nom</text><ellipse cx="857" cy="259.2422" fill="transparent" rx="3" ry="3" style="stroke:#038048;stroke-width:1;"/><text fill="#000000" font-family="sans-serif" font-size="14" lengthAdjust="spacing" textLength="100.5635" x="866" y="262.5889">String prenom</text><ellipse cx="857" cy="275.5391" fill="transparent" rx="3" ry="3" style="stroke:#038048;stroke-width:1;"/><text fill="#000000" font-family="sans-serif" font-size="14" lengthAdjust="spacing" textLength="84.8408" x="866" y="278.8857">String email</text><ellipse cx="857" cy="291.8359" fill="transparent" rx="3" ry="3" style="stroke:#038048;stroke-width:1;"/><text fill="#000000" font-family="sans-serif" font-size="14" lengthAdjust="spacing" textLength="40.6943" x="866" y="295.1826">int tel</text><ellipse cx="857" cy="308.1328" fill="transparent" rx="3" ry="3" style="stroke:#038048;stroke-width:1;"/><text fill="#000000" font-family="sans-serif" font-size="14" lengthAdjust="spacing" textLength="77.5059" x="866" y="311.4795">String type</text><ellipse cx="857" cy="324.4297" fill="transparent" rx="3" ry="3" style="stroke:#038048;stroke-width:1;"/><text fill="#000000" font-family="sans-serif" font-size="14" lengthAdjust="spacing" textLength="110.8311" x="866" y="327.7764">int idEmployeur</text><line style="stroke:#181818;stroke-width:0.5;" x1="847" x2="1002.6807" y1="335.0781" y2="335.0781"/><ellipse cx="857" cy="348.7266" fill="#84BE84" rx="3" ry="3" style="stroke:#038048;stroke-width:1;"/><text fill="#000000" font-family="sans-serif" font-size="14" lengthAdjust="spacing" textLength="131.6807" x="866" y="352.0732">animerFormation()</text></g><!--class Employeur--><g id="elem_Employeur"><rect codeLine="81" fill="#F1F1F1" height="96.8906" id="Employeur" rx="2.5" ry="2.5" style="stroke:#181818;stroke-width:0.5;" width="178.6602" x="835.5" y="7"/><ellipse cx="882.9038" cy="23" fill="#ADD1B2" rx="11" ry="11" style="stroke:#181818;stroke-width:1;"/><path d="M885.8726,28.6406 Q885.2944,28.9375 884.6538,29.0781 Q884.0132,29.2344 883.3101,29.2344 Q880.8101,29.2344 879.4819,27.5938 Q878.1694,25.9375 878.1694,22.8125 Q878.1694,19.6875 879.4819,18.0313 Q880.8101,16.375 883.3101,16.375 Q884.0132,16.375 884.6538,16.5313 Q885.3101,16.6875 885.8726,16.9844 L885.8726,19.7031 Q885.2476,19.125 884.6538,18.8594 Q884.0601,18.5781 883.4351,18.5781 Q882.0913,18.5781 881.4038,19.6563 Q880.7163,20.7188 880.7163,22.8125 Q880.7163,24.9063 881.4038,25.9844 Q882.0913,27.0469 883.4351,27.0469 Q884.0601,27.0469 884.6538,26.7813 Q885.2476,26.5 885.8726,25.9219 L885.8726,28.6406 Z " fill="#000000"/><text fill="#000000" font-family="sans-serif" font-size="14" lengthAdjust="spacing" textLength="75.3525" x="903.4038" y="27.8467">Employeur</text><line style="stroke:#181818;stroke-width:0.5;" x1="836.5" x2="1013.1602" y1="39" y2="39"/><ellipse cx="846.5" cy="52.6484" fill="transparent" rx="3" ry="3" style="stroke:#038048;stroke-width:1;"/><text fill="#000000" font-family="sans-serif" font-size="14" lengthAdjust="spacing" textLength="35.4785" x="855.5" y="55.9951">int id</text><ellipse cx="846.5" cy="68.9453" fill="transparent" rx="3" ry="3" style="stroke:#038048;stroke-width:1;"/><text fill="#000000" font-family="sans-serif" font-size="14" lengthAdjust="spacing" textLength="152.6602" x="855.5" y="72.292">String nomEmployeur</text><line style="stroke:#181818;stroke-width:0.5;" x1="836.5" x2="1013.1602" y1="79.5938" y2="79.5938"/><ellipse cx="846.5" cy="93.2422" fill="#84BE84" rx="3" ry="3" style="stroke:#038048;stroke-width:1;"/><text fill="#000000" font-family="sans-serif" font-size="14" lengthAdjust="spacing" textLength="123.9014" x="855.5" y="96.5889">gererEmployeur()</text></g><!--class Formation--><g id="elem_Formation"><rect codeLine="88" fill="#F1F1F1" height="194.6719" id="Formation" rx="2.5" ry="2.5" style="stroke:#181818;stroke-width:0.5;" width="166.499" x="845" y="436"/><ellipse cx="888.3909" cy="452" fill="#ADD1B2" rx="11" ry="11" style="stroke:#181818;stroke-width:1;"/><path d="M891.3596,457.6406 Q890.7815,457.9375 890.1409,458.0781 Q889.5002,458.2344 888.7971,458.2344 Q886.2971,458.2344 884.969,456.5938 Q883.6565,454.9375 883.6565,451.8125 Q883.6565,448.6875 884.969,447.0313 Q886.2971,445.375 888.7971,445.375 Q889.5002,445.375 890.1409,445.5313 Q890.7971,445.6875 891.3596,445.9844 L891.3596,448.7031 Q890.7346,448.125 890.1409,447.8594 Q889.5471,447.5781 888.9221,447.5781 Q887.5784,447.5781 886.8909,448.6563 Q886.2034,449.7188 886.2034,451.8125 Q886.2034,453.9063 886.8909,454.9844 Q887.5784,456.0469 888.9221,456.0469 Q889.5471,456.0469 890.1409,455.7813 Q890.7346,455.5 891.3596,454.9219 L891.3596,457.6406 Z " fill="#000000"/><text fill="#000000" font-family="sans-serif" font-size="14" lengthAdjust="spacing" textLength="71.4082" x="908.7" y="456.8467">Formation</text><line style="stroke:#181818;stroke-width:0.5;" x1="846" x2="1010.499" y1="468" y2="468"/><ellipse cx="856" cy="481.6484" fill="transparent" rx="3" ry="3" style="stroke:#038048;stroke-width:1;"/><text fill="#000000" font-family="sans-serif" font-size="14" lengthAdjust="spacing" textLength="47.4414" x="865" y="484.9951">long id</text><ellipse cx="856" cy="497.9453" fill="transparent" rx="3" ry="3" style="stroke:#038048;stroke-width:1;"/><text fill="#000000" font-family="sans-serif" font-size="14" lengthAdjust="spacing" textLength="75.4688" x="865" y="501.292">String titre</text><ellipse cx="856" cy="514.2422" fill="transparent" rx="3" ry="3" style="stroke:#038048;stroke-width:1;"/><text fill="#000000" font-family="sans-serif" font-size="14" lengthAdjust="spacing" textLength="66.2539" x="865" y="517.5889">int annee</text><ellipse cx="856" cy="530.5391" fill="transparent" rx="3" ry="3" style="stroke:#038048;stroke-width:1;"/><text fill="#000000" font-family="sans-serif" font-size="14" lengthAdjust="spacing" textLength="63.4443" x="865" y="533.8857">int duree</text><ellipse cx="856" cy="546.8359" fill="transparent" rx="3" ry="3" style="stroke:#038048;stroke-width:1;"/><text fill="#000000" font-family="sans-serif" font-size="14" lengthAdjust="spacing" textLength="98.417" x="865" y="550.1826">int idDomaine</text><ellipse cx="856" cy="563.1328" fill="transparent" rx="3" ry="3" style="stroke:#038048;stroke-width:1;"/><text fill="#000000" font-family="sans-serif" font-size="14" lengthAdjust="spacing" textLength="101.8008" x="865" y="566.4795">double budget</text><line style="stroke:#181818;stroke-width:0.5;" x1="846" x2="1010.499" y1="573.7813" y2="573.7813"/><ellipse cx="856" cy="587.4297" fill="#84BE84" rx="3" ry="3" style="stroke:#038048;stroke-width:1;"/><text fill="#000000" font-family="sans-serif" font-size="14" lengthAdjust="spacing" textLength="118.7676" x="865" y="590.7764">creerFormation()</text><ellipse cx="856" cy="603.7266" fill="#84BE84" rx="3" ry="3" style="stroke:#038048;stroke-width:1;"/><text fill="#000000" font-family="sans-serif" font-size="14" lengthAdjust="spacing" textLength="140.499" x="865" y="607.0732">modifierFormation()</text><ellipse cx="856" cy="620.0234" fill="#84BE84" rx="3" ry="3" style="stroke:#038048;stroke-width:1;"/><text fill="#000000" font-family="sans-serif" font-size="14" lengthAdjust="spacing" textLength="136.2607" x="865" y="623.3701">ajouterParticipant()</text></g><!--class Domaine--><g id="elem_Domaine"><rect codeLine="101" fill="#F1F1F1" height="96.8906" id="Domaine" rx="2.5" ry="2.5" style="stroke:#181818;stroke-width:0.5;" width="158.0293" x="1039" y="221.5"/><ellipse cx="1082.3909" cy="237.5" fill="#ADD1B2" rx="11" ry="11" style="stroke:#181818;stroke-width:1;"/><path d="M1085.3596,243.1406 Q1084.7815,243.4375 1084.1409,243.5781 Q1083.5002,243.7344 1082.7971,243.7344 Q1080.2971,243.7344 1078.969,242.0938 Q1077.6565,240.4375 1077.6565,237.3125 Q1077.6565,234.1875 1078.969,232.5313 Q1080.2971,230.875 1082.7971,230.875 Q1083.5002,230.875 1084.1409,231.0313 Q1084.7971,231.1875 1085.3596,231.4844 L1085.3596,234.2031 Q1084.7346,233.625 1084.1409,233.3594 Q1083.5471,233.0781 1082.9221,233.0781 Q1081.5784,233.0781 1080.8909,234.1563 Q1080.2034,235.2188 1080.2034,237.3125 Q1080.2034,239.4063 1080.8909,240.4844 Q1081.5784,241.5469 1082.9221,241.5469 Q1083.5471,241.5469 1084.1409,241.2813 Q1084.7346,241 1085.3596,240.4219 L1085.3596,243.1406 Z " fill="#000000"/><text fill="#000000" font-family="sans-serif" font-size="14" lengthAdjust="spacing" textLength="62.9385" x="1102.7" y="242.3467">Domaine</text><line style="stroke:#181818;stroke-width:0.5;" x1="1040" x2="1196.0293" y1="253.5" y2="253.5"/><ellipse cx="1050" cy="267.1484" fill="transparent" rx="3" ry="3" style="stroke:#038048;stroke-width:1;"/><text fill="#000000" font-family="sans-serif" font-size="14" lengthAdjust="spacing" textLength="35.4785" x="1059" y="270.4951">int id</text><ellipse cx="1050" cy="283.4453" fill="transparent" rx="3" ry="3" style="stroke:#038048;stroke-width:1;"/><text fill="#000000" font-family="sans-serif" font-size="14" lengthAdjust="spacing" textLength="87.9033" x="1059" y="286.792">String libelle</text><line style="stroke:#181818;stroke-width:0.5;" x1="1040" x2="1196.0293" y1="294.0938" y2="294.0938"/><ellipse cx="1050" cy="307.7422" fill="#84BE84" rx="3" ry="3" style="stroke:#038048;stroke-width:1;"/><text fill="#000000" font-family="sans-serif" font-size="14" lengthAdjust="spacing" textLength="132.0293" x="1059" y="311.0889">modifierDomaine()</text></g><!--class Participation--><g id="elem_Participation"><rect codeLine="110" fill="#F1F1F1" height="145.7813" id="Participation" rx="2.5" ry="2.5" style="stroke:#181818;stroke-width:0.5;" width="178.4072" x="737" y="708"/><ellipse cx="778.2714" cy="724" fill="#ADD1B2" rx="11" ry="11" style="stroke:#181818;stroke-width:1;"/><path d="M781.2401,729.6406 Q780.662,729.9375 780.0214,730.0781 Q779.3808,730.2344 778.6776,730.2344 Q776.1776,730.2344 774.8495,728.5938 Q773.537,726.9375 773.537,723.8125 Q773.537,720.6875 774.8495,719.0313 Q776.1776,717.375 778.6776,717.375 Q779.3808,717.375 780.0214,717.5313 Q780.6776,717.6875 781.2401,717.9844 L781.2401,720.7031 Q780.6151,720.125 780.0214,719.8594 Q779.4276,719.5781 778.8026,719.5781 Q777.4589,719.5781 776.7714,720.6563 Q776.0839,721.7188 776.0839,723.8125 Q776.0839,725.9063 776.7714,726.9844 Q777.4589,728.0469 778.8026,728.0469 Q779.4276,728.0469 780.0214,727.7813 Q780.6151,727.5 781.2401,726.9219 L781.2401,729.6406 Z " fill="#000000"/><text fill="#000000" font-family="sans-serif" font-size="14" lengthAdjust="spacing" textLength="88.0264" x="798.1095" y="728.8467">Participation</text><line style="stroke:#181818;stroke-width:0.5;" x1="738" x2="914.4072" y1="740" y2="740"/><ellipse cx="748" cy="753.6484" fill="transparent" rx="3" ry="3" style="stroke:#038048;stroke-width:1;"/><text fill="#000000" font-family="sans-serif" font-size="14" lengthAdjust="spacing" textLength="111.0498" x="757" y="756.9951">int idParticipant</text><ellipse cx="748" cy="769.9453" fill="transparent" rx="3" ry="3" style="stroke:#038048;stroke-width:1;"/><text fill="#000000" font-family="sans-serif" font-size="14" lengthAdjust="spacing" textLength="118.8496" x="757" y="773.292">long idFormation</text><ellipse cx="748" cy="786.2422" fill="transparent" rx="3" ry="3" style="stroke:#038048;stroke-width:1;"/><text fill="#000000" font-family="sans-serif" font-size="14" lengthAdjust="spacing" textLength="142.8232" x="757" y="789.5889">Date dateInscription</text><ellipse cx="748" cy="802.5391" fill="transparent" rx="3" ry="3" style="stroke:#038048;stroke-width:1;"/><text fill="#000000" font-family="sans-serif" font-size="14" lengthAdjust="spacing" textLength="87.4453" x="757" y="805.8857">String statut</text><line style="stroke:#181818;stroke-width:0.5;" x1="738" x2="914.4072" y1="813.1875" y2="813.1875"/><ellipse cx="748" cy="826.8359" fill="#84BE84" rx="3" ry="3" style="stroke:#038048;stroke-width:1;"/><text fill="#000000" font-family="sans-serif" font-size="14" lengthAdjust="spacing" textLength="146.8496" x="757" y="830.1826">validerParticipation()</text><ellipse cx="748" cy="843.1328" fill="#84BE84" rx="3" ry="3" style="stroke:#038048;stroke-width:1;"/><text fill="#000000" font-family="sans-serif" font-size="14" lengthAdjust="spacing" textLength="152.4072" x="757" y="846.4795">annulerParticipation()</text></g><!--reverse link Utilisateur to SimpleUtilisateur--><g id="link_Utilisateur_SimpleUtilisateur"><path codeLine="36" d="M219.6467,357.3409 C184.3767,402.5409 151,445.33 120.12,484.92 " fill="transparent" id="Utilisateur-backto-SimpleUtilisateur" style="stroke:#181818;stroke-width:1;"/><polygon fill="transparent" points="230.72,343.15,214.9164,353.6498,224.377,361.032,230.72,343.15" style="stroke:#181818;stroke-width:1;"/></g><!--reverse link Utilisateur to ResponsableCentre--><g id="link_Utilisateur_ResponsableCentre"><path codeLine="37" d="M287,361.15 C287,413 287,462.36 287,501.18 " fill="transparent" id="Utilisateur-backto-ResponsableCentre" style="stroke:#181818;stroke-width:1;"/><polygon fill="transparent" points="287,343.15,281,361.15,293,361.15,287,343.15" style="stroke:#181818;stroke-width:1;"/></g><!--reverse link Utilisateur to Administrateur--><g id="link_Utilisateur_Administrateur"><path codeLine="38" d="M353.4301,357.4209 C383.6401,396.7209 409.73,430.67 438.89,468.61 " fill="transparent" id="Utilisateur-backto-Administrateur" style="stroke:#181818;stroke-width:1;"/><polygon fill="transparent" points="342.46,343.15,348.6731,361.0776,358.187,353.7642,342.46,343.15" style="stroke:#181818;stroke-width:1;"/></g><!--link Role to Utilisateur--><g id="link_Role_Utilisateur"><path codeLine="122" d="M287,96.47 C287,124.72 287,163.39 287,196.95 " fill="transparent" id="Role-Utilisateur" style="stroke:#181818;stroke-width:1;"/><text fill="#000000" font-family="sans-serif" font-size="13" lengthAdjust="spacing" textLength="87.7056" x="288" y="147.0669">est attribu&#233; &#224;</text><text fill="#000000" font-family="sans-serif" font-size="13" lengthAdjust="spacing" textLength="8.271" x="278.4098" y="115.6955">1</text><text fill="#000000" font-family="sans-serif" font-size="13" lengthAdjust="spacing" textLength="23.0356" x="262.7952" y="185.7283">0..*</text></g><!--link Structure to Participant--><g id="link_Structure_Participant"><path codeLine="123" d="M726.82,318.66 C726.69,351.36 726.52,395.91 726.37,435.88 " fill="transparent" id="Structure-Participant" style="stroke:#181818;stroke-width:1;"/><text fill="#000000" font-family="sans-serif" font-size="13" lengthAdjust="spacing" textLength="59.3823" x="727" y="402.0669">regroupe</text><text fill="#000000" font-family="sans-serif" font-size="13" lengthAdjust="spacing" textLength="8.271" x="718.3085" y="338.2897">1</text><text fill="#000000" font-family="sans-serif" font-size="13" lengthAdjust="spacing" textLength="23.0356" x="702.5332" y="424.9163">0..*</text></g><!--link Profil to Participant--><g id="link_Profil_Participant"><path codeLine="124" d="M573.64,318.62 C589.26,344.82 609.5,377.67 629,406 C635.75,415.8 642.96,425.88 650.3,435.87 " fill="transparent" id="Profil-Participant" style="stroke:#181818;stroke-width:1;"/><text fill="#000000" font-family="sans-serif" font-size="13" lengthAdjust="spacing" textLength="87.7056" x="630" y="402.0669">est attribu&#233; &#224;</text><text fill="#000000" font-family="sans-serif" font-size="13" lengthAdjust="spacing" textLength="8.271" x="569.0142" y="338.5958">1</text><text fill="#000000" font-family="sans-serif" font-size="13" lengthAdjust="spacing" textLength="23.0356" x="620.6391" y="424.9055">0..*</text></g><!--link Employeur to Formateur--><g id="link_Employeur_Formateur"><path codeLine="125" d="M925,104.19 C925,126.83 925,154.62 925,180.89 " fill="transparent" id="Employeur-Formateur" style="stroke:#181818;stroke-width:1;"/><text fill="#000000" font-family="sans-serif" font-size="13" lengthAdjust="spacing" textLength="52.0889" x="926" y="147.0669">emploie</text><text fill="#000000" font-family="sans-serif" font-size="13" lengthAdjust="spacing" textLength="8.271" x="916.5035" y="123.8237">1</text><text fill="#000000" font-family="sans-serif" font-size="13" lengthAdjust="spacing" textLength="23.0356" x="901.0624" y="169.9464">0..*</text></g><!--link Domaine to Formation--><g id="link_Domaine_Formation"><path codeLine="126" d="M1083.37,318.66 C1059.61,351.36 1027.24,395.91 998.2,435.88 " fill="transparent" id="Domaine-Formation" style="stroke:#181818;stroke-width:1;"/><text fill="#000000" font-family="sans-serif" font-size="13" lengthAdjust="spacing" textLength="53.3838" x="1029" y="402.0669">contient</text><text fill="#000000" font-family="sans-serif" font-size="13" lengthAdjust="spacing" textLength="8.271" x="1070.1953" y="338.2897">1</text><text fill="#000000" font-family="sans-serif" font-size="13" lengthAdjust="spacing" textLength="23.0356" x="979.6765" y="424.9163">0..*</text></g><!--link Participant to Participation--><g id="link_Participant_Participation"><path codeLine="127" d="M763.19,631.17 C769.38,646.86 775.8,662.91 782,678 C785.99,687.72 790.28,697.93 794.55,707.97 " fill="transparent" id="Participant-Participation" style="stroke:#181818;stroke-width:1;"/><text fill="#000000" font-family="sans-serif" font-size="13" lengthAdjust="spacing" textLength="81.4785" x="783" y="674.0669">a particip&#233; &#224;</text><text fill="#000000" font-family="sans-serif" font-size="13" lengthAdjust="spacing" textLength="8.271" x="757.5461" y="650.6479">1</text><text fill="#000000" font-family="sans-serif" font-size="13" lengthAdjust="spacing" textLength="23.0356" x="767.1016" y="696.7504">0..*</text></g><!--link Formation to Participation--><g id="link_Formation_Participation"><path codeLine="128" d="M888.45,631.04 C881.97,646.74 875.32,662.83 869,678 C864.97,687.67 860.71,697.84 856.5,707.87 " fill="transparent" id="Formation-Participation" style="stroke:#181818;stroke-width:1;"/><text fill="#000000" font-family="sans-serif" font-size="13" lengthAdjust="spacing" textLength="87.623" x="876" y="674.0669">est suivie par</text><text fill="#000000" font-family="sans-serif" font-size="13" lengthAdjust="spacing" textLength="8.271" x="877.2434" y="650.8377">1</text><text fill="#000000" font-family="sans-serif" font-size="13" lengthAdjust="spacing" textLength="23.0356" x="835.352" y="697.0172">0..*</text></g><!--link Formateur to Formation--><g id="link_Formateur_Formation"><path codeLine="129" d="M926.01,359.17 C926.29,383.78 926.6,410.65 926.89,435.74 " fill="transparent" id="Formateur-Formation" style="stroke:#181818;stroke-width:1;"/><text fill="#000000" font-family="sans-serif" font-size="13" lengthAdjust="spacing" textLength="32.3984" x="927" y="402.0669">Faire</text><text fill="#000000" font-family="sans-serif" font-size="13" lengthAdjust="spacing" textLength="8.271" x="917.7784" y="379.5341">1</text><text fill="#000000" font-family="sans-serif" font-size="13" lengthAdjust="spacing" textLength="23.0356" x="902.9469" y="425.0938">0..*</text></g><!--SRC=[bLLBRjim4Dth58GtxWS9sctGBbHR0GJu4rXAzx8qCQQWI9UV546R0-GMtVOSlbX7eYnHbcN0NXZYS6Rutl3DSCg-dlcnnpHUn4cOHeyR5gLiirv4oLdF8CXvfZLxDCXHPmQiOhy3nZwYC0oBwYin2iMESRb3uQtt5FPBgg9ptaWEGRNKC9D2G6v0lNll37F8FTDh46HRRLIM6-REhs973XQoh0ASNuBbdiC0xGuKg7kfojhc3lLiA8LdUyYKmHptcJ0EImC1z5uAdMqvp40OrU0XtDfomfqOIgGD_hIW_RYmA55WnUO4ZuVIEtqkomm5U1RYQNDZbMzxKF89kMT8fMtG-kI__Bcv6TPaw3BWDdJfqmY2wNbbHQiqJWzl2LiUtj8usbnKbMCn9YZS0cyKKye2dz2ZtLtuiJXNPF4BsYRoRls2q3nzAsWCph5DsfaSMYy6w6hvSTy0TzqG2vqhL72YnKm8oq6vtNrZR-6sOhuIx1YIRikyx3qE4Mb7ljGtNcF2ijyqBQ3MSHnGFrSjszOqv4RvNIekARoNow3fwanrWdPHq0Luw9jcgWo5jAHkjhN53amD82VNqm5mbCZfNVoWzXgT3CqfLoYmQ_BNqKvAms-BYCsdOPAiPt6OnklLvMOwWkigryYmG-sLisLOsUOa9LRGdwSsZuAcqMPTqPupZeLNYO5UJtV62MwYHSqgOU7tQCOMSKIVg_LoMOqFUfLcuMOUhyA5coVdgTVlmkJpXD64cdowlVqmwJrLTmmqASGGZQqz_6E7lq4tCFfXVl_VCGKx9IqrGZEYBlaEZkXQeH_MzIm5LJu8mL4xvpohUxnZzC0OfA4S-AUEu6b2CdfzdSK1wj9TZgkOQ8lF25M2eCCxZku-eydr7m00]--></g></svg>