<svg xmlns="http://www.w3.org/2000/svg" xmlns:xlink="http://www.w3.org/1999/xlink" contentStyleType="text/css" data-diagram-type="SEQUENCE" height="1094px" preserveAspectRatio="none" style="width:472px;height:1094px;background:#F8F8FF;" version="1.1" viewBox="0 0 472 1094" width="472px" zoomAndPan="magnify"><title>&lt;b&gt;&lt;size:18&gt;Gestion globale par l'administrateur&lt;/size&gt;&lt;/b&gt;</title><defs/><g><rect fill="#F8F8FF" height="1094" style="stroke:transparent;stroke-width:1;" width="472" x="0" y="0"/><text fill="#000000" font-family="sans-serif" font-size="18" font-weight="bold" lengthAdjust="spacing" textLength="368.6572" x="53.1655" y="31.708">Gestion globale par l'administrateur</text><rect fill="transparent" height="132.3359" style="stroke:#000000;stroke-width:1.5;" width="453.7729" x="10" y="211.5156"/><rect fill="transparent" height="132.3359" style="stroke:#000000;stroke-width:1.5;" width="453.4238" x="10" y="429.1172"/><rect fill="transparent" height="132.3359" style="stroke:#000000;stroke-width:1.5;" width="455.9883" x="10" y="646.7188"/><rect fill="transparent" height="132.3359" style="stroke:#000000;stroke-width:1.5;" width="430.0898" x="10" y="864.3203"/><g><title>Administrateur</title><rect fill="transparent" height="890.4063" width="8" x="71.3018" y="123.25"/><line style="stroke:#2980B9;stroke-width:0.5;stroke-dasharray:5.0,5.0;" x1="75" x2="75" y1="123.25" y2="1013.6563"/></g><g><title>Syst&#232;me</title><rect fill="transparent" height="890.4063" width="8" x="291.6475" y="123.25"/><line style="stroke:#2980B9;stroke-width:0.5;stroke-dasharray:5.0,5.0;" x1="295.2378" x2="295.2378" y1="123.25" y2="1013.6563"/></g><text fill="#000000" font-family="sans-serif" font-size="14" lengthAdjust="spacing" textLength="104.6035" x="20" y="119.9482">Administrateur</text><ellipse cx="75.3018" cy="55.4531" fill="#D6EAF8" rx="8" ry="8" style="stroke:#2980B9;stroke-width:0.5;"/><path d="M75.3018,63.4531 L75.3018,90.4531 M62.3018,71.4531 L88.3018,71.4531 M75.3018,90.4531 L62.3018,105.4531 M75.3018,90.4531 L88.3018,105.4531 " fill="transparent" style="stroke:#2980B9;stroke-width:0.5;"/><text fill="#000000" font-family="sans-serif" font-size="14" lengthAdjust="spacing" textLength="104.6035" x="20" y="1025.6514">Administrateur</text><ellipse cx="75.3018" cy="1037.4531" fill="#D6EAF8" rx="8" ry="8" style="stroke:#2980B9;stroke-width:0.5;"/><path d="M75.3018,1045.4531 L75.3018,1072.4531 M62.3018,1053.4531 L88.3018,1053.4531 M75.3018,1072.4531 L62.3018,1087.4531 M75.3018,1072.4531 L88.3018,1087.4531 " fill="transparent" style="stroke:#2980B9;stroke-width:0.5;"/><rect fill="#EBF5FB" height="30.2969" rx="2.5" ry="2.5" style="stroke:#2980B9;stroke-width:0.5;" width="74.8193" x="258.2378" y="91.9531"/><text fill="#000000" font-family="sans-serif" font-size="14" lengthAdjust="spacing" textLength="60.8193" x="265.2378" y="111.9482">Syst&#232;me</text><rect fill="#EBF5FB" height="30.2969" rx="2.5" ry="2.5" style="stroke:#2980B9;stroke-width:0.5;" width="74.8193" x="258.2378" y="1012.6563"/><text fill="#000000" font-family="sans-serif" font-size="14" lengthAdjust="spacing" textLength="60.8193" x="265.2378" y="1032.6514">Syst&#232;me</text><polygon fill="#2B547E" points="283.6475,150.3828,293.6475,154.3828,283.6475,158.3828,287.6475,154.3828" style="stroke:#2B547E;stroke-width:1;"/><line style="stroke:#2B547E;stroke-width:1;" x1="75.3018" x2="289.6475" y1="154.3828" y2="154.3828"/><text fill="#000000" font-family="sans-serif" font-size="13" lengthAdjust="spacing" textLength="196.3457" x="82.3018" y="149.3169">creerUtilisateur(login, role, ...)</text><line style="stroke:#2B547E;stroke-width:1;" x1="295.6475" x2="337.6475" y1="183.5156" y2="183.5156"/><line style="stroke:#2B547E;stroke-width:1;" x1="337.6475" x2="337.6475" y1="183.5156" y2="196.5156"/><line style="stroke:#2B547E;stroke-width:1;" x1="296.6475" x2="337.6475" y1="196.5156" y2="196.5156"/><polygon fill="#2B547E" points="306.6475,192.5156,296.6475,196.5156,306.6475,200.5156,302.6475,196.5156" style="stroke:#2B547E;stroke-width:1;"/><text fill="#000000" font-family="sans-serif" font-size="13" lengthAdjust="spacing" textLength="127.7783" x="302.6475" y="178.4497">Valider les donn&#233;es</text><path d="M10,211.5156 L74.4429,211.5156 L74.4429,218.6484 L64.4429,228.6484 L10,228.6484 L10,211.5156 " fill="#EEEEEE" style="stroke:#000000;stroke-width:1.5;"/><rect fill="transparent" height="132.3359" style="stroke:#000000;stroke-width:1.5;" width="453.7729" x="10" y="211.5156"/><text fill="#000000" font-family="sans-serif" font-size="13" font-weight="bold" lengthAdjust="spacing" textLength="19.4429" x="25" y="224.5825">alt</text><text fill="#000000" font-family="sans-serif" font-size="11" font-weight="bold" lengthAdjust="spacing" textLength="111.7188" x="89.4429" y="223.7261">[Donn&#233;es valides]</text><line style="stroke:#2B547E;stroke-width:1;" x1="295.6475" x2="337.6475" y1="249.7813" y2="249.7813"/><line style="stroke:#2B547E;stroke-width:1;" x1="337.6475" x2="337.6475" y1="249.7813" y2="262.7813"/><line style="stroke:#2B547E;stroke-width:1;" x1="296.6475" x2="337.6475" y1="262.7813" y2="262.7813"/><polygon fill="#2B547E" points="306.6475,258.7813,296.6475,262.7813,306.6475,266.7813,302.6475,262.7813" style="stroke:#2B547E;stroke-width:1;"/><text fill="#000000" font-family="sans-serif" font-size="13" lengthAdjust="spacing" textLength="149.1255" x="302.6475" y="244.7153">Enregistrer l'utilisateur</text><polygon fill="#2B547E" points="86.3018,287.9141,76.3018,291.9141,86.3018,295.9141,82.3018,291.9141" style="stroke:#2B547E;stroke-width:1;"/><line style="stroke:#2B547E;stroke-width:1;stroke-dasharray:2.0,2.0;" x1="80.3018" x2="294.6475" y1="291.9141" y2="291.9141"/><text fill="#000000" font-family="sans-serif" font-size="13" lengthAdjust="spacing" textLength="141.8257" x="92.3018" y="286.8481">Confirmation cr&#233;ation</text><line style="stroke:#000000;stroke-width:1;stroke-dasharray:2.0,2.0;" x1="10" x2="463.7729" y1="300.9141" y2="300.9141"/><text fill="#000000" font-family="sans-serif" font-size="11" font-weight="bold" lengthAdjust="spacing" textLength="123.3203" x="15" y="311.1245">[Donn&#233;es invalides]</text><polygon fill="#2B547E" points="86.3018,331.8516,76.3018,335.8516,86.3018,339.8516,82.3018,335.8516" style="stroke:#2B547E;stroke-width:1;"/><line style="stroke:#2B547E;stroke-width:1;stroke-dasharray:2.0,2.0;" x1="80.3018" x2="294.6475" y1="335.8516" y2="335.8516"/><text fill="#000000" font-family="sans-serif" font-size="13" lengthAdjust="spacing" textLength="113.2041" x="92.3018" y="330.7856">Message d'erreur</text><polygon fill="#2B547E" points="283.6475,367.9844,293.6475,371.9844,283.6475,375.9844,287.6475,371.9844" style="stroke:#2B547E;stroke-width:1;"/><line style="stroke:#2B547E;stroke-width:1;" x1="75.3018" x2="289.6475" y1="371.9844" y2="371.9844"/><text fill="#000000" font-family="sans-serif" font-size="13" lengthAdjust="spacing" textLength="153.4927" x="82.3018" y="366.9185">ajouterDomaine(libelle)</text><line style="stroke:#2B547E;stroke-width:1;" x1="295.6475" x2="337.6475" y1="401.1172" y2="401.1172"/><line style="stroke:#2B547E;stroke-width:1;" x1="337.6475" x2="337.6475" y1="401.1172" y2="414.1172"/><line style="stroke:#2B547E;stroke-width:1;" x1="296.6475" x2="337.6475" y1="414.1172" y2="414.1172"/><polygon fill="#2B547E" points="306.6475,410.1172,296.6475,414.1172,306.6475,418.1172,302.6475,414.1172" style="stroke:#2B547E;stroke-width:1;"/><text fill="#000000" font-family="sans-serif" font-size="13" lengthAdjust="spacing" textLength="122.2368" x="302.6475" y="396.0513">Valider le domaine</text><path d="M10,429.1172 L74.4429,429.1172 L74.4429,436.25 L64.4429,446.25 L10,446.25 L10,429.1172 " fill="#EEEEEE" style="stroke:#000000;stroke-width:1.5;"/><rect fill="transparent" height="132.3359" style="stroke:#000000;stroke-width:1.5;" width="453.4238" x="10" y="429.1172"/><text fill="#000000" font-family="sans-serif" font-size="13" font-weight="bold" lengthAdjust="spacing" textLength="19.4429" x="25" y="442.1841">alt</text><text fill="#000000" font-family="sans-serif" font-size="11" font-weight="bold" lengthAdjust="spacing" textLength="105.9878" x="89.4429" y="441.3276">[Domaine valide]</text><line style="stroke:#2B547E;stroke-width:1;" x1="295.6475" x2="337.6475" y1="467.3828" y2="467.3828"/><line style="stroke:#2B547E;stroke-width:1;" x1="337.6475" x2="337.6475" y1="467.3828" y2="480.3828"/><line style="stroke:#2B547E;stroke-width:1;" x1="296.6475" x2="337.6475" y1="480.3828" y2="480.3828"/><polygon fill="#2B547E" points="306.6475,476.3828,296.6475,480.3828,306.6475,484.3828,302.6475,480.3828" style="stroke:#2B547E;stroke-width:1;"/><text fill="#000000" font-family="sans-serif" font-size="13" lengthAdjust="spacing" textLength="148.7764" x="302.6475" y="462.3169">Enregistrer le domaine</text><polygon fill="#2B547E" points="86.3018,505.5156,76.3018,509.5156,86.3018,513.5156,82.3018,509.5156" style="stroke:#2B547E;stroke-width:1;"/><line style="stroke:#2B547E;stroke-width:1;stroke-dasharray:2.0,2.0;" x1="80.3018" x2="294.6475" y1="509.5156" y2="509.5156"/><text fill="#000000" font-family="sans-serif" font-size="13" lengthAdjust="spacing" textLength="121.3354" x="92.3018" y="504.4497">Confirmation ajout</text><line style="stroke:#000000;stroke-width:1;stroke-dasharray:2.0,2.0;" x1="10" x2="463.4238" y1="518.5156" y2="518.5156"/><text fill="#000000" font-family="sans-serif" font-size="11" font-weight="bold" lengthAdjust="spacing" textLength="117.5894" x="15" y="528.7261">[Domaine invalide]</text><polygon fill="#2B547E" points="86.3018,549.4531,76.3018,553.4531,86.3018,557.4531,82.3018,553.4531" style="stroke:#2B547E;stroke-width:1;"/><line style="stroke:#2B547E;stroke-width:1;stroke-dasharray:2.0,2.0;" x1="80.3018" x2="294.6475" y1="553.4531" y2="553.4531"/><text fill="#000000" font-family="sans-serif" font-size="13" lengthAdjust="spacing" textLength="113.2041" x="92.3018" y="548.3872">Message d'erreur</text><polygon fill="#2B547E" points="283.6475,585.5859,293.6475,589.5859,283.6475,593.5859,287.6475,589.5859" style="stroke:#2B547E;stroke-width:1;"/><line style="stroke:#2B547E;stroke-width:1;" x1="75.3018" x2="289.6475" y1="589.5859" y2="589.5859"/><text fill="#000000" font-family="sans-serif" font-size="13" lengthAdjust="spacing" textLength="155.8096" x="82.3018" y="584.52">ajouterStructure(libelle)</text><line style="stroke:#2B547E;stroke-width:1;" x1="295.6475" x2="337.6475" y1="618.7188" y2="618.7188"/><line style="stroke:#2B547E;stroke-width:1;" x1="337.6475" x2="337.6475" y1="618.7188" y2="631.7188"/><line style="stroke:#2B547E;stroke-width:1;" x1="296.6475" x2="337.6475" y1="631.7188" y2="631.7188"/><polygon fill="#2B547E" points="306.6475,627.7188,296.6475,631.7188,306.6475,635.7188,302.6475,631.7188" style="stroke:#2B547E;stroke-width:1;"/><text fill="#000000" font-family="sans-serif" font-size="13" lengthAdjust="spacing" textLength="124.8013" x="302.6475" y="613.6528">Valider la structure</text><path d="M10,646.7188 L74.4429,646.7188 L74.4429,653.8516 L64.4429,663.8516 L10,663.8516 L10,646.7188 " fill="#EEEEEE" style="stroke:#000000;stroke-width:1.5;"/><rect fill="transparent" height="132.3359" style="stroke:#000000;stroke-width:1.5;" width="455.9883" x="10" y="646.7188"/><text fill="#000000" font-family="sans-serif" font-size="13" font-weight="bold" lengthAdjust="spacing" textLength="19.4429" x="25" y="659.7856">alt</text><text fill="#000000" font-family="sans-serif" font-size="11" font-weight="bold" lengthAdjust="spacing" textLength="110.2847" x="89.4429" y="658.9292">[Structure valide]</text><line style="stroke:#2B547E;stroke-width:1;" x1="295.6475" x2="337.6475" y1="684.9844" y2="684.9844"/><line style="stroke:#2B547E;stroke-width:1;" x1="337.6475" x2="337.6475" y1="684.9844" y2="697.9844"/><line style="stroke:#2B547E;stroke-width:1;" x1="296.6475" x2="337.6475" y1="697.9844" y2="697.9844"/><polygon fill="#2B547E" points="306.6475,693.9844,296.6475,697.9844,306.6475,701.9844,302.6475,697.9844" style="stroke:#2B547E;stroke-width:1;"/><text fill="#000000" font-family="sans-serif" font-size="13" lengthAdjust="spacing" textLength="151.3408" x="302.6475" y="679.9185">Enregistrer la structure</text><polygon fill="#2B547E" points="86.3018,723.1172,76.3018,727.1172,86.3018,731.1172,82.3018,727.1172" style="stroke:#2B547E;stroke-width:1;"/><line style="stroke:#2B547E;stroke-width:1;stroke-dasharray:2.0,2.0;" x1="80.3018" x2="294.6475" y1="727.1172" y2="727.1172"/><text fill="#000000" font-family="sans-serif" font-size="13" lengthAdjust="spacing" textLength="121.3354" x="92.3018" y="722.0513">Confirmation ajout</text><line style="stroke:#000000;stroke-width:1;stroke-dasharray:2.0,2.0;" x1="10" x2="465.9883" y1="736.1172" y2="736.1172"/><text fill="#000000" font-family="sans-serif" font-size="11" font-weight="bold" lengthAdjust="spacing" textLength="121.8862" x="15" y="746.3276">[Structure invalide]</text><polygon fill="#2B547E" points="86.3018,767.0547,76.3018,771.0547,86.3018,775.0547,82.3018,771.0547" style="stroke:#2B547E;stroke-width:1;"/><line style="stroke:#2B547E;stroke-width:1;stroke-dasharray:2.0,2.0;" x1="80.3018" x2="294.6475" y1="771.0547" y2="771.0547"/><text fill="#000000" font-family="sans-serif" font-size="13" lengthAdjust="spacing" textLength="113.2041" x="92.3018" y="765.9888">Message d'erreur</text><polygon fill="#2B547E" points="283.6475,803.1875,293.6475,807.1875,283.6475,811.1875,287.6475,807.1875" style="stroke:#2B547E;stroke-width:1;"/><line style="stroke:#2B547E;stroke-width:1;" x1="75.3018" x2="289.6475" y1="807.1875" y2="807.1875"/><text fill="#000000" font-family="sans-serif" font-size="13" lengthAdjust="spacing" textLength="127.9878" x="82.3018" y="802.1216">ajouterProfil(libelle)</text><line style="stroke:#2B547E;stroke-width:1;" x1="295.6475" x2="337.6475" y1="836.3203" y2="836.3203"/><line style="stroke:#2B547E;stroke-width:1;" x1="337.6475" x2="337.6475" y1="836.3203" y2="849.3203"/><line style="stroke:#2B547E;stroke-width:1;" x1="296.6475" x2="337.6475" y1="849.3203" y2="849.3203"/><polygon fill="#2B547E" points="306.6475,845.3203,296.6475,849.3203,306.6475,853.3203,302.6475,849.3203" style="stroke:#2B547E;stroke-width:1;"/><text fill="#000000" font-family="sans-serif" font-size="13" lengthAdjust="spacing" textLength="98.9028" x="302.6475" y="831.2544">Valider le profil</text><path d="M10,864.3203 L74.4429,864.3203 L74.4429,871.4531 L64.4429,881.4531 L10,881.4531 L10,864.3203 " fill="#EEEEEE" style="stroke:#000000;stroke-width:1.5;"/><rect fill="transparent" height="132.3359" style="stroke:#000000;stroke-width:1.5;" width="430.0898" x="10" y="864.3203"/><text fill="#000000" font-family="sans-serif" font-size="13" font-weight="bold" lengthAdjust="spacing" textLength="19.4429" x="25" y="877.3872">alt</text><text fill="#000000" font-family="sans-serif" font-size="11" font-weight="bold" lengthAdjust="spacing" textLength="84.7236" x="89.4429" y="876.5308">[Profil valide]</text><line style="stroke:#2B547E;stroke-width:1;" x1="295.6475" x2="337.6475" y1="902.5859" y2="902.5859"/><line style="stroke:#2B547E;stroke-width:1;" x1="337.6475" x2="337.6475" y1="902.5859" y2="915.5859"/><line style="stroke:#2B547E;stroke-width:1;" x1="296.6475" x2="337.6475" y1="915.5859" y2="915.5859"/><polygon fill="#2B547E" points="306.6475,911.5859,296.6475,915.5859,306.6475,919.5859,302.6475,915.5859" style="stroke:#2B547E;stroke-width:1;"/><text fill="#000000" font-family="sans-serif" font-size="13" lengthAdjust="spacing" textLength="125.4424" x="302.6475" y="897.52">Enregistrer le profil</text><polygon fill="#2B547E" points="86.3018,940.7188,76.3018,944.7188,86.3018,948.7188,82.3018,944.7188" style="stroke:#2B547E;stroke-width:1;"/><line style="stroke:#2B547E;stroke-width:1;stroke-dasharray:2.0,2.0;" x1="80.3018" x2="294.6475" y1="944.7188" y2="944.7188"/><text fill="#000000" font-family="sans-serif" font-size="13" lengthAdjust="spacing" textLength="121.3354" x="92.3018" y="939.6528">Confirmation ajout</text><line style="stroke:#000000;stroke-width:1;stroke-dasharray:2.0,2.0;" x1="10" x2="440.0898" y1="953.7188" y2="953.7188"/><text fill="#000000" font-family="sans-serif" font-size="11" font-weight="bold" lengthAdjust="spacing" textLength="96.3252" x="15" y="963.9292">[Profil invalide]</text><polygon fill="#2B547E" points="86.3018,984.6563,76.3018,988.6563,86.3018,992.6563,82.3018,988.6563" style="stroke:#2B547E;stroke-width:1;"/><line style="stroke:#2B547E;stroke-width:1;stroke-dasharray:2.0,2.0;" x1="80.3018" x2="294.6475" y1="988.6563" y2="988.6563"/><text fill="#000000" font-family="sans-serif" font-size="13" lengthAdjust="spacing" textLength="113.2041" x="92.3018" y="983.5903">Message d'erreur</text><!--SRC=[lPFTZjem48NlynGZUi5MshBGBh-YI6H9gaeiNPLkfLwQP8ZSTMngEzi_zNtAS_1YJPn00WqKgDfmWprdpd4-JwhmikI1wRiFOmTktuoSjnEdL6Af1yeNH98GPiHx2AI8k7yZc93mnEt4FxUWKFWfGkuXVBSWVePIYi-PzhdTl6uxwRQdXRI5z56kYzrEtUuMYhj9evOpT3j6CAPp75EE-mmszLqFntQRhcqqTqHgwj45uNgVJL5omCaMNmuTDYdl2N05rnCI8bIc60Y4-zULpVwKVaDejCpw5fKY0IRRcKcZUVsYLTyjfZrDipqH-lVtTxjEk-lczUAvx7QtMRUj7vQccY7qPuE-YlrwZSxW5IfD1OU0YHc9Q_5D0wiIFwISAYs9naZshnBre7yr6rXMTS-ehPRPSFHWxNclAQFAM9GF7qcc0OPROTOYlveOtbUbLpz3h01Ha2mmjBRry6oG5U9aJoBAGkm54m7bbo05mqkerMfFhKnRx7fF68rX0KC5lk1yjKHb4QPXb2tWqIYKeLjYu729GNAYnAGQvVbR3N77pj5xS2FudCgG65wUN2tDFmkPmZoTyhByChjiOC2lefH9FdB_f2iRYP34NrVvTHq0JpwAIAFCsYyOdI5Z-0VQCMmZprYdoUch7aKwDpW9ipdh6d4QkYRyxm5FjOmy7Scp4MyCZeDCGAqR3EOy_mJGHPDpKUV1_m_sdHHpoiubdNOVEyiBepQCizYJ9ZbhFvTk5lbNQ7y1]--></g></svg>