<svg xmlns="http://www.w3.org/2000/svg" xmlns:xlink="http://www.w3.org/1999/xlink" contentStyleType="text/css" data-diagram-type="SEQUENCE" height="675px" preserveAspectRatio="none" style="width:538px;height:675px;background:#F8F8FF;" version="1.1" viewBox="0 0 538 675" width="538px" zoomAndPan="magnify"><title>&lt;b&gt;&lt;size:18&gt;Actions du formateur&lt;/size&gt;&lt;/b&gt;</title><defs/><g><rect fill="#F8F8FF" height="675" style="stroke:transparent;stroke-width:1;" width="538" x="0" y="0"/><text fill="#000000" font-family="sans-serif" font-size="18" font-weight="bold" lengthAdjust="spacing" textLength="215.9824" x="160.8442" y="31.708">Actions du formateur</text><rect fill="transparent" height="90.2031" style="stroke:#000000;stroke-width:1.5;" width="398.3555" x="10" y="211.5156"/><rect fill="transparent" height="90.2031" style="stroke:#000000;stroke-width:1.5;" width="398.3555" x="10" y="386.9844"/><g><title>Formateur</title><rect fill="transparent" height="471.3359" width="8" x="55.6611" y="123.25"/><line style="stroke:#2980B9;stroke-width:0.5;stroke-dasharray:5.0,5.0;" x1="59" x2="59" y1="123.25" y2="594.5859"/></g><g><title>Syst&#232;me</title><rect fill="transparent" height="471.3359" width="8" x="356.9458" y="123.25"/><line style="stroke:#2980B9;stroke-width:0.5;stroke-dasharray:5.0,5.0;" x1="360.5361" x2="360.5361" y1="123.25" y2="594.5859"/></g><text fill="#000000" font-family="sans-serif" font-size="14" lengthAdjust="spacing" textLength="73.3223" x="20" y="119.9482">Formateur</text><ellipse cx="59.6611" cy="55.4531" fill="#D6EAF8" rx="8" ry="8" style="stroke:#2980B9;stroke-width:0.5;"/><path d="M59.6611,63.4531 L59.6611,90.4531 M46.6611,71.4531 L72.6611,71.4531 M59.6611,90.4531 L46.6611,105.4531 M59.6611,90.4531 L72.6611,105.4531 " fill="transparent" style="stroke:#2980B9;stroke-width:0.5;"/><text fill="#000000" font-family="sans-serif" font-size="14" lengthAdjust="spacing" textLength="73.3223" x="20" y="606.5811">Formateur</text><ellipse cx="59.6611" cy="618.3828" fill="#D6EAF8" rx="8" ry="8" style="stroke:#2980B9;stroke-width:0.5;"/><path d="M59.6611,626.3828 L59.6611,653.3828 M46.6611,634.3828 L72.6611,634.3828 M59.6611,653.3828 L46.6611,668.3828 M59.6611,653.3828 L72.6611,668.3828 " fill="transparent" style="stroke:#2980B9;stroke-width:0.5;"/><rect fill="#EBF5FB" height="30.2969" rx="2.5" ry="2.5" style="stroke:#2980B9;stroke-width:0.5;" width="74.8193" x="323.5361" y="91.9531"/><text fill="#000000" font-family="sans-serif" font-size="14" lengthAdjust="spacing" textLength="60.8193" x="330.5361" y="111.9482">Syst&#232;me</text><rect fill="#EBF5FB" height="30.2969" rx="2.5" ry="2.5" style="stroke:#2980B9;stroke-width:0.5;" width="74.8193" x="323.5361" y="593.5859"/><text fill="#000000" font-family="sans-serif" font-size="14" lengthAdjust="spacing" textLength="60.8193" x="330.5361" y="613.5811">Syst&#232;me</text><polygon fill="#2B547E" points="348.9458,150.3828,358.9458,154.3828,348.9458,158.3828,352.9458,154.3828" style="stroke:#2B547E;stroke-width:1;"/><line style="stroke:#2B547E;stroke-width:1;" x1="59.6611" x2="354.9458" y1="154.3828" y2="154.3828"/><text fill="#000000" font-family="sans-serif" font-size="13" lengthAdjust="spacing" textLength="193.8892" x="66.6611" y="149.3169">seConnecter(login, password)</text><line style="stroke:#2B547E;stroke-width:1;" x1="360.9458" x2="402.9458" y1="183.5156" y2="183.5156"/><line style="stroke:#2B547E;stroke-width:1;" x1="402.9458" x2="402.9458" y1="183.5156" y2="196.5156"/><line style="stroke:#2B547E;stroke-width:1;" x1="361.9458" x2="402.9458" y1="196.5156" y2="196.5156"/><polygon fill="#2B547E" points="371.9458,192.5156,361.9458,196.5156,371.9458,200.5156,367.9458,196.5156" style="stroke:#2B547E;stroke-width:1;"/><text fill="#000000" font-family="sans-serif" font-size="13" lengthAdjust="spacing" textLength="147.1006" x="367.9458" y="178.4497">V&#233;rifier les identifiants</text><path d="M10,211.5156 L74.4429,211.5156 L74.4429,218.6484 L64.4429,228.6484 L10,228.6484 L10,211.5156 " fill="#EEEEEE" style="stroke:#000000;stroke-width:1.5;"/><rect fill="transparent" height="90.2031" style="stroke:#000000;stroke-width:1.5;" width="398.3555" x="10" y="211.5156"/><text fill="#000000" font-family="sans-serif" font-size="13" font-weight="bold" lengthAdjust="spacing" textLength="19.4429" x="25" y="224.5825">alt</text><text fill="#000000" font-family="sans-serif" font-size="11" font-weight="bold" lengthAdjust="spacing" textLength="129.8032" x="89.4429" y="223.7261">[Identifiants valides]</text><polygon fill="#2B547E" points="70.6611,245.7813,60.6611,249.7813,70.6611,253.7813,66.6611,249.7813" style="stroke:#2B547E;stroke-width:1;"/><line style="stroke:#2B547E;stroke-width:1;stroke-dasharray:2.0,2.0;" x1="64.6611" x2="359.9458" y1="249.7813" y2="249.7813"/><text fill="#000000" font-family="sans-serif" font-size="13" lengthAdjust="spacing" textLength="119.8755" x="76.6611" y="244.7153">Connexion r&#233;ussie</text><line style="stroke:#000000;stroke-width:1;stroke-dasharray:2.0,2.0;" x1="10" x2="408.3555" y1="258.7813" y2="258.7813"/><text fill="#000000" font-family="sans-serif" font-size="11" font-weight="bold" lengthAdjust="spacing" textLength="141.4048" x="15" y="268.9917">[Identifiants invalides]</text><polygon fill="#2B547E" points="70.6611,289.7188,60.6611,293.7188,70.6611,297.7188,66.6611,293.7188" style="stroke:#2B547E;stroke-width:1;"/><line style="stroke:#2B547E;stroke-width:1;stroke-dasharray:2.0,2.0;" x1="64.6611" x2="359.9458" y1="293.7188" y2="293.7188"/><text fill="#000000" font-family="sans-serif" font-size="13" lengthAdjust="spacing" textLength="113.2041" x="76.6611" y="288.6528">Message d'erreur</text><polygon fill="#2B547E" points="348.9458,325.8516,358.9458,329.8516,348.9458,333.8516,352.9458,329.8516" style="stroke:#2B547E;stroke-width:1;"/><line style="stroke:#2B547E;stroke-width:1;" x1="59.6611" x2="354.9458" y1="329.8516" y2="329.8516"/><text fill="#000000" font-family="sans-serif" font-size="13" lengthAdjust="spacing" textLength="200.4463" x="66.6611" y="324.7856">animerFormation(idFormation)</text><line style="stroke:#2B547E;stroke-width:1;" x1="360.9458" x2="402.9458" y1="358.9844" y2="358.9844"/><line style="stroke:#2B547E;stroke-width:1;" x1="402.9458" x2="402.9458" y1="358.9844" y2="371.9844"/><line style="stroke:#2B547E;stroke-width:1;" x1="361.9458" x2="402.9458" y1="371.9844" y2="371.9844"/><polygon fill="#2B547E" points="371.9458,367.9844,361.9458,371.9844,371.9458,375.9844,367.9458,371.9844" style="stroke:#2B547E;stroke-width:1;"/><text fill="#000000" font-family="sans-serif" font-size="13" lengthAdjust="spacing" textLength="160.7607" x="367.9458" y="353.9185">V&#233;rifier droits Formateur</text><path d="M10,386.9844 L74.4429,386.9844 L74.4429,394.1172 L64.4429,404.1172 L10,404.1172 L10,386.9844 " fill="#EEEEEE" style="stroke:#000000;stroke-width:1.5;"/><rect fill="transparent" height="90.2031" style="stroke:#000000;stroke-width:1.5;" width="398.3555" x="10" y="386.9844"/><text fill="#000000" font-family="sans-serif" font-size="13" font-weight="bold" lengthAdjust="spacing" textLength="19.4429" x="25" y="400.0513">alt</text><text fill="#000000" font-family="sans-serif" font-size="11" font-weight="bold" lengthAdjust="spacing" textLength="130.5122" x="89.4429" y="399.1948">[Formateur autoris&#233;]</text><polygon fill="#2B547E" points="70.6611,421.25,60.6611,425.25,70.6611,429.25,66.6611,425.25" style="stroke:#2B547E;stroke-width:1;"/><line style="stroke:#2B547E;stroke-width:1;stroke-dasharray:2.0,2.0;" x1="64.6611" x2="359.9458" y1="425.25" y2="425.25"/><text fill="#000000" font-family="sans-serif" font-size="13" lengthAdjust="spacing" textLength="126.7246" x="76.6611" y="420.1841">Acc&#232;s &#224; l'animation</text><line style="stroke:#000000;stroke-width:1;stroke-dasharray:2.0,2.0;" x1="10" x2="408.3555" y1="434.25" y2="434.25"/><text fill="#000000" font-family="sans-serif" font-size="11" font-weight="bold" lengthAdjust="spacing" textLength="89.751" x="15" y="444.4604">[Non autoris&#233;]</text><polygon fill="#2B547E" points="70.6611,465.1875,60.6611,469.1875,70.6611,473.1875,66.6611,469.1875" style="stroke:#2B547E;stroke-width:1;"/><line style="stroke:#2B547E;stroke-width:1;stroke-dasharray:2.0,2.0;" x1="64.6611" x2="359.9458" y1="469.1875" y2="469.1875"/><text fill="#000000" font-family="sans-serif" font-size="13" lengthAdjust="spacing" textLength="77.7842" x="76.6611" y="464.1216">Refus acc&#232;s</text><polygon fill="#2B547E" points="348.9458,501.3203,358.9458,505.3203,348.9458,509.3203,352.9458,505.3203" style="stroke:#2B547E;stroke-width:1;"/><line style="stroke:#2B547E;stroke-width:1;" x1="59.6611" x2="354.9458" y1="505.3203" y2="505.3203"/><text fill="#000000" font-family="sans-serif" font-size="13" lengthAdjust="spacing" textLength="277.2847" x="66.6611" y="500.2544">gererPresence(idFormation, listePr&#233;sence)</text><line style="stroke:#2B547E;stroke-width:1;" x1="360.9458" x2="402.9458" y1="534.4531" y2="534.4531"/><line style="stroke:#2B547E;stroke-width:1;" x1="402.9458" x2="402.9458" y1="534.4531" y2="547.4531"/><line style="stroke:#2B547E;stroke-width:1;" x1="361.9458" x2="402.9458" y1="547.4531" y2="547.4531"/><polygon fill="#2B547E" points="371.9458,543.4531,361.9458,547.4531,371.9458,551.4531,367.9458,547.4531" style="stroke:#2B547E;stroke-width:1;"/><text fill="#000000" font-family="sans-serif" font-size="13" lengthAdjust="spacing" textLength="163.7251" x="367.9458" y="529.3872">Mettre &#224; jour la pr&#233;sence</text><polygon fill="#2B547E" points="70.6611,572.5859,60.6611,576.5859,70.6611,580.5859,66.6611,576.5859" style="stroke:#2B547E;stroke-width:1;"/><line style="stroke:#2B547E;stroke-width:1;stroke-dasharray:2.0,2.0;" x1="64.6611" x2="359.9458" y1="576.5859" y2="576.5859"/><text fill="#000000" font-family="sans-serif" font-size="13" lengthAdjust="spacing" textLength="204.7119" x="76.6611" y="571.52">Confirmation prise de pr&#233;sence</text><!--SRC=[bLBRRjf047tVhnZH1r8fLQ0DjuWYuSIk8W55eQtKnyKUq3RsBjrTDsch_aiVmtVunpes1ZiKKxf-ySwSFJFdpDJXxO43im-VHowCtz-uTnFt88IPUo5NNFC8vjo_NseLo-1QXKh32wzBdrT26FmQe_GHVZAWCzHQFUJOrqxhikDkmhvLsb4wGBrDzheDfrTAxbUwQRj3hvi1HcA18o6nYc2Nt-Tm7Q_bEHbcohKLlbXnQQjeof0ZJ8vwFDPicgueu2bf9pn2gCrmgH0-tjPsyPduWT1iP_Sn6iENc8PpacRhyasxiP_Sl6bbuOcoV-ltUcwdvnNvSbzEfzTgEEmNiyA62Ftve6-8xwhP7T10X986WXWMIaVSOgpx5sbsqB-O3nYhLwnMiiwNuGgkbPJuI3I7LuodCoVXEJjR5TwJEz-DJPuYh04ta5umOZiel1haCQfYCAlZMzHdeLeAUGuhRim32Nt9SbGP_obPQx4Gg2540o90QUbAHGtZeONRKW2-yP009dDlIqLSHIDbaJfPnyO8P1WQVCuZv0bC-LGXgAFMgI4eWvDy7aeHaPnOOZwhIiiFEyYpzzxswPa8Tl__S33GIf2yOeQfWqKH7jE4XKdMnsGFVJzvCf3yXh2UTfBLtNWu8HqdSTpX8ZR0CwQJRNj7Cj8juB2YqPaiIYE2qXwQ_x5nYKGtrPWnbKqyXr0GPhgjSj3KCLghCRNXYugVTyMgLsyXjlDUaKbf_yMpFm00]--></g></svg>